<?xml version="1.0" encoding="UTF-8"?>
<svg version="1.1" xmlns="http://www.w3.org/2000/svg" width="457" height="154">
<path d="M0 0 C150.81 0 301.62 0 457 0 C457 50.82 457 101.64 457 154 C306.19 154 155.38 154 0 154 C0 103.18 0 52.36 0 0 Z " fill="#FCFCFD" transform="translate(0,0)"/>
<path d="M0 0 C0.90492187 0.45761719 1.80984375 0.91523438 2.7421875 1.38671875 C17.52637807 9.58767552 26.82391883 22.51324371 33 38 C33.74378906 37.51273438 34.48757812 37.02546875 35.25390625 36.5234375 C38.86394345 34.52071416 42.00330068 34.43353868 46 35 C51.26594344 36.85856827 53.79395768 39.60314196 57 44 C58.00005304 47.00015912 58.11575585 48.97423756 58.09765625 52.10546875 C58.09443359 53.08837891 58.09121094 54.07128906 58.08789062 55.08398438 C58.07951172 56.10814453 58.07113281 57.13230469 58.0625 58.1875 C58.05798828 59.22326172 58.05347656 60.25902344 58.04882812 61.32617188 C58.0370401 63.88417266 58.02058515 66.44205733 58 69 C59.16656128 69.42684082 59.16656128 69.42684082 60.35668945 69.86230469 C63.77494541 71.33354074 65.06666349 72.83233651 67 76 C67.42578125 79.296875 67.42578125 79.296875 67.3125 82.75 C67.28800781 83.89984375 67.26351562 85.0496875 67.23828125 86.234375 C67 89 67 89 66 90 C65.79395915 91.32781878 65.6337041 92.66295895 65.5 94 C65.11111111 97.88888889 65.11111111 97.88888889 64 99 C61.3226862 99.09981214 58.67695825 99.13879875 56 99.125 C54.87464844 99.13080078 54.87464844 99.13080078 53.7265625 99.13671875 C48.12661053 99.12661053 48.12661053 99.12661053 47 98 C46.68076508 95.9427083 46.48838648 93.88386479 46.28125 91.8125 C46.18001957 89.9832467 46.18001957 89.9832467 45 89 C43.92027676 77.21559208 43.92027676 77.21559208 45.9765625 72.99609375 C48.34948443 70.55766171 50.7677403 69.69756032 54 69 C53.94800985 65.26970678 53.85290558 61.54170864 53.75 57.8125 C53.73582031 56.75740234 53.72164062 55.70230469 53.70703125 54.61523438 C53.54296045 48.41224284 53.54296045 48.41224284 51.078125 42.82421875 C48.1087412 40.2176356 46.43243303 39.84427285 42.5625 39.8125 C41.78003906 39.79832031 40.99757812 39.78414062 40.19140625 39.76953125 C37.70794013 39.85913936 37.70794013 39.85913936 35 42 C35.61488281 42.24234375 36.22976562 42.4846875 36.86328125 42.734375 C40.20041515 44.11819448 43.25529123 45.39069283 46.0625 47.6875 C47.59338739 51.4636889 47.76067174 55.00301579 47 59 C45.28095248 62.06881816 43.19285833 64.40357084 40 66 C37.6670134 66.04022391 35.33293334 66.04320247 33 66 C32.938125 66.928125 32.87625 67.85625 32.8125 68.8125 C30.82564548 82.33944103 21.41188781 94.7602067 11 103 C11.40992188 103.44730469 11.81984375 103.89460938 12.2421875 104.35546875 C12.78101563 104.96003906 13.31984375 105.56460938 13.875 106.1875 C14.40867188 106.77917969 14.94234375 107.37085938 15.4921875 107.98046875 C18.87040628 112.50518147 19.2947606 116.55482701 19.3125 122.125 C19.32925781 123.34445313 19.34601563 124.56390625 19.36328125 125.8203125 C19 129 19 129 17.8034668 130.67382812 C15.37625449 132.45866869 13.77704487 132.38752291 10.78125 132.3984375 C9.76675781 132.40230469 8.75226563 132.40617188 7.70703125 132.41015625 C6.64871094 132.39855469 5.59039062 132.38695312 4.5 132.375 C3.44167969 132.38660156 2.38335937 132.39820313 1.29296875 132.41015625 C-0.22876953 132.40435547 -0.22876953 132.40435547 -1.78125 132.3984375 C-3.1744043 132.39336182 -3.1744043 132.39336182 -4.59570312 132.38818359 C-7 132 -7 132 -8.80786133 130.69848633 C-10.80091245 127.85890889 -10.30881168 124.64390531 -10.1875 121.3125 C-10.16719727 120.2596582 -10.16719727 120.2596582 -10.14648438 119.18554688 C-10.11120182 117.45670171 -10.05739583 115.72825235 -10 114 C-10.54277588 114.16226074 -11.08555176 114.32452148 -11.64477539 114.49169922 C-14.38145694 115.08232542 -16.88349635 115.12963701 -19.68359375 115.1328125 C-21.32231445 115.13474609 -21.32231445 115.13474609 -22.99414062 115.13671875 C-24.69860352 115.13091797 -24.69860352 115.13091797 -26.4375 115.125 C-27.56994141 115.12886719 -28.70238281 115.13273437 -29.86914062 115.13671875 C-30.96291016 115.13542969 -32.05667969 115.13414062 -33.18359375 115.1328125 C-34.17931396 115.13168457 -35.17503418 115.13055664 -36.20092773 115.12939453 C-38.90203192 115.00452883 -41.36887185 114.60554132 -44 114 C-43.98839844 115.21558594 -43.97679688 116.43117188 -43.96484375 117.68359375 C-43.95546722 119.26822764 -43.94636687 120.85286318 -43.9375 122.4375 C-43.92912109 123.23994141 -43.92074219 124.04238281 -43.91210938 124.86914062 C-43.9034857 126.91295221 -43.9477185 128.95683902 -44 131 C-45.71567792 132.71567792 -47.97372735 132.13015825 -50.3125 132.1328125 C-51.38757813 132.13410156 -52.46265625 132.13539063 -53.5703125 132.13671875 C-54.70210938 132.13285156 -55.83390625 132.12898437 -57 132.125 C-58.69769531 132.13080078 -58.69769531 132.13080078 -60.4296875 132.13671875 C-61.50476563 132.13542969 -62.57984375 132.13414062 -63.6875 132.1328125 C-64.68136719 132.13168457 -65.67523438 132.13055664 -66.69921875 132.12939453 C-69 132 -69 132 -70 131 C-70.20831425 128.25322785 -70.32470387 125.56278403 -70.375 122.8125 C-70.43107422 121.67844727 -70.43107422 121.67844727 -70.48828125 120.52148438 C-70.5513583 116.48104916 -70.31296957 113.84247618 -67.7265625 110.63671875 C-65.55949975 108.54106351 -63.50314099 106.66876066 -61 105 C-61.54527344 104.63390625 -62.09054688 104.2678125 -62.65234375 103.890625 C-72.65832217 96.70684562 -80.01066977 86.68733428 -84 75 C-84 74.01 -84 73.02 -84 72 C-84.928125 72.639375 -85.85625 73.27875 -86.8125 73.9375 C-91.45732082 76.94297229 -95.53532896 77.71684848 -101 77 C-105.45606004 74.90303057 -108.58550632 71.96714918 -111.09765625 67.76953125 C-113.1441418 61.48832667 -112.33339423 54.51970948 -112 48 C-113.18335937 47.81050781 -113.18335937 47.81050781 -114.390625 47.6171875 C-117 47 -117 47 -118.75 45.125 C-121.17280569 41.00623033 -121.13464002 37.56968946 -121.125 32.875 C-121.12886719 30.98394531 -121.12886719 30.98394531 -121.1328125 29.0546875 C-121 26 -121 26 -120 25 C-119.79162581 23.17093765 -119.63250341 21.33611866 -119.5 19.5 C-119.11111111 14.11111111 -119.11111111 14.11111111 -118 13 C-115.3226862 12.90018786 -112.67695825 12.86120125 -110 12.875 C-109.24976563 12.87113281 -108.49953125 12.86726563 -107.7265625 12.86328125 C-102.12661053 12.87338947 -102.12661053 12.87338947 -101 14 C-100.67648699 16.83972535 -100.4869571 19.68073737 -100.28125 22.53125 C-100.26614735 24.9413605 -100.26614735 24.9413605 -99 26 C-98.8189637 28.59980001 -98.72186086 31.14773781 -98.6875 33.75 C-98.65849609 34.46671875 -98.62949219 35.1834375 -98.59960938 35.921875 C-98.55601494 39.57039407 -98.85080069 41.75627486 -100.76953125 44.890625 C-102.8068914 46.81737541 -104.40790929 47.98167865 -107 49 C-107.08132187 51.56314499 -107.14064175 54.12368418 -107.1875 56.6875 C-107.21263672 57.40873047 -107.23777344 58.12996094 -107.26367188 58.87304688 C-107.32667231 63.47207891 -106.88572296 66.37434807 -104 70 C-99.98141405 72.6790573 -96.72358279 72.69610694 -92 72 C-89.12970131 70.20606332 -87.50868362 69.01736724 -86 66 C-86.86625 66.103125 -87.7325 66.20625 -88.625 66.3125 C-93.28238905 65.88126027 -94.68789149 64.23508273 -98 61 C-99.73125121 57.53749757 -99.47815224 53.78591771 -99 50 C-96.92591052 46.51849266 -94.87731237 44.29243746 -91 43 C-89.33355591 42.97276243 -87.66639306 42.96980177 -86 43 C-85.85304687 42.33355469 -85.70609375 41.66710938 -85.5546875 40.98046875 C-81.82294985 25.64602955 -73.16897667 12.77931778 -60 4 C-41.96160872 -6.52325635 -19.17642275 -9.90172237 0 0 Z " fill="#134A83" transform="translate(127,21)"/>
<path d="M0 0 C9.77442367 5.15489949 16.0817006 12.7487822 19.49609375 23.31640625 C20.50000897 34.07931131 19.99102713 43.94476953 13.578125 53.03515625 C7.18080199 60.73458925 -1.31451783 66.33863665 -11.50390625 67.31640625 C-23.3978195 67.55884813 -31.68985498 65.18433013 -40.37890625 57.00390625 C-48.03016465 48.85335938 -51.13696125 39.37174216 -50.875 28.24609375 C-49.67651132 18.78434101 -44.81225853 10.35674788 -37.50390625 4.31640625 C-25.85557318 -3.60563387 -13.24848291 -5.6497988 0 0 Z " fill="#FAFBFC" transform="translate(115.50390625,43.68359375)"/>
<path d="M0 0 C1.65 0 3.3 0 5 0 C5.495 1.98 5.495 1.98 6 4 C6.66 4 7.32 4 8 4 C8.33 2.68 8.66 1.36 9 0 C10.65 0.33 12.3 0.66 14 1 C14 1.99 14 2.98 14 4 C14.66 4 15.32 4 16 4 C16.33 3.01 16.66 2.02 17 1 C19.375 1.3125 19.375 1.3125 22 2 C22.99 3.485 22.99 3.485 24 5 C24 4.34 24 3.68 24 3 C25.65 3.33 27.3 3.66 29 4 C29 4.66 29 5.32 29 6 C28.34 6 27.68 6 27 6 C27 6.66 27 7.32 27 8 C29.64 7.67 32.28 7.34 35 7 C35 8.65 35 10.3 35 12 C37.97 11.505 37.97 11.505 41 11 C41.495 13.475 41.495 13.475 42 16 C42.99 16 43.98 16 45 16 C45.99 16.66 46.98 17.32 48 18 C48 18.66 48 19.32 48 20 C47.01 20 46.02 20 45 20 C45.886875 20.94875 46.77375 21.8975 47.6875 22.875 C52.60341411 28.61996375 56 34.36744668 56 42 C52.04 42 48.08 42 44 42 C43.64808594 41.21496094 43.29617187 40.42992187 42.93359375 39.62109375 C38.06215 29.25496672 32.64643166 22.61460593 22 18 C11.20140673 14.37065031 -0.0969906 14.49140061 -10.3828125 19.453125 C-19.99562316 25.13472653 -25.65648685 32.86513599 -30 43 C-38.91 43 -47.82 43 -57 43 C-57 42.67 -57 42.34 -57 42 C-55.35 42 -53.7 42 -52 42 C-51.67 41.34 -51.34 40.68 -51 40 C-51 40.66 -51 41.32 -51 42 C-46.545 41.505 -46.545 41.505 -42 41 C-41.69707031 40.21496094 -41.39414062 39.42992187 -41.08203125 38.62109375 C-37.24055755 28.98785971 -37.24055755 28.98785971 -34.1875 25.0625 C-31.95152606 21.93213649 -31.43446175 20.73255245 -32 17 C-30.68 17 -29.36 17 -28 17 C-26.7763932 14.9254644 -26.7763932 14.9254644 -27 12 C-26.34 12 -25.68 12 -25 12 C-21 16.47058824 -21 16.47058824 -21 19 C-19.68 18.67 -18.36 18.34 -17 18 C-17.680625 16.9275 -18.36125 15.855 -19.0625 14.75 C-21.03471002 11.33842267 -21.03471002 11.33842267 -20.75 8.5625 C-20.5025 8.046875 -20.255 7.53125 -20 7 C-19.01 7 -18.02 7 -17 7 C-17 7.66 -17 8.32 -17 9 C-16.01 9 -15.02 9 -14 9 C-14 7.35 -14 5.7 -14 4 C-11.23723823 4.52268466 -8.6739124 5.10869587 -6 6 C-6.495 4.02 -6.495 4.02 -7 2 C-5.68 1.67 -4.36 1.34 -3 1 C-3 2.32 -3 3.64 -3 5 C-2.34 4.67 -1.68 4.34 -1 4 C-0.34786708 1.97536745 -0.34786708 1.97536745 0 0 Z " fill="#0C9AD5" transform="translate(93,22)"/>
<path d="M0 0 C3.63 0 7.26 0 11 0 C11.36351562 0.71285156 11.72703125 1.42570312 12.1015625 2.16015625 C18.07790624 13.54585726 23.77607243 19.28340178 35.23828125 25.14453125 C44.38923386 27.97912619 56.95654063 27.15775227 65.640625 23.328125 C75.75812765 17.63284205 81.36555403 10.90333791 85 0 C89.29 0 93.58 0 98 0 C96.26524968 6.33183866 94.36240739 11.39598768 91 17 C90.23959428 19.26985894 90.23959428 19.26985894 90 21 C89.01 21 88.02 21 87 21 C86.67 22.32 86.34 23.64 86 25 C85.01 25 84.02 25 83 25 C82.67 26.32 82.34 27.64 82 29 C81.01 29 80.02 29 79 29 C79 29.99 79 30.98 79 32 C78.1028125 32.1546875 78.1028125 32.1546875 77.1875 32.3125 C74.70138466 33.09385053 73.77056558 34.14895416 72 36 C71.34 36 70.68 36 70 36 C69.505 36.99 69.505 36.99 69 38 C67.02 37.505 67.02 37.505 65 37 C65 37.66 65 38.32 65 39 C62.69 38.67 60.38 38.34 58 38 C58 38.66 58 39.32 58 40 C55.03 39.505 55.03 39.505 52 39 C52 39.66 52 40.32 52 41 C49.36 41 46.72 41 44 41 C44 40.34 44 39.68 44 39 C42.72125 39.20625 41.4425 39.4125 40.125 39.625 C37.9453125 39.9765625 37.9453125 39.9765625 36 40 C35.34 39.34 34.68 38.68 34 38 C33.01 38.495 33.01 38.495 32 39 C32 38.34 32 37.68 32 37 C30.515 37.495 30.515 37.495 29 38 C27.515 37.505 27.515 37.505 26 37 C26 36.01 26 35.02 26 34 C24.515 34.495 24.515 34.495 23 35 C23 34.01 23 33.02 23 32 C22.278125 32.12375 21.55625 32.2475 20.8125 32.375 C18 32 18 32 15.375 29.125 C14.199375 27.578125 14.199375 27.578125 13 26 C12.01 25.34 11.02 24.68 10 24 C10 23.01 10 22.02 10 21 C9.01 21 8.02 21 7 21 C5.98757895 18.67143159 4.98919122 16.3384646 4 14 C3.64035156 13.15824219 3.28070313 12.31648438 2.91015625 11.44921875 C2.54792969 10.57910156 2.18570313 9.70898438 1.8125 8.8125 C1.46832031 7.99394531 1.12414063 7.17539063 0.76953125 6.33203125 C0 4 0 4 0 0 Z " fill="#1AA0D8" transform="translate(52,87)"/>
<path d="M0 0 C0.90492187 0.45761719 1.80984375 0.91523438 2.7421875 1.38671875 C17.36240596 9.49671835 26.56031911 21.92268312 32.3203125 37.3203125 C33 40 33 40 32 43 C29.03 43 26.06 43 23 43 C22.48050781 41.91460937 21.96101563 40.82921875 21.42578125 39.7109375 C20.72179152 38.26541192 20.01733975 36.8201113 19.3125 35.375 C18.97283203 34.66214844 18.63316406 33.94929688 18.28320312 33.21484375 C16.00080681 28.5647279 13.46864689 24.85135224 10 21 C10.99 20.505 10.99 20.505 12 20 C12.66 20.33 13.32 20.66 14 21 C12.7511573 19.4166747 12.7511573 19.4166747 11 18 C9.68 18 8.36 18 7 18 C7 16.35 7 14.7 7 13 C5.02 13 3.04 13 1 13 C1 11.35 1 9.7 1 8 C-1.64 8.33 -4.28 8.66 -7 9 C-7 8.34 -7 7.68 -7 7 C-6.34 7 -5.68 7 -5 7 C-5 6.34 -5 5.68 -5 5 C-6.65 4.67 -8.3 4.34 -10 4 C-9.505 5.485 -9.505 5.485 -9 7 C-9.99 6.67 -10.98 6.34 -12 6 C-12 5.01 -12 4.02 -12 3 C-13.65 3 -15.3 3 -17 3 C-17.33 3.66 -17.66 4.32 -18 5 C-18.66 5 -19.32 5 -20 5 C-20.495 3.515 -20.495 3.515 -21 2 C-22.32 2 -23.64 2 -25 2 C-25.33 2.99 -25.66 3.98 -26 5 C-26.66 5 -27.32 5 -28 5 C-28.495 3.515 -28.495 3.515 -29 2 C-31.475 1.505 -31.475 1.505 -34 1 C-34.33 2.65 -34.66 4.3 -35 6 C-35.66 6 -36.32 6 -37 6 C-37.495 4.515 -37.495 4.515 -38 3 C-38.99 3 -39.98 3 -41 3 C-40.505 4.98 -40.505 4.98 -40 7 C-42.66666667 6.33333333 -45.33333333 5.66666667 -48 5 C-48 6.65 -48 8.3 -48 10 C-48.99 10 -49.98 10 -51 10 C-51 9.34 -51 8.68 -51 8 C-51.99 8.33 -52.98 8.66 -54 9 C-53.39009109 12.55780196 -52.4216319 15.6828589 -51 19 C-52.32 19.33 -53.64 19.66 -55 20 C-59 15.25 -59 15.25 -59 13 C-59.66 13 -60.32 13 -61 13 C-60.67 14.65 -60.34 16.3 -60 18 C-61.66666667 18 -63.33333333 18 -65 18 C-64.89945313 19.07507812 -64.89945313 19.07507812 -64.796875 20.171875 C-65.05167047 23.71941194 -66.2289461 25.3457965 -68.25 28.25 C-71.44610389 33.02794842 -73.82262822 37.68721285 -76 43 C-78.97 43 -81.94 43 -85 43 C-84.77340277 31.6701384 -77.65637255 20.02985414 -70 12 C-51.80982094 -5.40499147 -22.92175749 -11.83562137 0 0 Z " fill="#134B83" transform="translate(127,21)"/>
<path d="M0 0 C0.89460938 -0.00128906 1.78921875 -0.00257812 2.7109375 -0.00390625 C3.65195313 -0.00003906 4.59296875 0.00382812 5.5625 0.0078125 C6.97402344 0.00201172 6.97402344 0.00201172 8.4140625 -0.00390625 C9.75597656 -0.00197266 9.75597656 -0.00197266 11.125 0 C11.95128906 0.00112793 12.77757813 0.00225586 13.62890625 0.00341797 C15.5625 0.1328125 15.5625 0.1328125 16.5625 1.1328125 C16.20922484 6.90297346 14.3621192 11.11954091 11.5625 16.1328125 C12.5215625 16.349375 12.5215625 16.349375 13.5 16.5703125 C15.5625 17.1328125 15.5625 17.1328125 16.5625 18.1328125 C16.69747271 24.34155695 13.99219516 27.67449302 10.30078125 32.47265625 C6.52910338 37.41651387 3.10768178 42.60887252 -0.375 47.7578125 C-1.69571933 49.70893963 -3.01727412 51.65950162 -4.33984375 53.609375 C-4.91210693 54.45580566 -5.48437012 55.30223633 -6.07397461 56.17431641 C-7.4375 58.1328125 -7.4375 58.1328125 -8.4375 59.1328125 C-10.9375 59.2578125 -10.9375 59.2578125 -13.4375 59.1328125 C-13.7675 58.8028125 -14.0975 58.4728125 -14.4375 58.1328125 C-14.11544428 48.14908514 -11.09879372 38.69775745 -8.4375 29.1328125 C-9.38882813 29.16375 -10.34015625 29.1946875 -11.3203125 29.2265625 C-14.4375 29.1328125 -14.4375 29.1328125 -16.3125 27.6328125 C-16.68375 27.1378125 -17.055 26.6428125 -17.4375 26.1328125 C-15.81264086 20.45973288 -13.14477378 15.49551924 -10.375 10.3203125 C-9.91544922 9.44955078 -9.45589844 8.57878906 -8.98242188 7.68164062 C-4.90866181 0.00670059 -4.90866181 0.00670059 0 0 Z " fill="#174D85" transform="translate(101.4375,48.8671875)"/>
<path d="M0 0 C4.40041954 3.7336893 5.66232069 7.14928277 7.0625 12.75 C7.0625 10.77 7.0625 8.79 7.0625 6.75 C10.15638917 9.84388917 10.2624443 12.73739508 10.375 16.9375 C10.31286061 23.64855456 8.28410328 27.93596918 4.1875 33.125 C-0.47532651 36.69069086 -5.20139043 37.15972211 -10.9375 36.75 C-14.375 35.75 -14.375 35.75 -16.9375 34.75 C-16.6075 34.09 -16.2775 33.43 -15.9375 32.75 C-16.88625 32.193125 -17.835 31.63625 -18.8125 31.0625 C-22.21831976 28.54219338 -22.76816219 27.68272576 -23.9375 23.75 C-24.54194985 17.80390031 -25.14952358 11.1026002 -22.375 5.625 C-16.42628031 -1.39143861 -8.64207837 -3.67748016 0 0 Z " fill="#FAFBFC" transform="translate(305.9375,104.25)"/>
<path d="M0 0 C4.40041954 3.7336893 5.66232069 7.14928277 7.0625 12.75 C7.0625 10.77 7.0625 8.79 7.0625 6.75 C10.15638917 9.84388917 10.2624443 12.73739508 10.375 16.9375 C10.31286061 23.64855456 8.28410328 27.93596918 4.1875 33.125 C-0.47532651 36.69069086 -5.20139043 37.15972211 -10.9375 36.75 C-14.375 35.75 -14.375 35.75 -16.9375 34.75 C-16.6075 34.09 -16.2775 33.43 -15.9375 32.75 C-16.88625 32.193125 -17.835 31.63625 -18.8125 31.0625 C-22.21831976 28.54219338 -22.76816219 27.68272576 -23.9375 23.75 C-24.54194985 17.80390031 -25.14952358 11.1026002 -22.375 5.625 C-16.42628031 -1.39143861 -8.64207837 -3.67748016 0 0 Z " fill="#FAFBFC" transform="translate(436.9375,33.25)"/>
<path d="M0 0 C4.23301121 2.82200747 7.17159664 5.95228992 8.8125 10.875 C8.89428114 12.57516844 8.91999501 14.27836297 8.91015625 15.98046875 C8.90693359 16.96337891 8.90371094 17.94628906 8.90039062 18.95898438 C8.88782227 20.49522461 8.88782227 20.49522461 8.875 22.0625 C8.87048828 23.09826172 8.86597656 24.13402344 8.86132812 25.20117188 C8.8495401 27.75917266 8.83308515 30.31705733 8.8125 32.875 C9.59020752 33.15956055 10.36791504 33.44412109 11.16918945 33.73730469 C14.58744541 35.20854074 15.87916349 36.70733651 17.8125 39.875 C18.23828125 43.171875 18.23828125 43.171875 18.125 46.625 C18.08826172 48.34976563 18.08826172 48.34976563 18.05078125 50.109375 C17.8125 52.875 17.8125 52.875 16.8125 53.875 C16.60645915 55.20281878 16.4462041 56.53795895 16.3125 57.875 C15.92361111 61.76388889 15.92361111 61.76388889 14.8125 62.875 C12.1351862 62.97481214 9.48945825 63.01379875 6.8125 63 C5.68714844 63.00580078 5.68714844 63.00580078 4.5390625 63.01171875 C-1.06088947 63.00161053 -1.06088947 63.00161053 -2.1875 61.875 C-2.50673492 59.8177083 -2.69911352 57.75886479 -2.90625 55.6875 C-3.00748043 53.8582467 -3.00748043 53.8582467 -4.1875 52.875 C-5.26722324 41.09059208 -5.26722324 41.09059208 -3.2109375 36.87109375 C-0.83801557 34.43266171 1.5802403 33.57256032 4.8125 32.875 C4.76050985 29.14470678 4.66540558 25.41670864 4.5625 21.6875 C4.54832031 20.63240234 4.53414062 19.57730469 4.51953125 18.49023438 C4.35546045 12.28724284 4.35546045 12.28724284 1.890625 6.69921875 C-1.0787588 4.0926356 -2.75506697 3.71927285 -6.625 3.6875 C-7.40746094 3.67332031 -8.18992188 3.65914062 -8.99609375 3.64453125 C-11.47955987 3.73413936 -11.47955987 3.73413936 -14.1875 5.875 C-13.1975 6.535 -12.2075 7.195 -11.1875 7.875 C-20.0975 7.875 -29.0075 7.875 -38.1875 7.875 C-38.1875 7.545 -38.1875 7.215 -38.1875 6.875 C-34.5575 6.875 -30.9275 6.875 -27.1875 6.875 C-26.8575 6.215 -26.5275 5.555 -26.1875 4.875 C-26.1875 5.535 -26.1875 6.195 -26.1875 6.875 C-23.2175 6.875 -20.2475 6.875 -17.1875 6.875 C-17.0946875 5.7303125 -17.0946875 5.7303125 -17 4.5625 C-16.1875 1.875 -16.1875 1.875 -14.125 0.0625 C-9.09359367 -1.97147277 -4.99334594 -1.76235739 0 0 Z " fill="#205A8F" transform="translate(176.1875,57.125)"/>
<path d="M0 0 C2.97 0.495 2.97 0.495 6 1 C8.30879451 1.07839853 10.61958492 1.10787794 12.9296875 1.09765625 C14.86328125 1.09282227 14.86328125 1.09282227 16.8359375 1.08789062 C18.18229236 1.07953733 19.52864652 1.07107241 20.875 1.0625 C22.24479004 1.0574783 23.61458185 1.05291657 24.984375 1.04882812 C28.3229619 1.03707254 31.66145815 1.02063964 35 1 C35.04898438 2.03640625 35.09796875 3.0728125 35.1484375 4.140625 C35.22349597 5.51044208 35.29904247 6.88023248 35.375 8.25 C35.4059375 8.93191406 35.436875 9.61382812 35.46875 10.31640625 C35.69783932 14.24910625 36.19447103 16.38894206 38 20 C25.46 20 12.92 20 0 20 C0 13.4 0 6.8 0 0 Z " fill="#FDFDFE" transform="translate(82,134)"/>
<path d="M0 0 C2.866875 -0.0825 5.73375 -0.165 8.6875 -0.25 C9.58170654 -0.28641602 10.47591309 -0.32283203 11.3972168 -0.36035156 C15.39575659 -0.41595535 17.52967305 -0.27761936 21.05078125 1.80078125 C23 4 23 4 23.5 7.4375 C22.98960376 11.07407324 22.1391007 13.05873654 20 16 C23.67230705 12.92000054 24.56802365 10.7517398 25 6 C25.33 6 25.66 6 26 6 C26.76681614 13.66816143 26.76681614 13.66816143 24.88671875 16.93359375 C23.5 18.5625 23.5 18.5625 21 21 C21.66 21 22.32 21 23 21 C23.8394882 23.10171867 24.67139656 25.20646625 25.5 27.3125 C25.9640625 28.48425781 26.428125 29.65601563 26.90625 30.86328125 C28 34 28 34 28 37 C25.69 37 23.38 37 21 37 C21 36.67 21 36.34 21 36 C23.475 35.505 23.475 35.505 26 35 C25.01 32.03 24.02 29.06 23 26 C23.33 28.64 23.66 31.28 24 34 C22.68 34 21.36 34 20 34 C19.74605469 33.32453125 19.49210937 32.6490625 19.23046875 31.953125 C18.88628906 31.06109375 18.54210937 30.1690625 18.1875 29.25 C17.68283203 27.92742188 17.68283203 27.92742188 17.16796875 26.578125 C15.99454381 23.98795624 14.97454696 22.04905817 13 20 C10.73699105 19.3078631 10.73699105 19.3078631 8.3125 19.25 C6.889375 19.1675 5.46625 19.085 4 19 C4 23.95 4 28.9 4 34 C2.68 34 1.36 34 0 34 C0 22.78 0 11.56 0 0 Z " fill="#295A8D" transform="translate(380,32)"/>
<path d="M0 0 C5.28 0 10.56 0 16 0 C13.36 5.61 10.72 11.22 8 17 C10.64 17 13.28 17 16 17 C10.97494057 24.97828796 5.80695736 32.85200241 0.5625 40.6875 C-0.16904297 41.78255859 -0.90058594 42.87761719 -1.65429688 44.00585938 C-3.43513006 46.67128944 -5.21704566 49.33598856 -7 52 C-8.3329765 48.30630281 -7.64653003 45.85473484 -6.56640625 42.140625 C-6.24736328 41.02558594 -5.92832031 39.91054687 -5.59960938 38.76171875 C-5.25736328 37.60285156 -4.91511719 36.44398437 -4.5625 35.25 C-4.22412109 34.07566406 -3.88574219 32.90132812 -3.53710938 31.69140625 C-2.70017421 28.7916027 -1.85417669 25.89476268 -1 23 C-3.97 22.67 -6.94 22.34 -10 22 C-8.4719611 16.90117545 -6.28963144 12.34334341 -3.875 7.625 C-3.50246094 6.88894531 -3.12992187 6.15289062 -2.74609375 5.39453125 C-1.8343878 3.59449642 -0.91770068 1.79698598 0 0 Z " fill="#73B9E6" transform="translate(99,52)"/>
<path d="M0 0 C4.40041954 3.7336893 5.66232069 7.14928277 7.0625 12.75 C7.0625 10.77 7.0625 8.79 7.0625 6.75 C10.15638917 9.84388917 10.2624443 12.73739508 10.375 16.9375 C10.31286061 23.64855456 8.28410328 27.93596918 4.1875 33.125 C-0.47532651 36.69069086 -5.20139043 37.15972211 -10.9375 36.75 C-14.375 35.75 -14.375 35.75 -16.9375 34.75 C-16.6075 34.09 -16.2775 33.43 -15.9375 32.75 C-16.88625 32.193125 -17.835 31.63625 -18.8125 31.0625 C-22.21831976 28.54219338 -22.76816219 27.68272576 -23.9375 23.75 C-24.54194985 17.80390031 -25.14952358 11.1026002 -22.375 5.625 C-16.42628031 -1.39143861 -8.64207837 -3.67748016 0 0 Z M-18.9375 6.75 C-21.14488669 11.16477338 -20.36372642 16.94473496 -19.9375 21.75 C-18.77305107 25.02614387 -17.1023142 27.04768555 -14.078125 28.87109375 C-10.42440941 30.3712507 -6.81252738 30.34834982 -2.9375 29.75 C-0.43589182 27.87379387 0.68195652 26.51108697 2.0625 23.75 C2.55830089 17.86541235 2.89533074 12.53904381 0.375 7.125 C-2.88330369 3.77863405 -5.22985967 2.04066218 -9.875 1.25 C-14.18761712 1.95410075 -15.82606971 3.71092855 -18.9375 6.75 Z " fill="#184D84" transform="translate(305.9375,104.25)"/>
<path d="M0 0 C4.40041954 3.7336893 5.66232069 7.14928277 7.0625 12.75 C7.0625 10.77 7.0625 8.79 7.0625 6.75 C10.15638917 9.84388917 10.2624443 12.73739508 10.375 16.9375 C10.31286061 23.64855456 8.28410328 27.93596918 4.1875 33.125 C-0.47532651 36.69069086 -5.20139043 37.15972211 -10.9375 36.75 C-14.375 35.75 -14.375 35.75 -16.9375 34.75 C-16.6075 34.09 -16.2775 33.43 -15.9375 32.75 C-16.88625 32.193125 -17.835 31.63625 -18.8125 31.0625 C-22.21831976 28.54219338 -22.76816219 27.68272576 -23.9375 23.75 C-24.54194985 17.80390031 -25.14952358 11.1026002 -22.375 5.625 C-16.42628031 -1.39143861 -8.64207837 -3.67748016 0 0 Z M-18.9375 6.75 C-21.14488669 11.16477338 -20.36372642 16.94473496 -19.9375 21.75 C-18.77305107 25.02614387 -17.1023142 27.04768555 -14.078125 28.87109375 C-10.42440941 30.3712507 -6.81252738 30.34834982 -2.9375 29.75 C-0.43589182 27.87379387 0.68195652 26.51108697 2.0625 23.75 C2.55830089 17.86541235 2.89533074 12.53904381 0.375 7.125 C-2.88330369 3.77863405 -5.22985967 2.04066218 -9.875 1.25 C-14.18761712 1.95410075 -15.82606971 3.71092855 -18.9375 6.75 Z " fill="#184D84" transform="translate(436.9375,33.25)"/>
<path d="M0 0 C8.58 0 17.16 0 26 0 C26 1.32 26 2.64 26 4 C22.7 4 19.4 4 16 4 C17.03406673 5.25949049 17.03406673 5.25949049 19.28515625 5.09765625 C20.20167969 5.08605469 21.11820312 5.07445313 22.0625 5.0625 C22.98160156 5.05347656 23.90070313 5.04445313 24.84765625 5.03515625 C25.55792969 5.02355469 26.26820313 5.01195313 27 5 C27 3.35 27 1.7 27 0 C27.66 0 28.32 0 29 0 C29 2.31 29 4.62 29 7 C25.37 7 21.74 7 18 7 C18 16.9 18 26.8 18 37 C15.69 37 13.38 37 11 37 C11 36.67 11 36.34 11 36 C12.65 36 14.3 36 16 36 C16 35.34 16 34.68 16 34 C14.35 34 12.7 34 11 34 C11 25.09 11 16.18 11 7 C10.34 7 9.68 7 9 7 C9 6.01 9 5.02 9 4 C6.03 4 3.06 4 0 4 C0 2.68 0 1.36 0 0 Z " fill="#C0CEDD" transform="translate(249,103)"/>
<path d="M0 0 C2.866875 -0.0825 5.73375 -0.165 8.6875 -0.25 C9.58170654 -0.28641602 10.47591309 -0.32283203 11.3972168 -0.36035156 C15.39313554 -0.4159189 17.53039535 -0.27659173 21.05078125 1.796875 C23 4 23 4 23.5 7.5 C22.99603747 11.02773771 22.42668267 12.47220555 20 15 C19.34 14.67 18.68 14.34 18 14 C18.0928125 12.63875 18.0928125 12.63875 18.1875 11.25 C17.97566321 7.57816235 17.55952602 6.55952602 15 4 C12.27510527 3.30250411 12.27510527 3.30250411 9.3125 3.25 C7.559375 3.1675 5.80625 3.085 4 3 C4 6.96 4 10.92 4 15 C6.8153125 15.061875 6.8153125 15.061875 9.6875 15.125 C14.06722946 15.50629409 15.58014765 15.65726338 19.0625 18.5 C22.02621755 23.06722144 24 28.55807493 24 34 C21.671875 33.875 21.671875 33.875 19 33 C17.453125 30.3125 17.453125 30.3125 16.25 27 C15.09416772 23.22191456 15.09416772 23.22191456 13 20 C10.01110641 19.54234333 7.01030352 19.29679049 4 19 C4 23.95 4 28.9 4 34 C2.68 34 1.36 34 0 34 C0 22.78 0 11.56 0 0 Z " fill="#1F5288" transform="translate(323,103)"/>
<path d="M0 0 C7.26 0 14.52 0 22 0 C22 1.32 22 2.64 22 4 C16.39 4 10.78 4 5 4 C5 7.3 5 10.6 5 14 C11.93 14.495 11.93 14.495 19 15 C19 15.99 19 16.98 19 18 C14.38 18 9.76 18 5 18 C5 21.96 5 25.92 5 30 C10.61 30.33 16.22 30.66 22 31 C22 31.99 22 32.98 22 34 C14.74 34 7.48 34 0 34 C0 22.78 0 11.56 0 0 Z " fill="#305F91" transform="translate(357,103)"/>
<path d="M0 0 C1.29550781 -0.02126953 1.29550781 -0.02126953 2.6171875 -0.04296875 C5.2491288 0.19890748 6.86480544 0.85766459 9.125 2.1875 C8.465 3.5075 7.805 4.8275 7.125 6.1875 C6.25875 5.8575 5.3925 5.5275 4.5 5.1875 C0.53216321 4.01184465 -3.06544361 3.28272181 -6.875 5.1875 C-6.875 7.1675 -6.875 9.1475 -6.875 11.1875 C-5.1425 11.8371875 -5.1425 11.8371875 -3.375 12.5 C-2.65054688 12.77457031 -1.92609375 13.04914063 -1.1796875 13.33203125 C0.32840703 13.89181549 1.8440461 14.43177524 3.3671875 14.94921875 C8.9125 16.86875 8.9125 16.86875 11.125 20.1875 C11.79726891 27.13427871 11.79726891 27.13427871 9.25 31.125 C5.79726713 34.4761819 3.54436716 34.37319376 -1.1875 34.4375 C-2.31800781 34.46328125 -3.44851562 34.4890625 -4.61328125 34.515625 C-8.15276337 34.15955734 -10.00759621 33.23180289 -12.875 31.1875 C-12.215 29.8675 -11.555 28.5475 -10.875 27.1875 C-6.125 29.0625 -6.125 29.0625 -3.875 30.1875 C-2.35654798 30.28222912 -0.83389616 30.3173841 0.6875 30.3125 C1.49316406 30.31507813 2.29882812 30.31765625 3.12890625 30.3203125 C5.12442021 30.40761391 5.12442021 30.40761391 6.125 29.1875 C6.54280879 26.81444422 6.54280879 26.81444422 6.125 24.1875 C3.27641395 20.66004531 0.94196803 19.57239512 -3.4375 18.625 C-9.65467302 17.26683873 -9.65467302 17.26683873 -11.875 14.1875 C-12.27416548 11.09396756 -12.50972337 9.14761901 -11.875 6.1875 C-8.1759064 1.61230529 -5.76237091 0.04274756 0 0 Z " fill="#1A4E85" transform="translate(231.875,102.8125)"/>
<path d="M0 0 C3.20169816 1.14777859 4.31550783 2.87600655 6.0703125 5.7421875 C6.58625481 10.14317541 6.25009158 14.29265516 6.0703125 18.7421875 C0.1303125 18.7421875 -5.8096875 18.7421875 -11.9296875 18.7421875 C-12.42465289 6.49179417 -12.42465289 6.49179417 -10.0390625 2.87890625 C-6.65398069 -0.55005625 -4.74480629 -0.30669851 0 0 Z " fill="#73BAE6" transform="translate(72.9296875,131.2578125)"/>
<path d="M0 0 C10.22989254 -0.60892218 10.22989254 -0.60892218 13.6875 2.125 C15.15667763 5.34319862 15.32542398 7.50169223 15 11 C18.44216672 8.3401439 18.99504674 5.09711714 20 1 C20.66 1.33 21.32 1.66 22 2 C22.520895 7.10477099 22.60263447 10.79747008 19.5 15.0625 C18.675 16.031875 17.85 17.00125 17 18 C17.66 18 18.32 18 19 18 C19.8394882 20.10171867 20.67139656 22.20646625 21.5 24.3125 C21.9640625 25.48425781 22.428125 26.65601563 22.90625 27.86328125 C24 31 24 31 24 34 C21.69 34 19.38 34 17 34 C17 33.67 17 33.34 17 33 C19.475 32.505 19.475 32.505 22 32 C21.34 31.67 20.68 31.34 20 31 C18.87318794 28.05838832 17.89213741 25.10548524 16.94335938 22.10351562 C15.73322867 18.47312352 15.28813428 17.19208952 12 15 C12 14.34 12 13.68 12 13 C11.38511719 13.01160156 10.77023437 13.02320312 10.13671875 13.03515625 C9.32847656 13.04417969 8.52023437 13.05320312 7.6875 13.0625 C6.48673828 13.07990234 6.48673828 13.07990234 5.26171875 13.09765625 C3 13 3 13 0 12 C0 8.04 0 4.08 0 0 Z " fill="#FBFCFD" transform="translate(327,106)"/>
<path d="M0 0 C6.93 0 13.86 0 21 0 C21 0.99 21 1.98 21 3 C15.39 3 9.78 3 4 3 C4 6.3 4 9.6 4 13 C8.95 13.33 13.9 13.66 19 14 C19 14.99 19 15.98 19 17 C14.05 17 9.1 17 4 17 C4 20.96 4 24.92 4 29 C9.61 29.33 15.22 29.66 21 30 C21 30.99 21 31.98 21 33 C14.07 33 7.14 33 0 33 C0 22.11 0 11.22 0 0 Z " fill="#1B4F86" transform="translate(283,33)"/>
<path d="M0 0 C6.93 0 13.86 0 21 0 C21 0.99 21 1.98 21 3 C15.39 3 9.78 3 4 3 C4 6.3 4 9.6 4 13 C8.95 13.33 13.9 13.66 19 14 C19 14.99 19 15.98 19 17 C14.05 17 9.1 17 4 17 C4 20.96 4 24.92 4 29 C9.61 29.33 15.22 29.66 21 30 C21 30.99 21 31.98 21 33 C14.07 33 7.14 33 0 33 C0 22.11 0 11.22 0 0 Z " fill="#1B4F86" transform="translate(222,33)"/>
<path d="M0 0 C3.0625 1.3125 3.0625 1.3125 5 3 C5.33 3.99 5.66 4.98 6 6 C4.02 6.99 4.02 6.99 2 8 C0.9790625 7.01 0.9790625 7.01 -0.0625 6 C-3.72506219 3.50634064 -5.64346798 3.53322871 -10 4 C-12.84575944 4.60264182 -12.84575944 4.60264182 -15 6 C-16.24930487 9.39209994 -16.20029592 12.85466434 -16.25 16.4375 C-16.27578125 17.54996094 -16.3015625 18.66242187 -16.328125 19.80859375 C-15.96523537 23.33812737 -15.07858482 25.16045907 -13 28 C-10.00962125 30.32585014 -6.70044504 30.46495159 -2.96484375 30.40234375 C0.30732782 29.73229669 1.91004035 27.45877606 4 25 C4.66 25 5.32 25 6 25 C5.5047783 28.66464055 4.9791794 30.70832354 2 33 C-4.04648579 35.01549526 -10.73379973 34.99394749 -16.5625 32.4375 C-20.65562822 28.34437178 -22.1416733 24.20678217 -22.375 18.5 C-22.14900978 12.72251082 -20.35892956 8.56799565 -16.5625 4.1875 C-11.29198839 -0.31171723 -6.77856214 -0.72392411 0 0 Z " fill="#215389" transform="translate(334,32)"/>
<path d="M0 0 C4.46145576 2.31039673 4.46145576 2.31039673 6 5 C6.50322952 8.81169596 6.27996691 12.12712444 6 16 C-0.27 16 -6.54 16 -13 16 C-13.60460323 5.9635864 -13.60460323 5.9635864 -11 1.8125 C-7.22342981 -0.46917782 -4.24163814 -0.98392776 0 0 Z " fill="#76BBE7" transform="translate(135,129)"/>
<path d="M0 0 C5.28 0 10.56 0 16 0 C16.4945251 12.36312759 16.4945251 12.36312759 14.16796875 15.359375 C11.33654734 17.50207228 9.55156223 18 6 18 C3.25283613 16.22960551 1.46854078 14.93708156 0 12 C-0.13860991 7.99694593 -0.04262206 4.00647376 0 0 Z " fill="#75BBE8" transform="translate(9,49)"/>
<path d="M0 0 C1.65 0 3.3 0 5 0 C2.36 5.61 -0.28 11.22 -3 17 C-0.36 17 2.28 17 5 17 C-0.02505943 24.97828796 -5.19304264 32.85200241 -10.4375 40.6875 C-11.16904297 41.78255859 -11.90058594 42.87761719 -12.65429688 44.00585938 C-14.43513006 46.67128944 -16.21704566 49.33598856 -18 52 C-19.46207045 47.43544126 -18.05165584 44.158134 -16 40 C-14.14762354 36.99056927 -12.10118682 34.15214741 -10 31.3125 C-8.93596383 29.85137787 -7.87342139 28.38916659 -6.8125 26.92578125 C-6.07580078 25.91185303 -6.07580078 25.91185303 -5.32421875 24.87744141 C-3.75631143 22.65450497 -2.34336934 20.36488978 -1 18 C-3.31 17.67 -5.62 17.34 -8 17 C-5.36 11.39 -2.72 5.78 0 0 Z " fill="#0F9AD5" transform="translate(110,52)"/>
<path d="M0 0 C8.58 0 17.16 0 26 0 C26 1.32 26 2.64 26 4 C22.37 4 18.74 4 15 4 C15 13.9 15 23.8 15 34 C13.68 34 12.36 34 11 34 C10.67 24.1 10.34 14.2 10 4 C6.7 4 3.4 4 0 4 C0 2.68 0 1.36 0 0 Z " fill="#2F5E90" transform="translate(346,32)"/>
<path d="M0 0 C1.32 0 2.64 0 4 0 C4 9.9 4 19.8 4 30 C9.61 30.33 15.22 30.66 21 31 C21 31.99 21 32.98 21 34 C14.07 34 7.14 34 0 34 C0 22.78 0 11.56 0 0 Z " fill="#1B4F86" transform="translate(253,32)"/>
<path d="M0 0 C10.22989254 -0.60892218 10.22989254 -0.60892218 13.6875 2.125 C15.18178704 5.39820018 15.47427696 7.44292279 15 11 C13 13 13 13 10.9765625 13.23046875 C10.20054687 13.21628906 9.42453125 13.20210937 8.625 13.1875 C7.85414063 13.18105469 7.08328125 13.17460938 6.2890625 13.16796875 C4 13 4 13 0 12 C0 8.04 0 4.08 0 0 Z " fill="#FDFDFE" transform="translate(384,35)"/>
<path d="M0 0 C7.92 0 15.84 0 24 0 C24 0.66 24 1.32 24 2 C20.7 2 17.4 2 14 2 C14 12.23 14 22.46 14 33 C12.68 33 11.36 33 10 33 C9.67 22.77 9.34 12.54 9 2 C6.03 2 3.06 2 0 2 C0 1.34 0 0.68 0 0 Z " fill="#0F467F" transform="translate(250,104)"/>
<path d="M0 0 C10.79713931 -0.56606361 10.79713931 -0.56606361 15 3 C19.52337424 8.16957056 19.27746013 13.2232358 19.21875 19.828125 C18.87271035 24.84569996 17.11297687 27.5998033 14.0625 31.4375 C12 33 12 33 9.75 32.75 C9.1725 32.5025 8.595 32.255 8 32 C9.375 30.5 9.375 30.5 11 29 C11.66 29 12.32 29 13 29 C14.74804617 23.17317943 15.30589969 15.66057894 13.24609375 9.88671875 C11.37747799 6.93357306 9.31359029 5.04141409 6 4 C3.67504723 3.61250787 1.34148732 3.27017161 -1 3 C-0.67 2.01 -0.34 1.02 0 0 Z " fill="#174C84" transform="translate(293,103)"/>
<path d="M0 0 C2.9375 0.5625 2.9375 0.5625 5.3125 2 C7.77690188 5.88617219 7.2050687 9.01383209 6.9375 13.5625 C1.9875 13.5625 -2.9625 13.5625 -8.0625 13.5625 C-8.66802093 6.41735307 -8.66802093 6.41735307 -5.9375 2.5625 C-3.0625 0.5625 -3.0625 0.5625 0 0 Z " fill="#72B9E6" transform="translate(183.0625,92.4375)"/>
<path d="M0 0 C10.79713931 -0.56606361 10.79713931 -0.56606361 15 3 C19.52337424 8.16957056 19.27746013 13.2232358 19.21875 19.828125 C18.87271035 24.84569996 17.11297687 27.5998033 14.0625 31.4375 C12 33 12 33 9.75 32.75 C9.1725 32.5025 8.595 32.255 8 32 C9.375 30.5 9.375 30.5 11 29 C11.66 29 12.32 29 13 29 C14.74804617 23.17317943 15.30589969 15.66057894 13.24609375 9.88671875 C11.37747799 6.93357306 9.31359029 5.04141409 6 4 C3.67504723 3.61250787 1.34148732 3.27017161 -1 3 C-0.67 2.01 -0.34 1.02 0 0 Z " fill="#174C84" transform="translate(424,32)"/>
<path d="M0 0 C3.09388917 3.09388917 3.1999443 5.98739508 3.3125 10.1875 C3.25036061 16.89855456 1.22160328 21.18596918 -2.875 26.375 C-7.53782651 29.94069086 -12.26389043 30.40972211 -18 30 C-21.4375 29 -21.4375 29 -24 28 C-20.69360474 25.79573649 -19.53507318 25.78861188 -15.6875 25.6875 C-10.06808491 25.26381394 -7.73336336 24.21199969 -4 20 C-1.81639531 16.25667767 -1.60130101 12.33392636 -1.24609375 8.0859375 C-1 6 -1 6 0 3 C0 2.01 0 1.02 0 0 Z " fill="#BDCCDC" transform="translate(313,111)"/>
<path d="M0 0 C3.09388917 3.09388917 3.1999443 5.98739508 3.3125 10.1875 C3.25036061 16.89855456 1.22160328 21.18596918 -2.875 26.375 C-7.53782651 29.94069086 -12.26389043 30.40972211 -18 30 C-21.4375 29 -21.4375 29 -24 28 C-20.69360474 25.79573649 -19.53507318 25.78861188 -15.6875 25.6875 C-10.06808491 25.26381394 -7.73336336 24.21199969 -4 20 C-1.81639531 16.25667767 -1.60130101 12.33392636 -1.24609375 8.0859375 C-1 6 -1 6 0 3 C0 2.01 0 1.02 0 0 Z " fill="#BDCCDC" transform="translate(444,40)"/>
<path d="M0 0 C8.25 0 16.5 0 25 0 C25.33 1.32 25.66 2.64 26 4 C25 5 25 5 22.59155273 5.11352539 C21.54942627 5.10828857 20.5072998 5.10305176 19.43359375 5.09765625 C18.30888672 5.09443359 17.18417969 5.09121094 16.02539062 5.08789062 C14.84138672 5.07951172 13.65738281 5.07113281 12.4375 5.0625 C11.24962891 5.05798828 10.06175781 5.05347656 8.83789062 5.04882812 C5.89187774 5.03699675 2.94596319 5.02051287 0 5 C0 3.35 0 1.7 0 0 Z " fill="#0696D3" transform="translate(139,73)"/>
<path d="M0 0 C1.00023193 0.00523682 2.00046387 0.01047363 3.03100586 0.01586914 C4.1105957 0.0190918 5.19018555 0.02231445 6.30249023 0.02563477 C8.00695312 0.03820312 8.00695312 0.03820312 9.74584961 0.05102539 C11.45611328 0.05779297 11.45611328 0.05779297 13.20092773 0.06469727 C16.02845312 0.07652792 18.85587601 0.09301129 21.68334961 0.11352539 C21.68334961 1.76352539 21.68334961 3.41352539 21.68334961 5.11352539 C13.76334961 5.11352539 5.84334961 5.11352539 -2.31665039 5.11352539 C-2.64665039 3.79352539 -2.97665039 2.47352539 -3.31665039 1.11352539 C-2.31665039 0.11352539 -2.31665039 0.11352539 0 0 Z " fill="#0695D2" transform="translate(40.316650390625,72.886474609375)"/>
<path d="M0 0 C0.66 1.32 1.32 2.64 2 4 C1.36191406 4.12117188 0.72382813 4.24234375 0.06640625 4.3671875 C-0.75988281 4.53476563 -1.58617187 4.70234375 -2.4375 4.875 C-3.26121094 5.03742188 -4.08492188 5.19984375 -4.93359375 5.3671875 C-5.61550781 5.57601562 -6.29742187 5.78484375 -7 6 C-8.59412284 9.18824568 -8.10174735 12.62896662 -8.0625 16.125 C-8.05798828 16.87910156 -8.05347656 17.63320312 -8.04882812 18.41015625 C-8.03703499 20.27347127 -8.01909942 22.13674555 -8 24 C-8.99 24 -9.98 24 -11 24 C-14.15168098 18.81048514 -13.73391253 12.85676728 -13 7 C-10.07386808 1.01720239 -6.29098474 -0.13676054 0 0 Z " fill="#DEE5ED" transform="translate(299,106)"/>
<path d="M0 0 C0.66 1.32 1.32 2.64 2 4 C1.36191406 4.12117188 0.72382813 4.24234375 0.06640625 4.3671875 C-0.75988281 4.53476562 -1.58617187 4.70234375 -2.4375 4.875 C-3.26121094 5.03742187 -4.08492188 5.19984375 -4.93359375 5.3671875 C-5.61550781 5.57601562 -6.29742187 5.78484375 -7 6 C-8.59412284 9.18824568 -8.10174735 12.62896662 -8.0625 16.125 C-8.05798828 16.87910156 -8.05347656 17.63320313 -8.04882812 18.41015625 C-8.03703499 20.27347127 -8.01909942 22.13674555 -8 24 C-8.99 24 -9.98 24 -11 24 C-14.15168098 18.81048514 -13.73391253 12.85676728 -13 7 C-10.07386808 1.01720239 -6.29098474 -0.13676054 0 0 Z " fill="#DEE5ED" transform="translate(430,35)"/>
<path d="M0 0 C0.66 0.33 1.32 0.66 2 1 C2.520895 6.10477099 2.60263447 9.79747008 -0.5 14.0625 C-1.7375 15.5165625 -1.7375 15.5165625 -3 17 C-2.34 17 -1.68 17 -1 17 C-0.1605118 19.10171867 0.67139656 21.20646625 1.5 23.3125 C1.9640625 24.48425781 2.428125 25.65601563 2.90625 26.86328125 C4 30 4 30 4 33 C1.69 33 -0.62 33 -3 33 C-3 32.67 -3 32.34 -3 32 C-1.35 31.67 0.3 31.34 2 31 C1.34 30.67 0.68 30.34 0 30 C-1.12681206 27.05838832 -2.10786259 24.10548524 -3.05664062 21.10351562 C-4.26677133 17.47312352 -4.71186572 16.19208952 -8 14 C-8 13.01 -8 12.02 -8 11 C-7.236875 10.855625 -6.47375 10.71125 -5.6875 10.5625 C-1.95212255 8.39076892 -1.62907285 5.9217248 -0.48046875 1.8984375 C-0.32191406 1.27195312 -0.16335938 0.64546875 0 0 Z " fill="#DBE3EB" transform="translate(347,107)"/>
<path d="M0 0 C0.99 0.66 1.98 1.32 3 2 C3.91666271 6.66589577 3.63657327 10.82478781 1.375 15 C-3.3516852 18.98036648 -7.96849411 19.34140599 -14 19 C-14.99 18.67 -15.98 18.34 -17 18 C-17 17.01 -17 16.02 -17 15 C-16.26394531 14.98582031 -15.52789062 14.97164062 -14.76953125 14.95703125 C-10.10169938 14.72888095 -6.86694704 14.55484611 -2.875 12 C-0.40262102 8.04419364 -0.11015756 4.59657464 0 0 Z " fill="#D7E0E9" transform="translate(243,122)"/>
<path d="M0 0 C0.33 1.32 0.66 2.64 1 4 C-0.27875 4.12375 -1.5575 4.2475 -2.875 4.375 C-6.34790936 4.69042399 -6.34790936 4.69042399 -9 7 C-10.21321333 10.38784099 -10.10128696 13.68159982 -10.0625 17.25 C-10.04896484 18.86648437 -10.04896484 18.86648437 -10.03515625 20.515625 C-10.02355469 21.33546875 -10.01195312 22.1553125 -10 23 C-10.99 23 -11.98 23 -13 23 C-14.11083501 19.66749498 -14.16759585 17.06961042 -14.1875 13.5625 C-14.20167969 12.42941406 -14.21585937 11.29632813 -14.23046875 10.12890625 C-14.00777419 7.10554446 -13.65320359 5.49702626 -12 3 C-8.0436971 -0.16504232 -4.97333608 -0.29254918 0 0 Z " fill="#D4DEE8" transform="translate(331,35)"/>
<path d="M0 0 C0.66 0 1.32 0 2 0 C2 2.31 2 4.62 2 7 C-1.63 7 -5.26 7 -9 7 C-9 16.9 -9 26.8 -9 37 C-11.31 37 -13.62 37 -16 37 C-16 36.67 -16 36.34 -16 36 C-14.35 36 -12.7 36 -11 36 C-11 25.77 -11 15.54 -11 5 C-7.37 5 -3.74 5 0 5 C0 3.35 0 1.7 0 0 Z " fill="#6789AE" transform="translate(373,32)"/>
<path d="M0 0 C3.63 0 7.26 0 11 0 C11 2.97 11 5.94 11 9 C7.37 9 3.74 9 0 9 C0 6.03 0 3.06 0 0 Z " fill="#D4DEE8" transform="translate(12,37)"/>
<path d="M0 0 C3.52780888 4.81064847 6.0625 10.79305693 6.0625 16.8125 C4.7425 16.8125 3.4225 16.8125 2.0625 16.8125 C1.80855469 16.13703125 1.55460937 15.4615625 1.29296875 14.765625 C0.94878906 13.87359375 0.60460937 12.9815625 0.25 12.0625 C-0.08644531 11.18078125 -0.42289062 10.2990625 -0.76953125 9.390625 C-1.94295619 6.80045624 -2.96295304 4.86155817 -4.9375 2.8125 C-7.20050895 2.1203631 -7.20050895 2.1203631 -9.625 2.0625 C-10.43324219 2.00578125 -11.24148438 1.9490625 -12.07421875 1.890625 C-12.68910156 1.86484375 -13.30398438 1.8390625 -13.9375 1.8125 C-13.9375 1.4825 -13.9375 1.1525 -13.9375 0.8125 C-4.22039806 -1.70611837 -4.22039806 -1.70611837 0 0 Z " fill="#1B4F86" transform="translate(397.9375,49.1875)"/>
<path d="M0 0 C-1.62917535 4.88752604 -3.74280178 7.77989286 -8.3125 10.25 C-13.960171 11.82609423 -18.60600682 11.10497295 -24 9 C-21.43668639 6.43668639 -20.24388044 6.72130995 -16.6875 6.5625 C-12.3846174 6.2466921 -9.4175618 5.84796817 -6 3 C-5.67 2.34 -5.34 1.68 -5 1 C-2 0 -2 0 0 0 Z " fill="#C2D0DE" transform="translate(344,59)"/>
<path d="M0 0 C0.33 0 0.66 0 1 0 C1 2.64 1 5.28 1 8 C7.27 8 13.54 8 20 8 C20 5.36 20 2.72 20 0 C20.33 0 20.66 0 21 0 C21 3.63 21 7.26 21 11 C14.07 11 7.14 11 0 11 C0 7.37 0 3.74 0 0 Z " fill="#1993CD" transform="translate(121,137)"/>
<path d="M0 0 C5.28 0 10.56 0 16 0 C16 0.33 16 0.66 16 1 C11.05 1 6.1 1 1 1 C1.0825 2.588125 1.165 4.17625 1.25 5.8125 C1.29640625 6.70582031 1.3428125 7.59914063 1.390625 8.51953125 C1.80395797 11.10975298 1.80395797 11.10975298 3.7890625 12.828125 C7.563522 14.82872191 9.8978089 13.99246559 14 13 C15.5899433 11.07935207 15.5899433 11.07935207 16 9 C15.64715325 11.61106596 15.30406662 13.55190182 13.8125 15.75 C11.15186814 17.58491853 9.22499219 17.93550016 6 18 C3.25283613 16.22960551 1.46854078 14.93708156 0 12 C-0.13860991 7.99694593 -0.04262206 4.00647376 0 0 Z " fill="#2994CC" transform="translate(9,49)"/>
<path d="M0 0 C0.33 0 0.66 0 1 0 C1.76681614 7.66816143 1.76681614 7.66816143 -0.11328125 10.93359375 C-1.5 12.5625 -1.5 12.5625 -4 15 C-3.34 15 -2.68 15 -2 15 C-1.1605118 17.10171867 -0.32860344 19.20646625 0.5 21.3125 C0.9640625 22.48425781 1.428125 23.65601563 1.90625 24.86328125 C3 28 3 28 3 31 C0.69 31 -1.62 31 -4 31 C-4 30.67 -4 30.34 -4 30 C-2.35 29.67 -0.7 29.34 1 29 C0.37935063 27.39414507 -0.2466918 25.79037383 -0.875 24.1875 C-1.22304688 23.29417969 -1.57109375 22.40085937 -1.9296875 21.48046875 C-3.62173508 17.5591176 -5.96677679 14.93211577 -9 12 C-8.34 10.68 -7.68 9.36 -7 8 C-6.34 8.66 -5.68 9.32 -5 10 C-1.32769295 6.92000054 -0.43197635 4.7517398 0 0 Z " fill="#95ADC6" transform="translate(405,38)"/>
<path d="M0 0 C3.0625 1.3125 3.0625 1.3125 5 3 C5.33 3.99 5.66 4.98 6 6 C4.02 6.99 4.02 6.99 2 8 C1.319375 7.34 0.63875 6.68 -0.0625 6 C-3.68687857 3.53233799 -5.69620206 3.60150019 -10 4 C-10.99 4.33 -11.98 4.66 -13 5 C-12.625 3.0625 -12.625 3.0625 -12 1 C-8.31561811 -0.84219094 -4.03040063 -0.36121515 0 0 Z " fill="#1A4E85" transform="translate(334,32)"/>
<path d="M0 0 C0.66 0 1.32 0 2 0 C2 2.31 2 4.62 2 7 C-1.63 7 -5.26 7 -9 7 C-9 16.9 -9 26.8 -9 37 C-11.31 37 -13.62 37 -16 37 C-16 36.67 -16 36.34 -16 36 C-14.02 36 -12.04 36 -10 36 C-10 25.77 -10 15.54 -10 5 C-6.7 5 -3.4 5 0 5 C0 3.35 0 1.7 0 0 Z " fill="#0E457F" transform="translate(276,103)"/>
<path d="M0 0 C3.09388917 3.09388917 3.1999443 5.98739508 3.3125 10.1875 C3.24995374 16.94249626 1.25226621 21.33823084 -3.0625 26.4375 C-6.8127635 29.46190605 -10.36978419 29.08736256 -15 29 C-12.49840308 27.6991696 -10.20665268 26.7449955 -7.5 25.875 C-3.65923945 23.8174497 -2.36620475 22.62853073 -0.64453125 18.73828125 C0.79299752 12.63096204 0.27207796 6.2275621 0 0 Z " fill="#3F6B99" transform="translate(313,111)"/>
<path d="M0 0 C3.09388917 3.09388917 3.1999443 5.98739508 3.3125 10.1875 C3.24995374 16.94249626 1.25226621 21.33823084 -3.0625 26.4375 C-6.8127635 29.46190605 -10.36978419 29.08736256 -15 29 C-12.49840308 27.6991696 -10.20665268 26.7449955 -7.5 25.875 C-3.65923945 23.8174497 -2.36620475 22.62853073 -0.64453125 18.73828125 C0.79299752 12.63096204 0.27207796 6.2275621 0 0 Z " fill="#3F6B99" transform="translate(444,40)"/>
<path d="M0 0 C3.37462715 0.54723683 5.08235 1.0549 8 3 C6.25 8.75 6.25 8.75 4 11 C3.01 10.67 2.02 10.34 1 10 C1 9.01 1 8.02 1 7 C0.01 7.33 -0.98 7.66 -2 8 C-1.47731534 5.23723823 -0.89130413 2.6739124 0 0 Z " fill="#39A1D1" transform="translate(77,114)"/>
<path d="M0 0 C8.3984375 -0.29296875 8.3984375 -0.29296875 11 0 C11.66 0.99 12.32 1.98 13 3 C12 4 12 4 10.15234375 4.09765625 C8.1015625 4.06510417 6.05078125 4.03255208 4 4 C4 5.98 4 7.96 4 10 C3.34 10 2.68 10 2 10 C1.34 10.66 0.68 11.32 0 12 C0 8.04 0 4.08 0 0 Z " fill="#ACBFD3" transform="translate(327,106)"/>
<path d="M0 0 C8.3984375 -0.29296875 8.3984375 -0.29296875 11 0 C11.66 0.99 12.32 1.98 13 3 C12 4 12 4 10.15234375 4.09765625 C8.1015625 4.06510417 6.05078125 4.03255208 4 4 C4 5.98 4 7.96 4 10 C3.34 10 2.68 10 2 10 C1.34 10.66 0.68 11.32 0 12 C0 8.04 0 4.08 0 0 Z " fill="#A5BACF" transform="translate(384,35)"/>
<path d="M0 0 C1.67542976 0.28604898 3.34385343 0.61781233 5 1 C5.25 7.625 5.25 7.625 3 11 C1.68 10.67 0.36 10.34 -1 10 C-1.02689216 8.52093108 -1.04634621 7.04172517 -1.0625 5.5625 C-1.07410156 4.73878906 -1.08570312 3.91507813 -1.09765625 3.06640625 C-1 1 -1 1 0 0 Z " fill="#F3F8FB" transform="translate(102,22)"/>
<path d="M0 0 C0.66 0 1.32 0 2 0 C2 2.31 2 4.62 2 7 C-3.61 7 -9.22 7 -15 7 C-15 8.65 -15 10.3 -15 12 C-15.66 12 -16.32 12 -17 12 C-17 9.69 -17 7.38 -17 5 C-11.39 5 -5.78 5 0 5 C0 3.35 0 1.7 0 0 Z " fill="#7997B7" transform="translate(380,103)"/>
<path d="M0 0 C2.50357861 0.8345262 4.66785852 1.79371992 7 3 C7 3.99 7 4.98 7 6 C6.01 6 5.02 6 4 6 C3.67 7.32 3.34 8.64 3 10 C0.37812506 8.95125002 -0.79371361 8.35068687 -2.25 5.875 C-2.4975 5.25625 -2.745 4.6375 -3 4 C-2.01 2.68 -1.02 1.36 0 0 Z " fill="#8BCFEB" transform="translate(135,102)"/>
<path d="M0 0 C0.66 0 1.32 0 2 0 C2 2.31 2 4.62 2 7 C-3.61 7 -9.22 7 -15 7 C-15 8.65 -15 10.3 -15 12 C-15.66 12 -16.32 12 -17 12 C-17 9.69 -17 7.38 -17 5 C-11.39 5 -5.78 5 0 5 C0 3.35 0 1.7 0 0 Z " fill="#7A98B8" transform="translate(305,32)"/>
<path d="M0 0 C0.66 0 1.32 0 2 0 C2 2.31 2 4.62 2 7 C-3.61 7 -9.22 7 -15 7 C-15 8.65 -15 10.3 -15 12 C-15.66 12 -16.32 12 -17 12 C-17 9.69 -17 7.38 -17 5 C-11.39 5 -5.78 5 0 5 C0 3.35 0 1.7 0 0 Z " fill="#7A98B8" transform="translate(244,32)"/>
<path d="M0 0 C5.94 0 11.88 0 18 0 C18 0.99 18 1.98 18 3 C12.06 3 6.12 3 0 3 C0 2.01 0 1.02 0 0 Z " fill="#0F96D1" transform="translate(61,147)"/>
<path d="M0 0 C1.32 0 2.64 0 4 0 C3.5205537 4.21912747 2.83374881 6.79663178 0 10 C-1.32 9.67 -2.64 9.34 -4 9 C-3.47679633 5.23293356 -2.72611199 2.72611199 0 0 Z " fill="#EFF6FA" transform="translate(124,29)"/>
<path d="M0 0 C1.32 0.33 2.64 0.66 4 1 C3.67 2.65 3.34 4.3 3 6 C2.34 6 1.68 6 1 6 C0.34 7.65 -0.32 9.3 -1 11 C-1.66 11 -2.32 11 -3 11 C-3 10.01 -3 9.02 -3 8 C-3.99 8 -4.98 8 -6 8 C-4.02 5.36 -2.04 2.72 0 0 Z " fill="#DDE9F1" transform="translate(131,33)"/>
<path d="M0 0 C1.65 0 3.3 0 5 0 C5.33 3.63 5.66 7.26 6 11 C4.35 11 2.7 11 1 11 C-0.17571451 7.32589215 -0.07366746 3.83070817 0 0 Z " fill="#F2FAFD" transform="translate(93,22)"/>
<path d="M0 0 C0.33 0 0.66 0 1 0 C1.35345305 4.5065264 1.6047762 7.90675071 -0.625 11.9375 C-4.4425152 15.25271057 -7.70303841 15.9120704 -12.6875 16.25 C-16 16 -16 16 -19 14 C-18.10796875 13.89042969 -17.2159375 13.78085938 -16.296875 13.66796875 C-15.12640625 13.50941406 -13.9559375 13.35085937 -12.75 13.1875 C-11.58984375 13.03667969 -10.4296875 12.88585937 -9.234375 12.73046875 C-5.93961284 11.98636184 -4.32763557 11.41547087 -2 9 C-1.09956172 6.74842467 -1.09956172 6.74842467 -0.75 4.3125 C-0.60046875 3.50425781 -0.4509375 2.69601563 -0.296875 1.86328125 C-0.19890625 1.24839844 -0.1009375 0.63351563 0 0 Z " fill="#446F9C" transform="translate(245,125)"/>
<path d="M0 0 C1.875 0.1875 1.875 0.1875 4 1 C5.25 3.5625 5.25 3.5625 6 6 C5.34 6 4.68 6 4 6 C3.34 7.32 2.68 8.64 2 10 C1.34 10 0.68 10 0 10 C-0.99 7.36 -1.98 4.72 -3 2 C-2.01 2 -1.02 2 0 2 C0 1.34 0 0.68 0 0 Z " fill="#80C4E3" transform="translate(119,115)"/>
<path d="M0 0 C0.80824219 0.11085938 1.61648437 0.22171875 2.44921875 0.3359375 C3.37154297 0.47902344 3.37154297 0.47902344 4.3125 0.625 C4.3125 1.615 4.3125 2.605 4.3125 3.625 C3.03375 3.74875 1.755 3.8725 0.4375 4 C-3.03540936 4.31542399 -3.03540936 4.31542399 -5.6875 6.625 C-6.3475 4.975 -7.0075 3.325 -7.6875 1.625 C-4.33422361 -0.61051759 -3.78006343 -0.54783528 0 0 Z " fill="#9DB4CB" transform="translate(231.6875,106.375)"/>
<path d="M0 0 C0.99 0.66 1.98 1.32 3 2 C3 2.66 3 3.32 3 4 C2.01 4.33 1.02 4.66 0 5 C0 5.66 0 6.32 0 7 C-1.32 6.67 -2.64 6.34 -4 6 C-3.67 7.32 -3.34 8.64 -3 10 C-4.32 9.67 -5.64 9.34 -7 9 C-6.82374165 6.62051228 -6.30280227 5.29774151 -4.59765625 3.62109375 C-3.09350908 2.37884514 -1.54870149 1.18623944 0 0 Z " fill="#D2EDF8" transform="translate(138,38)"/>
<path d="M0 0 C2.475 0.495 2.475 0.495 5 1 C5 1.66 5 2.32 5 3 C4.01 3.495 4.01 3.495 3 4 C3.33 4.99 3.66 5.98 4 7 C4.33 6.34 4.66 5.68 5 5 C5.66 5 6.32 5 7 5 C7 6.65 7 8.3 7 10 C5.35 10 3.7 10 2 10 C0.39644899 6.49223216 -0.22036864 3.85645121 0 0 Z " fill="#E9F4F9" transform="translate(79,26)"/>
<path d="M0 0 C0.66 0 1.32 0 2 0 C2.33 0.99 2.66 1.98 3 3 C3.66 3 4.32 3 5 3 C5 4.32 5 5.64 5 7 C6.32 6.67 7.64 6.34 9 6 C8.34 7.32 7.68 8.64 7 10 C3.64084842 8.56036361 1.28375062 6.87583411 -1 4 C-0.75 1.75 -0.75 1.75 0 0 Z " fill="#E3EFF6" transform="translate(62,38)"/>
<path d="M0 0 C2.0625 0.4375 2.0625 0.4375 4 1 C4 1.66 4 2.32 4 3 C3.01 3.495 3.01 3.495 2 4 C2.33 4.33 2.66 4.66 3 5 C3.04063832 6.66617115 3.042721 8.33388095 3 10 C1.68 10.33 0.36 10.66 -1 11 C-1.33 9.68 -1.66 8.36 -2 7 C-1.34 6.67 -0.68 6.34 0 6 C-0.2784375 4.7934375 -0.2784375 4.7934375 -0.5625 3.5625 C-0.706875 2.716875 -0.85125 1.87125 -1 1 C-0.67 0.67 -0.34 0.34 0 0 Z " fill="#F0F7FA" transform="translate(110,23)"/>
<path d="M0 0 C0.66 0 1.32 0 2 0 C2 0.99 2 1.98 2 3 C2.99 3.66 3.98 4.32 5 5 C4.67 5.99 4.34 6.98 4 8 C4.99 7.67 5.98 7.34 7 7 C7 7.99 7 8.98 7 10 C5.68 10.33 4.36 10.66 3 11 C-1.06153846 4.6 -1.06153846 4.6 -0.75 1.5625 C-0.5025 1.046875 -0.255 0.53125 0 0 Z " fill="#E5F3F9" transform="translate(73,29)"/>
<path d="M0 0 C-0.94875 0.37125 -1.8975 0.7425 -2.875 1.125 C-6.17386451 2.71313272 -6.17386451 2.71313272 -7.3125 5.75 C-8.03331324 9.15748078 -8.58505289 12.54210743 -9 16 C-9.33 16 -9.66 16 -10 16 C-10.10841951 14.08458862 -10.18578079 12.16740227 -10.25 10.25 C-10.29640625 9.18265625 -10.3428125 8.1153125 -10.390625 7.015625 C-9.91265103 3.32566594 -8.86872822 2.27373274 -6 0 C-3.50907189 -1.24546405 -2.58919267 -0.7767578 0 0 Z " fill="#396695" transform="translate(298,109)"/>
<path d="M0 0 C-0.94875 0.37125 -1.8975 0.7425 -2.875 1.125 C-6.17386451 2.71313272 -6.17386451 2.71313272 -7.3125 5.75 C-8.03331324 9.15748078 -8.58505289 12.54210743 -9 16 C-9.33 16 -9.66 16 -10 16 C-10.10841951 14.08458862 -10.18578079 12.16740227 -10.25 10.25 C-10.29640625 9.18265625 -10.3428125 8.1153125 -10.390625 7.015625 C-9.91265103 3.32566594 -8.86872822 2.27373274 -6 0 C-3.50907189 -1.24546405 -2.58919267 -0.7767578 0 0 Z " fill="#396695" transform="translate(429,38)"/>
<path d="M0 0 C-0.5775 0.268125 -1.155 0.53625 -1.75 0.8125 C-4.17205294 2.09080572 -6.00680898 3.10325371 -8 5 C-8.91645897 8.17601208 -8.91645897 8.17601208 -9.25 11.6875 C-9.39953125 12.86699219 -9.5490625 14.04648437 -9.703125 15.26171875 C-9.80109375 16.16535156 -9.8990625 17.06898437 -10 18 C-10.33 18 -10.66 18 -11 18 C-11.77674073 6.21080173 -11.77674073 6.21080173 -8.875 1.6875 C-5.59914784 -0.23528279 -3.73591702 -0.43440896 0 0 Z " fill="#2E5E90" transform="translate(330,37)"/>
<path d="M0 0 C2.18614424 2.18614424 2.68256535 3.53879949 3.625 6.4375 C3.88539063 7.21996094 4.14578125 8.00242188 4.4140625 8.80859375 C5 11 5 11 5 14 C2.69 14 0.38 14 -2 14 C-2 13.67 -2 13.34 -2 13 C-0.35 12.67 1.3 12.34 3 12 C2.34 11.67 1.68 11.34 1 11 C0.39657934 7.25879194 0 3.78319079 0 0 Z " fill="#91AAC4" transform="translate(346,126)"/>
<path d="M0 0 C0.66 0 1.32 0 2 0 C2 2.31 2 4.62 2 7 C-1.63 7 -5.26 7 -9 7 C-9.33 6.34 -9.66 5.68 -10 5 C-6.7 5 -3.4 5 0 5 C0 3.35 0 1.7 0 0 Z " fill="#7A98B8" transform="translate(276,103)"/>
<path d="M0 0 C2.25245881 2.68841859 3.88213958 4.64641875 5 8 C3.68 8.33 2.36 8.66 1 9 C-0.625 6.75 -0.625 6.75 -2 4 C-1.1875 1.6875 -1.1875 1.6875 0 0 Z " fill="#D5E8F2" transform="translate(126,111)"/>
<path d="M0 0 C1.32 0 2.64 0 4 0 C4 2.64 4 5.28 4 8 C2.68 8 1.36 8 0 8 C0 5.36 0 2.72 0 0 Z " fill="#C9E7F4" transform="translate(97,120)"/>
<path d="M0 0 C0.66 0 1.32 0 2 0 C0.47282845 4.58151466 -1.59214011 7.79607006 -6 10 C-8.3329866 10.04022391 -10.66706666 10.04320247 -13 10 C-10.66114581 8.8305729 -8.34373547 7.71874377 -5.9375 6.6875 C-2.6732764 4.81230772 -1.75453284 3.24588575 0 0 Z " fill="#2B5B8E" transform="translate(342,59)"/>
<path d="M0 0 C1.65 0.33 3.3 0.66 5 1 C5 1.66 5 2.32 5 3 C4.01 3.495 4.01 3.495 3 4 C1.94647157 6.30965848 0.94280904 8.6429774 0 11 C-0.66 11 -1.32 11 -2 11 C-1.855625 10.29875 -1.71125 9.5975 -1.5625 8.875 C-0.98521625 5.92443859 -0.48304859 2.96729849 0 0 Z " fill="#DFEDF5" transform="translate(117,25)"/>
<path d="M0 0 C0.33 3.63 0.66 7.26 1 11 C0.34 11 -0.32 11 -1 11 C-1.99 7.7 -2.98 4.4 -4 1 C-1 0 -1 0 0 0 Z " fill="#DCEDF5" transform="translate(90,23)"/>
<path d="M0 0 C2.31 0 4.62 0 7 0 C7.33 1.65 7.66 3.3 8 5 C7.34 5 6.68 5 6 5 C5.67 5.66 5.34 6.32 5 7 C5 5.68 5 4.36 5 3 C4.34 3 3.68 3 3 3 C2.67 3.99 2.34 4.98 2 6 C1.34 4.02 0.68 2.04 0 0 Z " fill="#29A6DA" transform="translate(81,28)"/>
<path d="M0 0 C1.32 0.33 2.64 0.66 4 1 C2.25 6.75 2.25 6.75 0 9 C-0.66 8.34 -1.32 7.68 -2 7 C-1.6730244 4.38419521 -1.17960932 2.35921863 0 0 Z " fill="#D5ECF7" transform="translate(81,116)"/>
<path d="M0 0 C0.66 0 1.32 0 2 0 C6 4.47058824 6 4.47058824 6 7 C7.32 6.67 8.64 6.34 10 6 C10 6.66 10 7.32 10 8 C8.02 8.99 8.02 8.99 6 10 C4.99106869 8.90398831 3.99311775 7.79786082 3 6.6875 C2.1646875 5.76517578 2.1646875 5.76517578 1.3125 4.82421875 C0 3 0 3 0 0 Z " fill="#DCECF4" transform="translate(66,34)"/>
<path d="M0 0 C0.99 0.33 1.98 0.66 3 1 C3 1.99 3 2.98 3 4 C2.01 4 1.02 4 0 4 C0 5.32 0 6.64 0 8 C-0.99 8 -1.98 8 -3 8 C-2.25 2.25 -2.25 2.25 0 0 Z " fill="#CAE6F3" transform="translate(73,111)"/>
<path d="M0 0 C0.66 0.66 1.32 1.32 2 2 C0.96183206 9.26717557 0.96183206 9.26717557 -2.625 12 C-3.800625 12.495 -3.800625 12.495 -5 13 C-4.70351563 12.43796875 -4.40703125 11.8759375 -4.1015625 11.296875 C-2.99056497 8.98032695 -2.16535294 6.69290908 -1.375 4.25 C-1.11460937 3.45078125 -0.85421875 2.6515625 -0.5859375 1.828125 C-0.39257812 1.22484375 -0.19921875 0.6215625 0 0 Z " fill="#DCE4EC" transform="translate(404,36)"/>
<path d="M0 0 C4 4.75 4 4.75 4 7 C2.68 7.33 1.36 7.66 0 8 C-0.99 6.35 -1.98 4.7 -3 3 C-2.01 2.67 -1.02 2.34 0 2 C0 1.34 0 0.68 0 0 Z " fill="#1DA0D7" transform="translate(72,33)"/>
<path d="M0 0 C1.5625 1.6875 1.5625 1.6875 3 4 C2.6875 6.75 2.6875 6.75 2 9 C1.01 9 0.02 9 -1 9 C-1.66 6.36 -2.32 3.72 -3 1 C-2.01 1.33 -1.02 1.66 0 2 C0 1.34 0 0.68 0 0 Z " fill="#2A99CD" transform="translate(114,24)"/>
<path d="M0 0 C0.33 0.66 0.66 1.32 1 2 C2.32 2 3.64 2 5 2 C5.33 3.98 5.66 5.96 6 8 C4.68 8 3.36 8 2 8 C2 7.01 2 6.02 2 5 C0.56249809 3.31201173 0.56249809 3.31201173 -1 2 C-0.67 1.34 -0.34 0.68 0 0 Z " fill="#2B9ED2" transform="translate(75,29)"/>
<path d="M0 0 C2.1875 1.4375 2.1875 1.4375 4 3 C3.34 4.32 2.68 5.64 2 7 C1.34 7 0.68 7 0 7 C0 5.68 0 4.36 0 3 C-0.99 3.33 -1.98 3.66 -3 4 C-3 3.01 -3 2.02 -3 1 C-2.01 0.67 -1.02 0.34 0 0 Z " fill="#25A0D5" transform="translate(67,38)"/>
<path d="M0 0 C1.65 0 3.3 0 5 0 C5 1.98 5 3.96 5 6 C4.01 5.67 3.02 5.34 2 5 C1.34 5.66 0.68 6.32 0 7 C0 4.69 0 2.38 0 0 Z " fill="#D4E3EE" transform="translate(93,22)"/>
<path d="M0 0 C2.475 0.495 2.475 0.495 5 1 C5 3.31 5 5.62 5 8 C4.34 7.34 3.68 6.68 3 6 C2.34 6.99 1.68 7.98 1 9 C0.67 6.03 0.34 3.06 0 0 Z " fill="#97C9E2" transform="translate(102,22)"/>
<path d="M0 0 C1.32 0 2.64 0 4 0 C3.47731534 2.76276177 2.89130413 5.3260876 2 8 C1.34 8 0.68 8 0 8 C0 5.36 0 2.72 0 0 Z " fill="#D6EBF5" transform="translate(102,120)"/>
<path d="M0 0 C-0.35049575 3.24208567 -0.56221181 4.61527704 -3.0625 6.8125 C-3.701875 7.204375 -4.34125 7.59625 -5 8 C-5.66 7.01 -6.32 6.02 -7 5 C-2.25 0 -2.25 0 0 0 Z " fill="#2E5D90" transform="translate(340,57)"/>
<path d="M0 0 C0.33 0 0.66 0 1 0 C1.08131463 1.43655854 1.13933559 2.8744483 1.1875 4.3125 C1.22230469 5.11300781 1.25710938 5.91351563 1.29296875 6.73828125 C1 9 1 9 -0.375 10.8125 C-2 12 -2 12 -4.1875 11.6875 C-4.785625 11.460625 -5.38375 11.23375 -6 11 C-4.7934375 9.948125 -4.7934375 9.948125 -3.5625 8.875 C-0.76566189 5.73708407 -0.28691249 4.11241237 0 0 Z " fill="#215389" transform="translate(405,38)"/>
<path d="M0 0 C3.125 -0.1875 3.125 -0.1875 6 0 C5.01 1.98 4.02 3.96 3 6 C2.34 6 1.68 6 1 6 C1 5.01 1 4.02 1 3 C0.01 3 -0.98 3 -2 3 C-1.34 2.01 -0.68 1.02 0 0 Z " fill="#E2F3FA" transform="translate(127,38)"/>
<path d="M0 0 C1.32 0 2.64 0 4 0 C3.67 2.64 3.34 5.28 3 8 C2.34 8 1.68 8 1 8 C0.67 5.36 0.34 2.72 0 0 Z " fill="#D2EBF6" transform="translate(107,119)"/>
<path d="M0 0 C1.9375 0.75 1.9375 0.75 4 2 C4.75 4.125 4.75 4.125 5 6 C4.34 6 3.68 6 3 6 C2.67 6.66 2.34 7.32 2 8 C0.23537317 4.91190305 0 3.76687864 0 0 Z " fill="#DFF2FA" transform="translate(120,115)"/>
<path d="M0 0 C1.32 0 2.64 0 4 0 C4 1.32 4 2.64 4 4 C4.99 4 5.98 4 7 4 C6.67 4.99 6.34 5.98 6 7 C3.53199953 5.84826645 1.95216435 4.95216435 0 3 C0 2.01 0 1.02 0 0 Z " fill="#E0F1F9" transform="translate(128,109)"/>
<path d="M0 0 C0.33 0 0.66 0 1 0 C1.36923077 7.38461538 1.36923077 7.38461538 -0.5 10.5 C-0.995 10.995 -1.49 11.49 -2 12 C-3.32 11.67 -4.64 11.34 -6 11 C-4.7934375 9.948125 -4.7934375 9.948125 -3.5625 8.875 C-0.76566189 5.73708407 -0.28691249 4.11241237 0 0 Z " fill="#27588C" transform="translate(348,109)"/>
<path d="M0 0 C0.99 0.99 1.98 1.98 3 3 C2.01 3 1.02 3 0 3 C0 3.66 0 4.32 0 5 C-0.99 5 -1.98 5 -3 5 C-3 5.66 -3 6.32 -3 7 C-3.66 7 -4.32 7 -5 7 C-4.60196439 4.11424181 -4.20990931 3.17810487 -1.9375 1.25 C-1.298125 0.8375 -0.65875 0.425 0 0 Z " fill="#D1EAF5" transform="translate(64,101)"/>
<path d="M0 0 C2 3 2 3 2 7 C1.34 7 0.68 7 0 7 C0 7.66 0 8.32 0 9 C-0.99 8.67 -1.98 8.34 -3 8 C-2.34 8 -1.68 8 -1 8 C-1.33 5.69 -1.66 3.38 -2 1 C-1.34 0.67 -0.68 0.34 0 0 Z " fill="#21A5DB" transform="translate(92,26)"/>
<path d="M0 0 C0.99 0.99 1.98 1.98 3 3 C2.79846293 5.84875378 1.85624823 8.25099253 1 11 C0.34 11 -0.32 11 -1 11 C-0.67 7.37 -0.34 3.74 0 0 Z " fill="#E4EAF1" transform="translate(243,122)"/>
<path d="M0 0 C1 2 1 2 1 5 C0.01 6.485 0.01 6.485 -1 8 C-2.32 7.67 -3.64 7.34 -5 7 C-3.88820837 3.66462511 -2.52588702 2.36292656 0 0 Z " fill="#A9D8ED" transform="translate(125,31)"/>
<path d="M0 0 C1.65 1.65 3.3 3.3 5 5 C4.01 5.99 3.02 6.98 2 8 C1.01 7.01 0.02 6.02 -1 5 C-0.34 5 0.32 5 1 5 C1 4.34 1 3.68 1 3 C0.01 2.67 -0.98 2.34 -2 2 C-1.34 2 -0.68 2 0 2 C0 1.34 0 0.68 0 0 Z " fill="#3DB1E0" transform="translate(131,106)"/>
<path d="M0 0 C0.33 0 0.66 0 1 0 C1.25028811 1.58013217 1.47440946 3.16442306 1.6875 4.75 C1.87892578 6.07257813 1.87892578 6.07257813 2.07421875 7.421875 C2 10 2 10 -1 14 C-0.67 9.38 -0.34 4.76 0 0 Z " fill="#D6DFE9" transform="translate(312,117)"/>
<path d="M0 0 C0.99 0.33 1.98 0.66 3 1 C1.25 4.875 1.25 4.875 -1 6 C-1.33 6.66 -1.66 7.32 -2 8 C-2.66 7.01 -3.32 6.02 -4 5 C-2.68 3.35 -1.36 1.7 0 0 Z " fill="#E2F1F8" transform="translate(69,108)"/>
<path d="M0 0 C0.99 0.33 1.98 0.66 3 1 C-0.625 5.875 -0.625 5.875 -4 7 C-4.66 6.34 -5.32 5.68 -6 5 C-5.195625 4.54625 -4.39125 4.0925 -3.5625 3.625 C-0.91143428 2.25274335 -0.91143428 2.25274335 0 0 Z " fill="#DBE3EC" transform="translate(339,60)"/>
<path d="M0 0 C0.33 0 0.66 0 1 0 C1.25028811 1.58013217 1.47440946 3.16442306 1.6875 4.75 C1.87892578 6.07257812 1.87892578 6.07257812 2.07421875 7.421875 C2 10 2 10 -1 14 C-0.67 9.38 -0.34 4.76 0 0 Z " fill="#D6DFE9" transform="translate(443,46)"/>
<path d="M0 0 C1.98 0 3.96 0 6 0 C6.66 1.32 7.32 2.64 8 4 C4.28400809 4.20086443 3.22791555 4.1519437 0 2 C0 1.34 0 0.68 0 0 Z " fill="#C9D5E2" transform="translate(293,106)"/>
<path d="M0 0 C0.99 0.66 1.98 1.32 3 2 C3 2.66 3 3.32 3 4 C2.01 4.33 1.02 4.66 0 5 C0 5.66 0 6.32 0 7 C-1.32 6.34 -2.64 5.68 -4 5 C-2.68 3.35 -1.36 1.7 0 0 Z " fill="#E9F3F8" transform="translate(138,38)"/>
<path d="M0 0 C1.98 0 3.96 0 6 0 C6.66 1.32 7.32 2.64 8 4 C4.28400809 4.20086443 3.22791555 4.1519437 0 2 C0 1.34 0 0.68 0 0 Z " fill="#C9D5E2" transform="translate(424,35)"/>
<path d="M0 0 C4.01715686 4.38235294 4.01715686 4.38235294 3.9375 7.25 C3 9 3 9 0 10 C0 9.34 0 8.68 0 8 C0.66 8 1.32 8 2 8 C1.484375 7.05125 0.96875 6.1025 0.4375 5.125 C-0.036875 4.09375 -0.51125 3.0625 -1 2 C-0.67 1.34 -0.34 0.68 0 0 Z " fill="#5AB4DC" transform="translate(123,113)"/>
<path d="M0 0 C1 3 1 3 -0.4375 6.1875 C-1.2109375 7.5796875 -1.2109375 7.5796875 -2 9 C-2.99 7.68 -3.98 6.36 -5 5 C-4.01 4.67 -3.02 4.34 -2 4 C-1.67 3.01 -1.34 2.02 -1 1 C-0.67 0.67 -0.34 0.34 0 0 Z " fill="#30A4D6" transform="translate(72,109)"/>
<path d="M0 0 C2.50357861 0.8345262 4.66785852 1.79371992 7 3 C7 3.99 7 4.98 7 6 C6.01 6 5.02 6 4 6 C4 5.34 4 4.68 4 4 C2.68 3.67 1.36 3.34 0 3 C0 2.01 0 1.02 0 0 Z " fill="#EBF4F9" transform="translate(135,102)"/>
<path d="M0 0 C0.99 0 1.98 0 3 0 C3 1.98 3 3.96 3 6 C2.01 6 1.02 6 0 6 C0 4.02 0 2.04 0 0 Z " fill="#194E85" transform="translate(18,38)"/>
<path d="M0 0 C0.99 0 1.98 0 3 0 C3 1.98 3 3.96 3 6 C2.01 6 1.02 6 0 6 C0 4.02 0 2.04 0 0 Z " fill="#174C84" transform="translate(13,38)"/>
<path d="M0 0 C0.99 0 1.98 0 3 0 C1.8141763 3.37503669 0.72426311 5.64722731 -2 8 C-1.47731534 5.23723823 -0.89130413 2.6739124 0 0 Z " fill="#D3EAF5" transform="translate(77,114)"/>
<path d="M0 0 C0.66 0.66 1.32 1.32 2 2 C1.34 4.31 0.68 6.62 0 9 C-0.33 9 -0.66 9 -1 9 C-1.09765625 2.84765625 -1.09765625 2.84765625 -1 1 C-0.67 0.67 -0.34 0.34 0 0 Z " fill="#E5EAF1" transform="translate(347,107)"/>
<path d="M0 0 C2.97 0.495 2.97 0.495 6 1 C5.34 2.32 4.68 3.64 4 5 C2.68 4.34 1.36 3.68 0 3 C0 2.01 0 1.02 0 0 Z " fill="#E8F6FB" transform="translate(65,43)"/>
</svg>
