<?xml version="1.0" encoding="UTF-8"?>
<svg version="1.1" xmlns="http://www.w3.org/2000/svg" width="484" height="170">
<path d="M0 0 C159.72 0 319.44 0 484 0 C484 56.1 484 112.2 484 170 C324.28 170 164.56 170 0 170 C0 113.9 0 57.8 0 0 Z " fill="#77BCE8" transform="translate(0,0)"/>
<path d="M0 0 C1.16660156 0.00128906 2.33320312 0.00257812 3.53515625 0.00390625 C21.6073581 0.18810763 35.95516653 7.34898577 49 19.6875 C56.43515535 27.4280278 61.12753801 36.55328179 65.25 46.375 C66.075 45.88 66.9 45.385 67.75 44.875 C71.75396381 43.15901551 74.99689099 42.5307499 79.25 43.375 C83.85894823 45.33589797 87.71528636 48.00655641 90.44238281 52.30126953 C92.33082162 57.15024149 91.93881621 62.61612414 92 67.75 C92.02964844 68.96300781 92.05929688 70.17601563 92.08984375 71.42578125 C92.1603116 74.40892021 92.2131248 77.39128795 92.25 80.375 C93.178125 80.7875 94.10625 81.2 95.0625 81.625 C99.68042071 84.16032902 99.68042071 84.16032902 101.25 87.375 C101.46340383 90.20900286 101.53464991 92.80516169 101.4375 95.625 C101.42396484 96.37007813 101.41042969 97.11515625 101.39648438 97.8828125 C101.36127204 99.71385416 101.30746851 101.54452169 101.25 103.375 C100.59 103.375 99.93 103.375 99.25 103.375 C99.27320313 104.00148438 99.29640625 104.62796875 99.3203125 105.2734375 C99.33835938 106.09070313 99.35640625 106.90796875 99.375 107.75 C99.39820313 108.56210938 99.42140625 109.37421875 99.4453125 110.2109375 C99.25 112.375 99.25 112.375 97.25 114.375 C94.50514407 114.52007695 91.86519457 114.56152423 89.125 114.5 C88.37089844 114.49097656 87.61679688 114.48195313 86.83984375 114.47265625 C84.97642746 114.4490687 83.11317407 114.41319719 81.25 114.375 C80.04727181 111.96954362 80.14928528 110.42503047 80.1875 107.75 C80.19652344 106.93273437 80.20554688 106.11546875 80.21484375 105.2734375 C80.23224609 104.33371094 80.23224609 104.33371094 80.25 103.375 C79.59 103.375 78.93 103.375 78.25 103.375 C76.1580609 99.19112181 76.82118465 93.93116307 77.25 89.375 C79.39307787 84.85072449 81.73105331 82.5155537 86.25 80.375 C86.91 80.375 87.57 80.375 88.25 80.375 C88.19789331 76.66554264 88.10276213 72.95837256 88 69.25 C87.98582031 68.20328125 87.97164062 67.1565625 87.95703125 66.078125 C87.76184705 59.9103042 87.39509915 56.05942432 83.25 51.375 C80.46522413 49.17649274 78.77232202 48.44029025 75.25 48 C71.89330814 48.41958648 69.99147169 49.43984351 67.25 51.375 C67.85328125 51.53355469 68.4565625 51.69210938 69.078125 51.85546875 C72.84803755 52.95603999 75.72854928 53.95529576 78.8125 56.4375 C80.93071543 60.76602718 80.8811486 64.64528148 80.25 69.375 C78.85511243 73.01720644 77.71371422 74.07616195 74.4375 76.1875 C71.12353477 77.4221145 68.75302515 77.62521608 65.25 77.375 C65.18683594 77.93445313 65.12367188 78.49390625 65.05859375 79.0703125 C62.71465601 94.41693643 53.37410264 107.97882045 41.25 117.375 C40.92 118.035 40.59 118.695 40.25 119.375 C40.971875 119.58125 41.69375 119.7875 42.4375 120 C46.04131566 121.76186543 48.36193193 123.8654876 50.25 127.375 C50.86596937 130.83825268 50.77073165 134.18240253 50.625 137.6875 C50.61082031 138.60595703 50.59664062 139.52441406 50.58203125 140.47070312 C50.43300028 147.19199972 50.43300028 147.19199972 49.25 148.375 C44.60984675 148.6291555 39.95878694 148.56022798 35.3125 148.5625 C33.99830078 148.57474609 32.68410156 148.58699219 31.33007812 148.59960938 C30.07775391 148.60154297 28.82542969 148.60347656 27.53515625 148.60546875 C25.80084351 148.61163208 25.80084351 148.61163208 24.03149414 148.61791992 C21.25 148.375 21.25 148.375 19.25 146.375 C19.0779389 143.66868306 19.01760983 141.0778606 19.0625 138.375 C19.0634668 137.26898438 19.0634668 137.26898438 19.06445312 136.140625 C19.10949096 130.65601809 19.10949096 130.65601809 20.25 128.375 C19.6521167 128.51719971 19.0542334 128.65939941 18.43823242 128.8059082 C12.06285169 130.21586599 6.07849102 130.65253915 -0.4375 130.5625 C-1.33533203 130.56185547 -2.23316406 130.56121094 -3.15820312 130.56054688 C-8.12160631 130.52782114 -12.85714267 130.21167191 -17.75 129.375 C-17.72679688 130.57898438 -17.70359375 131.78296875 -17.6796875 133.0234375 C-17.66093137 134.59895215 -17.64273101 136.17447348 -17.625 137.75 C-17.60824219 138.5440625 -17.59148437 139.338125 -17.57421875 140.15625 C-17.55664527 142.22992015 -17.64664832 144.30383241 -17.75 146.375 C-20.39699616 149.02199616 -21.65394409 148.63249767 -25.34375 148.640625 C-26.45621094 148.64320313 -27.56867188 148.64578125 -28.71484375 148.6484375 C-29.88144531 148.64070312 -31.04804687 148.63296875 -32.25 148.625 C-33.41660156 148.63273438 -34.58320312 148.64046875 -35.78515625 148.6484375 C-36.89761719 148.64585937 -38.01007813 148.64328125 -39.15625 148.640625 C-40.18041016 148.63836914 -41.20457031 148.63611328 -42.25976562 148.63378906 C-44.75 148.375 -44.75 148.375 -46.75 146.375 C-47.00386054 143.74193488 -47.12027927 141.25916627 -47.125 138.625 C-47.14949219 137.92117187 -47.17398438 137.21734375 -47.19921875 136.4921875 C-47.2279879 131.3329208 -46.1058993 128.47665469 -42.75 124.375 C-40.85216548 122.50328247 -38.86738302 121.01115961 -36.75 119.375 C-37.3790625 118.91351563 -38.008125 118.45203125 -38.65625 117.9765625 C-49.56976917 109.65993494 -59.52587813 98.40997591 -61.75 84.375 C-62.28367188 84.7359375 -62.81734375 85.096875 -63.3671875 85.46875 C-69.16743029 89.08135797 -73.92133746 90.63138084 -80.75 89.375 C-86.06565158 86.71717421 -89.85236008 83.06791975 -91.75 77.375 C-91.8306622 75.89376453 -91.85761193 74.40917796 -91.84765625 72.92578125 C-91.84443359 72.07822266 -91.84121094 71.23066406 -91.83789062 70.35742188 C-91.82951172 69.47634766 -91.82113281 68.59527344 -91.8125 67.6875 C-91.80798828 66.79482422 -91.80347656 65.90214844 -91.79882812 64.98242188 C-91.78704983 62.77988013 -91.77060164 60.57747401 -91.75 58.375 C-92.52859375 58.26027344 -93.3071875 58.14554688 -94.109375 58.02734375 C-97.69996015 57.1403205 -98.70739569 55.36595631 -100.75 52.375 C-102.33696844 49.20106311 -101.8931447 45.79325795 -101.875 42.3125 C-101.87886719 41.56677734 -101.88273437 40.82105469 -101.88671875 40.05273438 C-101.87663501 34.50163501 -101.87663501 34.50163501 -100.75 33.375 C-100.46525984 30.30613383 -100.30128201 27.23724703 -100.12890625 24.16015625 C-99.75 21.375 -99.75 21.375 -97.75 19.375 C-95.04077199 19.17647898 -92.45696821 19.09660523 -89.75 19.125 C-89.01265625 19.11726563 -88.2753125 19.10953125 -87.515625 19.1015625 C-82.0033196 19.1216804 -82.0033196 19.1216804 -79.75 21.375 C-79.37109375 24.16015625 -79.37109375 24.16015625 -79.1875 27.4375 C-79.29118059 31.22323226 -79.29118059 31.22323226 -77.75 34.375 C-77.56854149 36.95409066 -77.47179982 39.48086653 -77.4375 42.0625 C-77.40849609 42.77083984 -77.37949219 43.47917969 -77.34960938 44.20898438 C-77.28788143 49.35139719 -78.17708646 52.42287175 -81.75 56.375 C-85 57.75 -85 57.75 -87.75 58.375 C-87.66256271 61.25138518 -87.5556265 64.12484562 -87.4375 67 C-87.41494141 67.80824219 -87.39238281 68.61648437 -87.36914062 69.44921875 C-87.14638129 74.43092742 -86.53223921 78.07938127 -83.75 82.375 C-79.51447144 85.19868571 -75.72522686 85.04153757 -70.75 84.375 C-67.81576805 82.57853146 -66.27794645 81.4308929 -64.75 78.375 C-65.801875 78.148125 -66.85375 77.92125 -67.9375 77.6875 C-71.92177382 76.56414491 -74.06180498 74.53758237 -76.75 71.375 C-78.60110583 67.67278834 -78.21454795 63.41593083 -77.75 59.375 C-75.70398195 55.86754048 -73.64578864 53.63540221 -69.75 52.375 C-66.5 52.25 -66.5 52.25 -63.75 52.375 C-63.4715625 50.580625 -63.4715625 50.580625 -63.1875 48.75 C-59.5527278 32.60957798 -48.43092916 18.61906985 -34.93359375 9.46484375 C-23.56616233 2.48432198 -13.31249276 -0.28324453 0 0 Z " fill="#104882" transform="translate(103.75,12.625)"/>
<path d="M0 0 C10.58627197 5.46723305 17.97671974 13.33814277 21.82910156 24.66235352 C24.83241186 35.86899138 22.88623104 46.01332159 17.32910156 56.03735352 C12.24195805 64.01890627 5.84163531 68.6503997 -2.98339844 71.84985352 C-3.93472656 72.20821289 -4.88605469 72.56657227 -5.86621094 72.93579102 C-14.3421907 75.42122869 -23.97691967 74.50215958 -31.98339844 70.84985352 C-44.18668268 64.06820911 -49.69065687 54.72807823 -53.98339844 41.84985352 C-55.03352369 28.58192483 -51.75660724 19.10055149 -43.38964844 8.90844727 C-32.89398899 -2.55261482 -14.27722261 -6.3918085 0 0 Z " fill="#FBFBFC" transform="translate(119.9833984375,42.150146484375)"/>
<path d="M0 0 C1.98 0 3.96 0 6 0 C6.495 1.98 6.495 1.98 7 4 C7.66 4 8.32 4 9 4 C9.33 2.68 9.66 1.36 10 0 C12.475 0.495 12.475 0.495 15 1 C15 2.32 15 3.64 15 5 C15.99 5 16.98 5 18 5 C18.33 3.68 18.66 2.36 19 1 C20.32 1.33 21.64 1.66 23 2 C23.495 4.475 23.495 4.475 24 7 C24.99 7 25.98 7 27 7 C27 5.68 27 4.36 27 3 C28.65 3.33 30.3 3.66 32 4 C32 4.99 32 5.98 32 7 C31.34 7 30.68 7 30 7 C30 7.66 30 8.32 30 9 C32.38564077 8.42415568 34.66682784 7.77772405 37 7 C37.99 7.495 37.99 7.495 39 8 C39 9.65 39 11.3 39 13 C41.97 12.505 41.97 12.505 45 12 C46.0625 13.8125 46.0625 13.8125 47 16 C46.505 17.485 46.505 17.485 46 19 C47.65 18.67 49.3 18.34 51 18 C51.99 19.98 51.99 19.98 53 22 C51.68 22 50.36 22 49 22 C49.86625 22.9075 50.7325 23.815 51.625 24.75 C56.88588693 30.87312255 60.42337591 38.11687957 62 46 C57.71 46 53.42 46 49 46 C48.57589844 45.14277344 48.15179688 44.28554688 47.71484375 43.40234375 C41.66810602 31.61452757 34.64527068 23.43047386 21.79296875 18.859375 C11.16016961 16.45029589 -1.53823166 16.37409671 -11.390625 21.328125 C-21.37401422 27.72466779 -26.79198778 35.58397556 -32 46 C-35.96 46 -39.92 46 -44 46 C-43.64976472 38.11970614 -39.54892709 31.88799478 -35.3046875 25.4140625 C-33.68302834 22.87085214 -33.68302834 22.87085214 -34 19 C-33.01 18.67 -32.02 18.34 -31 18 C-31 18.99 -31 19.98 -31 21 C-28.71271266 19.16116119 -28.71271266 19.16116119 -28.875 16.375 C-28.91625 15.59125 -28.9575 14.8075 -29 14 C-28.38125 14.185625 -27.7625 14.37125 -27.125 14.5625 C-24.95839822 15.23686176 -24.95839822 15.23686176 -23 14 C-23 12.35 -23 10.7 -23 9 C-21.35 8.67 -19.7 8.34 -18 8 C-18 8.66 -18 9.32 -18 10 C-17.01 10 -16.02 10 -15 10 C-15 8.35 -15 6.7 -15 5 C-13.68 4.67 -12.36 4.34 -11 4 C-10.505 5.485 -10.505 5.485 -10 7 C-8.68 7 -7.36 7 -6 7 C-6 6.34 -6 5.68 -6 5 C-6.66 5 -7.32 5 -8 5 C-8 4.01 -8 3.02 -8 2 C-6.35 1.67 -4.7 1.34 -3 1 C-3 2.32 -3 3.64 -3 5 C-2.01 5 -1.02 5 0 5 C0 3.35 0 1.7 0 0 Z " fill="#0C9AD6" transform="translate(96,19)"/>
<path d="M0 0 C3.96 0 7.92 0 12 0 C12.36351563 0.78503906 12.72703125 1.57007812 13.1015625 2.37890625 C19.32946783 15.3936315 26.98002079 23.44219634 40.87597656 28.41113281 C44.47812232 29.40979667 47.96592661 29.53198828 51.6875 29.5 C52.46988037 29.49427979 53.25226074 29.48855957 54.05834961 29.48266602 C65.18572573 29.14464508 75.1323275 24.94450524 83 17 C87.31993032 11.76039701 90.64741208 6.36582613 93 0 C97.29 0 101.58 0 106 0 C105.2664351 3.66782452 104.69602397 6.00456996 103.1875 9.25 C102.06955741 11.67288649 100.96143703 14.09076916 99.91796875 16.546875 C99.40169922 17.76117188 99.40169922 17.76117188 98.875 19 C98.40707031 20.11375 98.40707031 20.11375 97.9296875 21.25 C97 23 97 23 95 24 C94.505 25.485 94.505 25.485 94 27 C92.68 27 91.36 27 90 27 C90 28.32 90 29.64 90 31 C88.35 31 86.7 31 85 31 C85 31.99 85 32.98 85 34 C84.34 34 83.68 34 83 34 C82.505 34.99 82.505 34.99 82 36 C81.34 35.67 80.68 35.34 80 35 C79.67 35.99 79.34 36.98 79 38 C78.34 37.67 77.68 37.34 77 37 C76.505 37.99 76.505 37.99 76 39 C75.34 38.67 74.68 38.34 74 38 C74 38.66 74 39.32 74 40 C73.34 40 72.68 40 72 40 C71.505 40.99 71.505 40.99 71 42 C68.36 41.67 65.72 41.34 63 41 C63 41.99 63 42.98 63 44 C62.34 44 61.68 44 61 44 C61 43.34 61 42.68 61 42 C59.68 42 58.36 42 57 42 C57 42.99 57 43.98 57 45 C56.34 45 55.68 45 55 45 C55 44.01 55 43.02 55 42 C54.34 42 53.68 42 53 42 C53 42.99 53 43.98 53 45 C51.35 44.67 49.7 44.34 48 44 C48 43.34 48 42.68 48 42 C47.40832031 42.08378906 46.81664062 42.16757813 46.20703125 42.25390625 C37.86581814 43.32887499 37.86581814 43.32887499 34 42 C33.67 41.34 33.34 40.68 33 40 C31.68 40 30.36 40 29 40 C29.875 34.25 29.875 34.25 31 32 C28.03 34.475 28.03 34.475 25 37 C24.67 36.34 24.34 35.68 24 35 C21.47266765 34.34444881 21.47266765 34.34444881 19 34 C19 33.01 19 32.02 19 31 C18.4225 30.9175 17.845 30.835 17.25 30.75 C14.32205399 29.774018 12.94755463 28.36488777 11 26 C11 25.01 11 24.02 11 23 C10.38125 22.95875 9.7625 22.9175 9.125 22.875 C8.073125 22.441875 8.073125 22.441875 7 22 C6.28140389 20.01806557 5.62397226 18.01372865 5 16 C3.70681156 12.91986026 2.36932911 9.86211757 1.0234375 6.8046875 C0 4 0 4 0 0 Z " fill="#0F9CD7" transform="translate(52,90)"/>
<path d="M0 0 C0.93199219 -0.00257812 1.86398438 -0.00515625 2.82421875 -0.0078125 C4.28794922 0.00378906 4.28794922 0.00378906 5.78125 0.015625 C6.75707031 0.00789063 7.73289062 0.00015625 8.73828125 -0.0078125 C9.67027344 -0.00523438 10.60226563 -0.00265625 11.5625 0 C12.41908203 0.00225586 13.27566406 0.00451172 14.15820312 0.00683594 C16.28125 0.265625 16.28125 0.265625 18.28125 2.265625 C18.15298707 8.55050834 15.52191254 12.99207452 12.28125 18.265625 C13.085625 18.41 13.89 18.554375 14.71875 18.703125 C17.28125 19.265625 17.28125 19.265625 18.28125 20.265625 C17.96557871 25.8584968 16.5327865 28.92079765 13.15625 33.328125 C12.25479307 34.53029385 11.35658788 35.73490514 10.4609375 36.94140625 C9.96174805 37.61123535 9.46255859 38.28106445 8.94824219 38.97119141 C4.90823877 44.53181708 1.12670451 50.27858443 -2.71533203 55.97680664 C-3.33520996 56.89196045 -3.95508789 57.80711426 -4.59375 58.75 C-5.14804688 59.57209961 -5.70234375 60.39419922 -6.2734375 61.24121094 C-7.71875 63.265625 -7.71875 63.265625 -9.71875 65.265625 C-12.84375 64.890625 -12.84375 64.890625 -15.71875 64.265625 C-15.66691851 53.19960224 -11.91552125 42.74303912 -8.71875 32.265625 C-9.9975 32.306875 -11.27625 32.348125 -12.59375 32.390625 C-14.7734375 32.4609375 -14.7734375 32.4609375 -16.71875 32.265625 C-17.37875 31.605625 -18.03875 30.945625 -18.71875 30.265625 C-18.38009876 26.02376783 -17.18995732 22.71175746 -15.28515625 18.9375 C-14.80111328 17.97328125 -14.31707031 17.0090625 -13.81835938 16.015625 C-13.31111328 15.025625 -12.80386719 14.035625 -12.28125 13.015625 C-11.77787109 12.01015625 -11.27449219 11.0046875 -10.75585938 9.96875 C-5.71881102 0.01506083 -5.71881102 0.01506083 0 0 Z " fill="#164B84" transform="translate(105.71875,47.734375)"/>
<path d="M0 0 C22.88695652 0 22.88695652 0 28.84765625 4.34765625 C31.34872941 7.93394082 30.59006984 12.85087736 30 17 C28 19.6875 28 19.6875 26 21 C26.18175781 21.54527344 26.36351562 22.09054688 26.55078125 22.65234375 C27.07929702 24.23789106 27.60655266 25.82385875 28.1328125 27.41015625 C28.70153734 29.1086453 29.27936533 30.80411914 29.8671875 32.49609375 C30.13789063 33.28113281 30.40859375 34.06617188 30.6875 34.875 C30.93886719 35.59429687 31.19023437 36.31359375 31.44921875 37.0546875 C32 39 32 39 32 42 C28.7 42 25.4 42 22 42 C19.525 34.575 19.525 34.575 17 27 C14.69 26.67 12.38 26.34 10 26 C10 31.28 10 36.56 10 42 C6.7 42 3.4 42 0 42 C0 28.14 0 14.28 0 0 Z " fill="#E3EDF4" transform="translate(343,104)"/>
<path d="M0 0 C21 0 21 0 27 3 C29.84167039 5.88372471 30.43138677 7.98971845 30.4375 12 C30.34687435 15.61436428 30.25095638 16.67061975 28 19.625 C27.01 20.305625 27.01 20.305625 26 21 C26.27585937 21.82757813 26.55171875 22.65515625 26.8359375 23.5078125 C29.91796875 32.75390625 29.91796875 32.75390625 33 42 C29.37 42 25.74 42 22 42 C21.72027344 40.94039062 21.44054687 39.88078125 21.15234375 38.7890625 C20.74893706 37.40059295 20.34390339 36.01259538 19.9375 34.625 C19.75767578 33.92632812 19.57785156 33.22765625 19.39257812 32.5078125 C18.74972007 30.16870449 18.74972007 30.16870449 17 27 C14.69 26.34 12.38 25.68 10 25 C10 30.61 10 36.22 10 42 C6.7 42 3.4 42 0 42 C0 28.14 0 14.28 0 0 Z " fill="#EBF3F8" transform="translate(405,27)"/>
<path d="M0 0 C0.73734375 0.00773437 1.4746875 0.01546875 2.234375 0.0234375 C3.34039063 0.01183594 3.34039063 0.01183594 4.46875 0 C9.9810554 0.0201179 9.9810554 0.0201179 12.234375 2.2734375 C12.61328125 5.05859375 12.61328125 5.05859375 12.796875 8.3359375 C12.69319441 12.12166976 12.69319441 12.12166976 14.234375 15.2734375 C14.41583351 17.85252816 14.51257518 20.37930403 14.546875 22.9609375 C14.57587891 23.66927734 14.60488281 24.37761719 14.63476562 25.10742188 C14.69649357 30.24983469 13.80728854 33.32130925 10.234375 37.2734375 C6.984375 38.6484375 6.984375 38.6484375 4.234375 39.2734375 C4.32181229 42.14982268 4.4287485 45.02328312 4.546875 47.8984375 C4.56943359 48.70667969 4.59199219 49.51492187 4.61523438 50.34765625 C4.83799371 55.32936492 5.45213579 58.97781877 8.234375 63.2734375 C12.47287953 66.09910719 16.25599762 65.93456602 21.234375 65.2734375 C24.20366649 63.61638174 24.20366649 63.61638174 26.234375 61.2734375 C26.8325 60.6959375 27.430625 60.1184375 28.046875 59.5234375 C28.43875 59.1109375 28.830625 58.6984375 29.234375 58.2734375 C29.729375 61.7384375 29.729375 61.7384375 30.234375 65.2734375 C24.02681069 69.47179017 18.78558862 71.66275789 11.234375 70.2734375 C5.91872342 67.61561171 2.13201492 63.96635725 0.234375 58.2734375 C0.1537128 56.79220203 0.12676307 55.30761546 0.13671875 53.82421875 C0.13994141 52.97666016 0.14316406 52.12910156 0.14648438 51.25585938 C0.15486328 50.37478516 0.16324219 49.49371094 0.171875 48.5859375 C0.17638672 47.69326172 0.18089844 46.80058594 0.18554688 45.88085938 C0.19732517 43.67831763 0.21377336 41.47591151 0.234375 39.2734375 C-0.54421875 39.15871094 -1.3228125 39.04398438 -2.125 38.92578125 C-5.71558515 38.038758 -6.72302069 36.26439381 -8.765625 33.2734375 C-10.35259344 30.09950061 -9.9087697 26.69169545 -9.890625 23.2109375 C-9.89449219 22.46521484 -9.89835938 21.71949219 -9.90234375 20.95117188 C-9.89226001 15.40007251 -9.89226001 15.40007251 -8.765625 14.2734375 C-8.48088484 11.20457133 -8.31690701 8.13568453 -8.14453125 5.05859375 C-7.42559587 -0.22595191 -4.75876531 0.01736776 0 0 Z " fill="#144B84" transform="translate(11.765625,31.7265625)"/>
<path d="M0 0 C4.34539247 2.53413542 7.96408681 5.27734146 9.83984375 10.09375 C10.46377114 14.54835332 10.53629386 18.9754275 10.58984375 23.46875 C10.61949219 24.68175781 10.64914063 25.89476563 10.6796875 27.14453125 C10.75015535 30.12767021 10.80296855 33.11003795 10.83984375 36.09375 C12.23203125 36.7125 12.23203125 36.7125 13.65234375 37.34375 C18.27026446 39.87907902 18.27026446 39.87907902 19.83984375 43.09375 C20.05324758 45.92775286 20.12449366 48.52391169 20.02734375 51.34375 C20.00704102 52.46136719 20.00704102 52.46136719 19.98632812 53.6015625 C19.95111579 55.43260416 19.89731226 57.26327169 19.83984375 59.09375 C19.17984375 59.09375 18.51984375 59.09375 17.83984375 59.09375 C17.86304688 59.72023437 17.88625 60.34671875 17.91015625 60.9921875 C17.92820313 61.80945313 17.94625 62.62671875 17.96484375 63.46875 C17.98804688 64.28085938 18.01125 65.09296875 18.03515625 65.9296875 C17.83984375 68.09375 17.83984375 68.09375 15.83984375 70.09375 C13.09498782 70.23882695 10.45503832 70.28027423 7.71484375 70.21875 C6.96074219 70.20972656 6.20664063 70.20070313 5.4296875 70.19140625 C3.56627121 70.1678187 1.70301782 70.13194719 -0.16015625 70.09375 C-1.36288444 67.68829362 -1.26087097 66.14378047 -1.22265625 63.46875 C-1.20912109 62.24285156 -1.20912109 62.24285156 -1.1953125 60.9921875 C-1.18371094 60.36570313 -1.17210937 59.73921875 -1.16015625 59.09375 C-1.82015625 59.09375 -2.48015625 59.09375 -3.16015625 59.09375 C-5.25209535 54.90987181 -4.5889716 49.64991307 -4.16015625 45.09375 C-2.01707838 40.56947449 0.32089706 38.2343037 4.83984375 36.09375 C5.49984375 36.09375 6.15984375 36.09375 6.83984375 36.09375 C6.78773706 32.38429264 6.69260588 28.67712256 6.58984375 24.96875 C6.57566406 23.92203125 6.56148437 22.8753125 6.546875 21.796875 C6.3516908 15.6290542 5.9849429 11.77817432 1.83984375 7.09375 C-0.94493212 4.89524274 -2.63783423 4.15904025 -6.16015625 3.71875 C-9.52939583 4.13990495 -11.36370471 5.22944897 -14.16015625 7.09375 C-14.82015625 7.09375 -15.48015625 7.09375 -16.16015625 7.09375 C-15.54738013 4.13199877 -14.90643103 2.71316217 -13.16015625 0.09375 C-8.60283341 -1.42535761 -4.46126672 -1.8716345 0 0 Z " fill="#1B5087" transform="translate(185.16015625,56.90625)"/>
<path d="M0 0 C9.24 0 18.48 0 28 0 C28 2.97 28 5.94 28 9 C22.06 9 16.12 9 10 9 C10 11.31 10 13.62 10 16 C15.28 16 20.56 16 26 16 C26 18.64 26 21.28 26 24 C20.72 24 15.44 24 10 24 C10 27.3 10 30.6 10 34 C10.99 33.505 10.99 33.505 12 33 C14.88370333 32.92805131 17.74239664 32.90708292 20.625 32.9375 C21.42679688 32.94201172 22.22859375 32.94652344 23.0546875 32.95117188 C25.03649006 32.96296832 27.01825433 32.98090395 29 33 C29 35.97 29 38.94 29 42 C19.43 42 9.86 42 0 42 C0 28.14 0 14.28 0 0 Z " fill="#CDE5F5" transform="translate(233,27)"/>
<path d="M0 0 C9.57 0 19.14 0 29 0 C29 2.97 29 5.94 29 9 C22.73 9 16.46 9 10 9 C10 11.31 10 13.62 10 16 C15.61 16 21.22 16 27 16 C26.67 18.64 26.34 21.28 26 24 C20.72 24 15.44 24 10 24 C10 27.3 10 30.6 10 34 C16.27 34 22.54 34 29 34 C29 36.64 29 39.28 29 42 C19.43 42 9.86 42 0 42 C0 28.14 0 14.28 0 0 Z " fill="#F3F9FC" transform="translate(380,104)"/>
<path d="M0 0 C9.57 0 19.14 0 29 0 C29 2.97 29 5.94 29 9 C22.73 9 16.46 9 10 9 C10 11.31 10 13.62 10 16 C15.28 16 20.56 16 26 16 C26 18.64 26 21.28 26 24 C20.72 24 15.44 24 10 24 C10 27.3 10 30.6 10 34 C16.27 34 22.54 34 29 34 C29 36.64 29 39.28 29 42 C19.43 42 9.86 42 0 42 C0 28.14 0 14.28 0 0 Z " fill="#CEE4F2" transform="translate(299,27)"/>
<path d="M0 0 C1.6328125 0.9921875 1.6328125 0.9921875 3.8203125 3.2421875 C3.8203125 7.51045623 3.44417737 8.18101182 0.8203125 11.2421875 C-0.23736328 10.75105469 -0.23736328 10.75105469 -1.31640625 10.25 C-4.41835917 9.15818028 -6.71974803 9.03833354 -9.9921875 9.1171875 C-10.96800781 9.13523437 -11.94382813 9.15328125 -12.94921875 9.171875 C-13.68527344 9.19507812 -14.42132813 9.21828125 -15.1796875 9.2421875 C-14.8496875 10.2321875 -14.5196875 11.2221875 -14.1796875 12.2421875 C-11.11150063 13.40211181 -8.06181664 14.30743348 -4.90234375 15.171875 C-0.19127703 16.57871614 2.75028447 18.19745475 5.8203125 22.2421875 C6.88322666 26.88774762 6.93828116 31.98074519 4.79296875 36.3203125 C2.69937422 38.94207829 1.00582126 40.18035125 -2.1796875 41.2421875 C-9.82505826 41.92220777 -16.33665261 42.25464537 -22.7265625 37.62890625 C-24.1796875 36.2421875 -24.1796875 36.2421875 -26.1796875 33.2421875 C-24.5296875 31.2621875 -22.8796875 29.2821875 -21.1796875 27.2421875 C-18.68607179 28.44600198 -16.49825667 29.69647472 -14.1796875 31.2421875 C-11.67072064 31.69820011 -11.67072064 31.69820011 -8.9921875 31.8671875 C-8.09113281 31.94195312 -7.19007813 32.01671875 -6.26171875 32.09375 C-5.57464844 32.14273438 -4.88757813 32.19171875 -4.1796875 32.2421875 C-4.5096875 30.2621875 -4.8396875 28.2821875 -5.1796875 26.2421875 C-6.06011719 25.99984375 -6.94054687 25.7575 -7.84765625 25.5078125 C-9.58982422 25.00507813 -9.58982422 25.00507813 -11.3671875 24.4921875 C-12.51574219 24.16734375 -13.66429687 23.8425 -14.84765625 23.5078125 C-18.8626705 21.98276606 -22.20834987 20.18486276 -24.1796875 16.2421875 C-24.69785036 11.44281015 -24.89176117 7.50809624 -22.4921875 3.2421875 C-16.56810771 -1.88134097 -7.30125075 -2.53842768 0 0 Z " fill="#E7F0F6" transform="translate(255.1796875,104.7578125)"/>
<path d="M0 0 C2.86957946 1.80517404 5.28487055 4.24463684 6.87109375 7.23046875 C6.80859375 9.35546875 6.80859375 9.35546875 5.87109375 11.23046875 C3.66600134 12.8272598 2.46651994 13.28300635 -0.25390625 13.04296875 C-2.12890625 12.23046875 -2.12890625 12.23046875 -4.12890625 9.23046875 C-6.19067657 8.71532768 -6.19067657 8.71532768 -8.50390625 8.79296875 C-9.27476562 8.77363281 -10.045625 8.75429688 -10.83984375 8.734375 C-14.0999843 9.44092423 -15.19995124 10.51692754 -17.12890625 13.23046875 C-17.72556891 16.85655046 -17.72556891 16.85655046 -17.56640625 20.79296875 C-17.57704102 21.80133789 -17.57704102 21.80133789 -17.58789062 22.83007812 C-17.55125286 25.66809602 -17.43539318 27.75296404 -15.8828125 30.171875 C-13.66593799 31.50989948 -12.21001661 31.63127985 -9.62890625 31.60546875 C-8.85546875 31.61320312 -8.08203125 31.6209375 -7.28515625 31.62890625 C-4.61235005 31.13501815 -3.81670424 30.32059069 -2.12890625 28.23046875 C-1.46890625 27.24046875 -0.80890625 26.25046875 -0.12890625 25.23046875 C5.62109375 27.10546875 5.62109375 27.10546875 7.87109375 28.23046875 C6.66365023 34.38843068 4.99125292 36.60368934 -0.12890625 40.23046875 C-2.93388448 41.63295787 -5.3139199 41.40025931 -8.44140625 41.41796875 C-9.57191406 41.43214844 -10.70242188 41.44632813 -11.8671875 41.4609375 C-17.38855897 41.07080467 -21.17826584 39.07714494 -25.12890625 35.23046875 C-27.71947267 30.19915181 -28.65364337 25.98314603 -28.56640625 20.29296875 C-28.55738281 19.59002686 -28.54835938 18.88708496 -28.5390625 18.1628418 C-28.3173923 11.52889936 -27.20342932 7.35906635 -22.57421875 2.6484375 C-16.43073535 -2.1371515 -7.22081396 -2.61009239 0 0 Z " fill="#DEEEF8" transform="translate(360.12890625,27.76953125)"/>
<path d="M0 0 C5.61 0 11.22 0 17 0 C15.50748294 4.47755118 13.99752948 8.22222494 11.875 12.375 C11.33617188 13.43460938 10.79734375 14.49421875 10.2421875 15.5859375 C9.83226563 16.38257812 9.42234375 17.17921875 9 18 C11.64 18 14.28 18 17 18 C15.39543468 22.89914619 12.56571177 26.63405008 9.5625 30.75 C3.40686251 39.31342282 -2.34261983 48.10187647 -8 57 C-9.14244519 53.57266442 -8.82292166 52.56777918 -7.85546875 49.17578125 C-7.59056641 48.22896484 -7.32566406 47.28214844 -7.05273438 46.30664062 C-6.62444336 44.82454102 -6.62444336 44.82454102 -6.1875 43.3125 C-5.63859129 41.37130048 -5.09040209 39.42989735 -4.54296875 37.48828125 C-4.14730713 36.09536865 -4.14730713 36.09536865 -3.74365234 34.67431641 C-2.75859867 31.13187454 -1.86877777 27.5725837 -1 24 C-4.3 24 -7.6 24 -11 24 C-10.41584531 20.38606692 -9.44519602 17.57523816 -7.71484375 14.35546875 C-7.04291992 13.09379883 -7.04291992 13.09379883 -6.35742188 11.80664062 C-5.88884766 10.94232422 -5.42027344 10.07800781 -4.9375 9.1875 C-4.46505859 8.30384766 -3.99261719 7.42019531 -3.50585938 6.50976562 C-2.34300238 4.33675003 -1.17226883 2.16795271 0 0 Z " fill="#72B8E5" transform="translate(103,52)"/>
<path d="M0 0 C10.89 0 21.78 0 33 0 C33 2.97 33 5.94 33 9 C29.04 9 25.08 9 21 9 C21 19.89 21 30.78 21 42 C17.7 42 14.4 42 11 42 C11 31.11 11 20.22 11 9 C7.37 9 3.74 9 0 9 C0 6.03 0 3.06 0 0 Z " fill="#CBE3F3" transform="translate(263,104)"/>
<path d="M0 0 C10.89 0 21.78 0 33 0 C33 2.97 33 5.94 33 9 C29.37 9 25.74 9 22 9 C22 19.89 22 30.78 22 42 C18.7 42 15.4 42 12 42 C12 31.11 12 20.22 12 9 C8.04 9 4.08 9 0 9 C0 6.03 0 3.06 0 0 Z " fill="#DCEBF6" transform="translate(368,27)"/>
<path d="M0 0 C4.42642312 2.4486596 6.05875178 5.41604411 8 10 C8.3984375 13.47265625 8.3984375 13.47265625 8.375 17.0625 C8.38273437 18.24972656 8.39046875 19.43695313 8.3984375 20.66015625 C7.97103694 24.24277856 7.12889561 26.12311404 5 29 C1.75112714 31.35263207 -1.07466827 31.5925029 -5 31 C-9.64502001 28.58740951 -14.25253564 26.16995932 -16 21 C-16.30078125 17.72265625 -16.30078125 17.72265625 -16.3125 14.0625 C-16.32925781 12.85722656 -16.34601563 11.65195313 -16.36328125 10.41015625 C-15.97205124 6.73764225 -15.22463881 4.91234917 -13 2 C-8.748981 -0.83401267 -4.99006153 -0.63872788 0 0 Z " fill="#7BBEE8" transform="translate(322,111)"/>
<path d="M0 0 C4.45273985 3.12639181 6.34931318 6.87418303 8 12 C8.80910442 17.61939643 7.83651147 22.01165224 5 27 C2.65222891 29.20966691 1.10329553 29.93474038 -2.11328125 30.125 C-7.96365015 29.81035831 -11.02152091 28.26958732 -15 24 C-17.81435786 19.52261249 -17.53345309 14.12114968 -17 9 C-13.91544011 0.5174603 -8.55625639 -1.45845279 0 0 Z " fill="#78BCE7" transform="translate(465,34)"/>
<path d="M0 0 C5.3521875 -0.0928125 5.3521875 -0.0928125 10.8125 -0.1875 C11.93374268 -0.21481201 13.05498535 -0.24212402 14.21020508 -0.27026367 C15.53894653 -0.28150269 15.53894653 -0.28150269 16.89453125 -0.29296875 C18.25348511 -0.31653442 18.25348511 -0.31653442 19.63989258 -0.34057617 C22 0 22 0 23.79418945 1.38354492 C25.37997858 3.5093821 25.40131561 4.86843889 25.375 7.5 C25.38273437 8.2734375 25.39046875 9.046875 25.3984375 9.84375 C24.9140966 12.46488897 24.06249702 13.36675363 22 15 C21.67 15 21.34 15 21 15 C20.87882812 14.37351562 20.75765625 13.74703125 20.6328125 13.1015625 C20.46523438 12.28429687 20.29765625 11.46703125 20.125 10.625 C19.96257812 9.81289062 19.80015625 9.00078125 19.6328125 8.1640625 C19.13341068 5.81326077 19.13341068 5.81326077 17 4 C13.01061087 3.41430021 9.02813544 3.25711503 5 3 C5 6.96 5 10.92 5 15 C6.32 15 7.64 15 9 15 C9 15.66 9 16.32 9 17 C11.97 17 14.94 17 18 17 C18 17.66 18 18.32 18 19 C18.90492188 19.29390625 18.90492188 19.29390625 19.828125 19.59375 C22.98462414 21.63752642 23.49760468 24.00566245 24.75 27.5 C25.17796875 28.6653125 25.6059375 29.830625 26.046875 31.03125 C27 34 27 34 27 36 C25.02 36 23.04 36 21 36 C20.16260219 33.8765984 19.33019717 31.7512272 18.5 29.625 C18.0359375 28.44164062 17.571875 27.25828125 17.09375 26.0390625 C16 23 16 23 16 21 C12.37 20.67 8.74 20.34 5 20 C5 25.28 5 30.56 5 36 C3.35 36 1.7 36 0 36 C0 24.12 0 12.24 0 0 Z " fill="#114780" transform="translate(346,108)"/>
<path d="M0 0 C4.5478125 -0.12375 4.5478125 -0.12375 9.1875 -0.25 C10.60712036 -0.30462402 10.60712036 -0.30462402 12.05541992 -0.36035156 C16.11989341 -0.41384851 18.47068028 -0.29824614 22.078125 1.734375 C24.78930756 4.93048452 24.64736422 6.83830379 24.44140625 10.87109375 C23.82114837 13.86260302 22.44098846 15.24553954 20 17 C19.34 16.67 18.68 16.34 18 16 C18.33 15.67 18.66 15.34 19 15 C19.28143042 11.8339078 19.36383292 9.69367453 17.87109375 6.84765625 C14.24873715 3.27067364 8.83509888 4.20796124 4 4 C4 7.96 4 11.92 4 16 C8.29 16.33 12.58 16.66 17 17 C17 17.99 17 18.98 17 20 C17.90492188 20.29390625 17.90492188 20.29390625 18.828125 20.59375 C21.98462414 22.63752642 22.49760468 25.00566245 23.75 28.5 C24.17796875 29.6653125 24.6059375 30.830625 25.046875 32.03125 C26 35 26 35 26 37 C24.02 37 22.04 37 20 37 C18.33333333 32 16.66666667 27 15 22 C11.37 21.67 7.74 21.34 4 21 C4 26.28 4 31.56 4 37 C2.68 37 1.36 37 0 37 C0 24.79 0 12.58 0 0 Z " fill="#1B5087" transform="translate(409,30)"/>
<path d="M0 0 C4.85235829 2.53970919 7.3656857 5.80197258 9 11 C9.8690373 18.80112552 9.71675477 26.4473826 5 33 C-0.19884428 37.53516204 -5.19018702 37.61615315 -11.96484375 37.3828125 C-15.97464666 36.87707159 -18.13905205 35.86094795 -21 33 C-25.14474438 26.04881425 -25.30745892 18.28739678 -23.37890625 10.48828125 C-21.4830838 6.06469554 -18.62035259 3.16123983 -14.41015625 0.85546875 C-9.60233091 -0.85103652 -4.98582918 -0.9711766 0 0 Z M-18 8 C-20.79056429 12.51805648 -20.52801205 17.86013272 -20 23 C-18.34960926 27.69058422 -16.30390834 30.47379293 -12 33 C-7.76509044 34.12417599 -4.2914809 34.44921075 -0.125 33 C3.69672161 29.40308554 5.14439515 25.16354338 5.375 20 C5.13239693 14.54670498 3.04483372 10.48809651 -0.0625 6.0625 C-3.76116158 3.4655674 -6.18799516 3.34042831 -10.625 3.578125 C-14.04922405 4.18637532 -15.73917354 5.38591941 -18 8 Z " fill="#164C84" transform="translate(468,30)"/>
<path d="M0 0 C3.02508145 1.73602105 5.41790069 3.83580137 7 7 C7.13996069 11.66908861 7.04247285 16.32798622 7 21 C-0.26 21 -7.52 21 -15 21 C-15.66964286 6.80357143 -15.66964286 6.80357143 -12.625 3.1875 C-8.6064872 -0.16126066 -5.16930587 -0.8823305 0 0 Z " fill="#73B9E6" transform="translate(143,136)"/>
<path d="M0 0 C3.1875 2.125 3.1875 2.125 5 5 C5.8971875 6.2684375 5.8971875 6.2684375 6.8125 7.5625 C9.05395157 14.05091245 9.22179804 21.18469451 6.3125 27.5 C3.78195161 31.81628998 0.77108602 34.40963799 -4 36 C-5.95475009 36.1447963 -7.9151138 36.22067502 -9.875 36.25 C-11.41800781 36.28867188 -11.41800781 36.28867188 -12.9921875 36.328125 C-17.64654795 35.82037659 -20.16666791 33.92592454 -23.25 30.5 C-26.6737558 25.60892029 -26.45357953 20.75960419 -26 15 C-24.73940167 8.41944543 -21.4130339 4.76955854 -16 1 C-11.33169661 -1.3341517 -5.06788619 -0.51737121 0 0 Z M-20 8 C-22.32655271 12.65310543 -21.40375715 18.93573176 -21 24 C-18.63742962 29.48116327 -15.28674625 31.63007927 -10 34 C-6.38125114 34.50662484 -4.57137645 34.25971657 -1.25 32.75 C1.21918747 30.82952085 1.89387199 29.88470388 3 27 C3.88775202 19.41205638 3.96910094 12.78314245 -0.61328125 6.453125 C-3.53478259 3.39172078 -5.78903097 2.66806455 -9.875 2.5625 C-14.87757153 2.64283327 -16.96378104 3.88641302 -20 8 Z " fill="#1F5389" transform="translate(327,108)"/>
<path d="M0 0 C7.59 0 15.18 0 23 0 C23 1.32 23 2.64 23 4 C17.06 4 11.12 4 5 4 C5 7.63 5 11.26 5 15 C10.28 15.33 15.56 15.66 21 16 C21 16.99 21 17.98 21 19 C15.72 19 10.44 19 5 19 C5 23.62 5 28.24 5 33 C11.27 33 17.54 33 24 33 C24 34.32 24 35.64 24 37 C16.08 37 8.16 37 0 37 C0 24.79 0 12.58 0 0 Z " fill="#1E548B" transform="translate(236,30)"/>
<path d="M0 0 C2.875 2.5 2.875 2.5 5 5 C5.33 5.33 5.66 5.66 6 6 C6.14393457 10.33530918 6.04212061 14.66157731 6 19 C-0.6 19 -7.2 19 -14 19 C-14.60021195 6.15546421 -14.60021195 6.15546421 -12.95703125 2.9921875 C-8.71017189 -1.16749293 -5.63252475 -1.3365313 0 0 Z " fill="#73B9E6" transform="translate(76,138)"/>
<path d="M0 0 C7.59 0 15.18 0 23 0 C23 1.32 23 2.64 23 4 C16.73 4 10.46 4 4 4 C4 7.63 4 11.26 4 15 C9.28 15.33 14.56 15.66 20 16 C20 16.99 20 17.98 20 19 C14.72 19 9.44 19 4 19 C4 23.62 4 28.24 4 33 C10.27 33 16.54 33 23 33 C23 34.32 23 35.64 23 37 C15.41 37 7.82 37 0 37 C0 24.79 0 12.58 0 0 Z " fill="#184E86" transform="translate(303,30)"/>
<path d="M0 0 C2.75637552 1.39355788 3.94474223 2.60219927 6 5 C6 5.66 6 6.32 6 7 C4.35 7.66 2.7 8.32 1 9 C0.34 8.01 -0.32 7.02 -1 6 C-3.67703231 5.1076559 -5.59383084 4.74839658 -8.375 4.625 C-9.12523437 4.57601562 -9.87546875 4.52703125 -10.6484375 4.4765625 C-14.34716664 5.29986766 -15.74579646 7.01269026 -18 10 C-18.48000643 12.90985265 -18.66086891 15.11805687 -18.5625 18 C-18.57345703 18.69867188 -18.58441406 19.39734375 -18.59570312 20.1171875 C-18.52639427 25.01501344 -17.46834986 27.57661023 -14 31 C-10.04392963 33.24533723 -6.49447333 33.40858848 -2 33 C1.1850357 31.23984869 1.83296972 30.50109084 3 27 C3.99 27 4.98 27 6 27 C5.52153935 31.30614589 4.34073619 33.24880549 1 36 C-5.2826308 38.09421027 -12.59479684 38.07819452 -18.625 35.375 C-23.16636719 30.83363281 -24.43044647 26.45906798 -24.4375 20.125 C-24.25389442 13.15533219 -23.42866992 8.35449197 -18.375 3.41015625 C-12.83817153 -0.75400016 -6.7030881 -1.20167406 0 0 Z " fill="#1A4F86" transform="translate(359,30)"/>
<path d="M0 0 C3.7919939 2.23104838 6.76674837 4.90324463 8.08276367 9.22729492 C8.77137774 12.66875352 8.76717472 16.12891033 8.8125 19.625 C8.84150391 20.35912109 8.87050781 21.09324219 8.90039062 21.84960938 C8.96543268 27.48825499 7.70422042 30.66404155 4.5 35.3125 C-1.06775782 40.4728609 -5.83161461 40.73039083 -13.19921875 40.6484375 C-18.97621066 40.06048329 -22.08403325 37.71662378 -26.09375 33.7265625 C-30.98219282 27.50737692 -30.37928387 19.82339213 -29.5 12.3125 C-27.86558193 6.30441571 -24.5103378 2.83039675 -19.5 -0.6875 C-13.31444008 -2.74935331 -5.96260471 -2.78479467 0 0 Z M-22.75 8.6875 C-26.65925785 14.55138678 -27.22939155 20.42255524 -26.5 27.3125 C-24.93388602 31.54100774 -22.94588393 34.40503544 -19.5 37.3125 C-13.5892363 39.28275457 -6.87151456 39.11712101 -1 37.125 C3.40884882 33.92858461 5.76886885 30.42451549 7.5 25.3125 C8.35779278 18.08110741 8.1199694 11.2300534 3.5 5.3125 C0.1070809 1.96605924 -2.70545002 1.88002102 -7.375 1.875 C-14.55889101 2.03894772 -17.82580221 3.48973566 -22.75 8.6875 Z " fill="#E5EDF4" transform="translate(327.5,105.6875)"/>
<path d="M0 0 C1.14726562 0.00644531 2.29453125 0.01289062 3.4765625 0.01953125 C6.375 0.1875 6.375 0.1875 8.375 1.1875 C8.045 2.5075 7.715 3.8275 7.375 5.1875 C4.98935923 4.61165568 2.70817216 3.96522405 0.375 3.1875 C-4.33509725 2.76279738 -4.33509725 2.76279738 -8.625 4.375 C-9.83496768 6.20753547 -9.83496768 6.20753547 -9.5625 8.6875 C-8.40687289 11.7691723 -7.4030649 12.46640928 -4.625 14.1875 C-1.57233318 15.0725685 1.4865671 15.69768946 4.59765625 16.34375 C7.4737134 17.21748888 8.6351222 17.77799818 10.375 20.1875 C11.58637989 25.11377821 11.98196005 27.01693419 9.625 31.5625 C6.90022278 34.74140676 5.41079707 36.0895192 1.1953125 36.48828125 C-0.02414063 36.49214844 -1.24359375 36.49601562 -2.5 36.5 C-3.71429688 36.51675781 -4.92859375 36.53351563 -6.1796875 36.55078125 C-9.81239025 36.16774116 -11.69276093 35.30027302 -14.625 33.1875 C-13.965 31.8675 -13.305 30.5475 -12.625 29.1875 C-10.05582078 29.66327393 -8.50608877 30.26784543 -6.3125 31.75 C-2.8768465 33.58767513 -0.46786488 33.55003442 3.375 33.1875 C4.035 32.5275 4.695 31.8675 5.375 31.1875 C5.17524837 26.61948668 5.17524837 26.61948668 3.23046875 22.58984375 C0.62901843 20.62369498 -1.98803755 20.03532769 -5.125 19.1875 C-12.49942396 17.19441244 -12.49942396 17.19441244 -14.625 14.1875 C-15.15995152 10.06073113 -15.09136595 7.93701671 -12.875 4.375 C-8.74680495 0.36147704 -5.72485308 -0.07107605 0 0 Z " fill="#1A4F87" transform="translate(248.625,107.8125)"/>
<path d="M0 0 C4.63312418 3.47484314 7.73853117 7.36456431 9.5 12.875 C10.199759 20.14110214 10.70640451 27.92746058 6.77734375 34.359375 C3.92200828 37.74735715 0.63413774 39.49695409 -3.5 40.875 C-5.45566503 40.99479145 -7.41570766 41.05028496 -9.375 41.0625 C-10.40367187 41.07667969 -11.43234375 41.09085938 -12.4921875 41.10546875 C-17.87141646 40.69329406 -21.65757127 38.61631219 -25.5 34.875 C-28.09056642 29.84368306 -29.02473712 25.62767728 -28.9375 19.9375 C-28.92847656 19.23455811 -28.91945313 18.53161621 -28.91015625 17.80737305 C-28.68877579 11.18210168 -27.5972939 6.95707378 -22.91015625 2.29296875 C-16.30783319 -2.77393035 -7.6475018 -2.45812558 0 0 Z M-22.875 8.49609375 C-26.66967584 14.62291412 -26.31578265 21.93672735 -25.5 28.875 C-24.30885918 32.70958166 -22.53278313 35.11702699 -19.25390625 37.5234375 C-13.79767561 40.20124715 -7.0536393 39.79563194 -1.23828125 38.2890625 C3.13884178 36.21918653 5.17687476 32.91774846 6.84375 28.578125 C8.39816036 22.1754347 8.39093156 15.64678709 6.375 9.375 C2.12679708 3.70309524 2.12679708 3.70309524 -4.27734375 1.390625 C-12.1022138 1.03539761 -17.72283919 2.42181325 -22.875 8.49609375 Z " fill="#E4EEF6" transform="translate(469.5,28.125)"/>
<path d="M0 0 C7.59 0 15.18 0 23 0 C23 0.99 23 1.98 23 3 C16.73 3 10.46 3 4 3 C4 6.63 4 10.26 4 14 C5.32 14 6.64 14 8 14 C8 14.66 8 15.32 8 16 C11.96 16 15.92 16 20 16 C20 16.66 20 17.32 20 18 C14.72 18 9.44 18 4 18 C4 22.62 4 27.24 4 32 C10.27 32.33 16.54 32.66 23 33 C23 33.99 23 34.98 23 36 C15.41 36 7.82 36 0 36 C0 24.12 0 12.24 0 0 Z " fill="#184E86" transform="translate(384,108)"/>
<path d="M0 0 C21 0 21 0 27 3 C28.875 5.6875 28.875 5.6875 30 8 C27.50638429 6.79618552 25.31856917 5.54571278 23 4 C20.87662229 3.63566627 20.87662229 3.63566627 18.55078125 3.5859375 C17.78677002 3.55032715 17.02275879 3.5147168 16.2355957 3.47802734 C14.78866333 3.42702881 14.78866333 3.42702881 13.3125 3.375 C10.239375 3.25125 7.16625 3.1275 4 3 C4 15.21 4 27.42 4 40 C5.32 40 6.64 40 8 40 C8 34.72 8 29.44 8 24 C9.423125 23.938125 10.84625 23.87625 12.3125 23.8125 C13.51326172 23.76029297 13.51326172 23.76029297 14.73828125 23.70703125 C17.47851584 24.06198392 18.29171079 24.89366282 20 27 C19.34 27.66 18.68 28.32 18 29 C17.67 28.34 17.34 27.68 17 27 C14.69 26.34 12.38 25.68 10 25 C10 30.61 10 36.22 10 42 C6.7 42 3.4 42 0 42 C0 28.14 0 14.28 0 0 Z " fill="#CEE3F2" transform="translate(405,27)"/>
<path d="M0 0 C1.98 0 3.96 0 6 0 C6 11.22 6 22.44 6 34 C11.94 34 17.88 34 24 34 C24 35.32 24 36.64 24 38 C16.08 38 8.16 38 0 38 C0 25.46 0 12.92 0 0 Z " fill="#134A83" transform="translate(269,29)"/>
<path d="M0 0 C9.24 0 18.48 0 28 0 C28 1.32 28 2.64 28 4 C24.37 4 20.74 4 17 4 C17 14.89 17 25.78 17 37 C15.35 37 13.7 37 12 37 C11.67 26.11 11.34 15.22 11 4 C7.37 4 3.74 4 0 4 C0 2.68 0 1.36 0 0 Z " fill="#22568C" transform="translate(371,30)"/>
<path d="M0 0 C3.3 0 6.6 0 10 0 C10 11.22 10 22.44 10 34 C10.99 33.505 10.99 33.505 12 33 C14.71760108 32.92818179 17.40859388 32.90700494 20.125 32.9375 C20.87910156 32.94201172 21.63320313 32.94652344 22.41015625 32.95117188 C24.27347127 32.96296501 26.13674555 32.98090058 28 33 C28 35.97 28 38.94 28 42 C18.76 42 9.52 42 0 42 C0 28.14 0 14.28 0 0 Z M2 2 C2 14.54 2 27.08 2 40 C9.92 40 17.84 40 26 40 C26 38.68 26 37.36 26 36 C20.06 36 14.12 36 8 36 C8 24.78 8 13.56 8 2 C6.02 2 4.04 2 2 2 Z " fill="#FDFEFE" transform="translate(267,27)"/>
<path d="M0 0 C21 0 21 0 27 3 C27.99 4.485 27.99 4.485 29 6 C28.01 6 27.02 6 26 6 C25.67 5.67 25.34 5.34 25 5 C23.36743242 4.84285346 21.72864662 4.74914586 20.08984375 4.68359375 C19.199021 4.64548584 18.30819824 4.60737793 17.39038086 4.56811523 C16.25093018 4.52501221 15.11147949 4.48190918 13.9375 4.4375 C10.328125 4.293125 6.71875 4.14875 3 4 C3 15.88 3 27.76 3 40 C4.65 40 6.3 40 8 40 C8 34.72 8 29.44 8 24 C10.97 24 13.94 24 17 24 C17 24.33 17 24.66 17 25 C14.69 25 12.38 25 10 25 C10 30.61 10 36.22 10 42 C6.7 42 3.4 42 0 42 C0 28.14 0 14.28 0 0 Z " fill="#D8EBF8" transform="translate(343,104)"/>
<path d="M0 0 C1.65 0 3.3 0 5 0 C3.65150163 4.35970831 1.95092154 8.31341438 -0.125 12.375 C-0.66382812 13.43460938 -1.20265625 14.49421875 -1.7578125 15.5859375 C-2.16773437 16.38257812 -2.57765625 17.17921875 -3 18 C-0.36 18 2.28 18 5 18 C3.39543468 22.89914619 0.56571177 26.63405008 -2.4375 30.75 C-8.59313749 39.31342282 -14.34261983 48.10187647 -20 57 C-21.17480821 53.47557538 -20.75838631 52.1011711 -19.8125 48.5625 C-19.57144531 47.61503906 -19.33039063 46.66757813 -19.08203125 45.69140625 C-17.84789003 42.62164705 -16.33433596 41.31404435 -14 39 C-12.88454957 37.51163076 -11.80694062 35.99427212 -10.765625 34.453125 C-9.90517578 33.18662109 -9.90517578 33.18662109 -9.02734375 31.89453125 C-8.14755859 30.58548828 -8.14755859 30.58548828 -7.25 29.25 C-6.34701172 27.91775391 -6.34701172 27.91775391 -5.42578125 26.55859375 C-3.94658243 24.37501453 -2.47148285 22.18878305 -1 20 C-3.31 19.34 -5.62 18.68 -8 18 C-7.39733215 13.49272353 -5.63400206 10.1412037 -3.4375 6.1875 C-3.10814453 5.59001953 -2.77878906 4.99253906 -2.43945312 4.37695312 C-1.63226733 2.91466002 -0.81695083 1.4568601 0 0 Z " fill="#0F98D4" transform="translate(115,52)"/>
<path d="M0 0 C2.9375 1.8125 2.9375 1.8125 5 5 C5.41316745 8.77147724 5.22981277 12.18510802 5 16 C-0.61 16 -6.22 16 -12 16 C-12.60621242 5.93687375 -12.60621242 5.93687375 -9.9375 1.8125 C-6.2104623 -0.48716156 -4.30752863 -0.76920154 0 0 Z " fill="#63B4E3" transform="translate(197,97)"/>
<path d="M0 0 C9.57 0 19.14 0 29 0 C29 2.97 29 5.94 29 9 C22.73 9 16.46 9 10 9 C10 11.31 10 13.62 10 16 C15.28 16 20.56 16 26 16 C26 18.64 26 21.28 26 24 C20.72 24 15.44 24 10 24 C10 27.3 10 30.6 10 34 C15.61 34 21.22 34 27 34 C27 34.66 27 35.32 27 36 C20.73 36 14.46 36 8 36 C8 31.38 8 26.76 8 22 C13.28 22 18.56 22 24 22 C24 21.01 24 20.02 24 19 C22.77023437 19.01740234 22.77023437 19.01740234 21.515625 19.03515625 C19.89914062 19.04869141 19.89914062 19.04869141 18.25 19.0625 C16.64898437 19.07990234 16.64898437 19.07990234 15.015625 19.09765625 C12 19 12 19 8 18 C8 14.37 8 10.74 8 7 C14.27 6.67 20.54 6.34 27 6 C27.33 4.35 27.66 2.7 28 1 C18.76 1 9.52 1 0 1 C0 0.67 0 0.34 0 0 Z " fill="#E0EBF4" transform="translate(299,27)"/>
<path d="M0 0 C5.28 0 10.56 0 16 0 C16.7070614 9.78101601 16.7070614 9.78101601 14.91015625 12.87890625 C12.10432577 15.49123118 10.09578991 15.99837644 6.3125 16.0625 C2.60628183 14.87371304 1.87608088 14.29718405 0 11 C-0.38871006 7.28911458 -0.13369637 3.74349839 0 0 Z " fill="#76BCE8" transform="translate(6,49)"/>
<path d="M0 0 C4.45273985 3.12639181 6.34931318 6.87418303 8 12 C8.80910442 17.61939643 7.83651147 22.01165224 5 27 C2.65222891 29.20966691 1.10329553 29.93474038 -2.11328125 30.125 C-7.96365015 29.81035831 -11.02152091 28.26958732 -15 24 C-17.81435786 19.52261249 -17.53345309 14.12114968 -17 9 C-13.91544011 0.5174603 -8.55625639 -1.45845279 0 0 Z M-12.29296875 4.05078125 C-14.44466613 7.76824469 -14.53397533 10.28585484 -14.5 14.5625 C-14.5103125 15.86316406 -14.520625 17.16382813 -14.53125 18.50390625 C-14.26584789 22.009242 -14.26584789 22.009242 -12.28125 24.4296875 C-8.36914762 27.12260729 -4.55587501 26.82490096 0 26 C2.90949375 24.4080066 2.90949375 24.4080066 4 21 C4.77880106 14.44890874 4.80521015 8.63171102 1 3 C-0.65094122 1.34905878 -2.54485937 1.71132307 -4.8125 1.625 C-6.12154297 1.55152344 -6.12154297 1.55152344 -7.45703125 1.4765625 C-10.1796493 1.81490096 -10.1796493 1.81490096 -12.29296875 4.05078125 Z " fill="#E3ECF3" transform="translate(465,34)"/>
<path d="M0 0 C4.42642312 2.4486596 6.05875178 5.41604411 8 10 C8.3984375 13.47265625 8.3984375 13.47265625 8.375 17.0625 C8.38273437 18.24972656 8.39046875 19.43695313 8.3984375 20.66015625 C7.97103694 24.24277856 7.12889561 26.12311404 5 29 C1.75112714 31.35263207 -1.07466827 31.5925029 -5 31 C-9.64502001 28.58740951 -14.25253564 26.16995932 -16 21 C-16.30078125 17.72265625 -16.30078125 17.72265625 -16.3125 14.0625 C-16.32925781 12.85722656 -16.34601563 11.65195313 -16.36328125 10.41015625 C-15.97205124 6.73764225 -15.22463881 4.91234917 -13 2 C-8.748981 -0.83401267 -4.99006153 -0.63872788 0 0 Z M-11.5 3.75 C-14.73383869 8.60075803 -14.52197978 14.34979787 -14 20 C-12.38727433 23.68623011 -11.369675 24.75355 -8 27 C-4.13775632 27.32870159 -1.148983 27.38888365 2 25 C5.52333674 19.9666618 5.73071949 14.93228849 5 9 C3.46523242 4.64735497 3.46523242 4.64735497 0 2 C-4.34654271 1.48814845 -7.83921764 1.18745235 -11.5 3.75 Z " fill="#EDF5FA" transform="translate(322,111)"/>
<path d="M0 0 C8.91 0 17.82 0 27 0 C27 0.99 27 1.98 27 3 C23.37 3 19.74 3 16 3 C16 13.89 16 24.78 16 36 C14.68 36 13.36 36 12 36 C12 26.43 12 16.86 12 7 C11.34 7 10.68 7 10 7 C10 5.68 10 4.36 10 3 C6.7 3 3.4 3 0 3 C0 2.01 0 1.02 0 0 Z " fill="#114881" transform="translate(266,108)"/>
<path d="M0 0 C1.49314867 4.47944602 0.91130217 8.86921627 0.7421875 13.5546875 C1.02347951 17.31377161 1.72266072 19.038933 4 22 C9.26039007 25.81636142 12.56573585 26.45152731 19 26 C19 26.66 19 27.32 19 28 C16.32344199 29.33827901 14.17565948 29.20578556 11.1875 29.25 C10.14980469 29.27578125 9.11210937 29.3015625 8.04296875 29.328125 C3.36537492 28.82373748 0.84887419 26.94319354 -2.25 23.5 C-5.67687658 18.60446203 -5.35832679 13.76010321 -5 8 C-3.71830986 2.47887324 -3.71830986 2.47887324 0 0 Z " fill="#164D85" transform="translate(306,115)"/>
<path d="M0 0 C0.33 0 0.66 0 1 0 C1 2.97 1 5.94 1 9 C6.94 9 12.88 9 19 9 C18 15 18 15 17 16 C14.30345146 16.07319621 11.63308542 16.09242537 8.9375 16.0625 C8.17888672 16.05798828 7.42027344 16.05347656 6.63867188 16.04882812 C4.75908129 16.0370068 2.87953101 16.01907078 1 16 C1 19.96 1 23.92 1 28 C6.94 28 12.88 28 19 28 C19 28.66 19 29.32 19 30 C16.58325776 30.02705308 14.1668206 30.04686438 11.75 30.0625 C11.06808594 30.07087891 10.38617188 30.07925781 9.68359375 30.08789062 C6.1973503 30.10481414 3.41339881 29.8533497 0 29 C0 24.38 0 19.76 0 15 C5.28 15 10.56 15 16 15 C16 14.34 16 13.68 16 13 C12.04 13 8.08 13 4 13 C4 12.34 4 11.68 4 11 C2.68 11 1.36 11 0 11 C0 7.37 0 3.74 0 0 Z " fill="#B8D4E9" transform="translate(388,111)"/>
<path d="M0 0 C3.79063625 2.2302496 6.74906406 4.9013231 8.09155273 9.21191406 C8.50570872 11.34185914 8.61407671 13.25437417 8.59765625 15.421875 C8.59443359 16.17597656 8.59121094 16.93007812 8.58789062 17.70703125 C8.57532227 18.87298828 8.57532227 18.87298828 8.5625 20.0625 C8.55798828 20.85527344 8.55347656 21.64804688 8.54882812 22.46484375 C8.53708565 24.41409508 8.51915146 26.36330738 8.5 28.3125 C7.84 27.9825 7.18 27.6525 6.5 27.3125 C6.54640625 26.3946875 6.5928125 25.476875 6.640625 24.53125 C7.07111023 14.20553316 7.07111023 14.20553316 2.5 5.3125 C-2.60686639 1.05677801 -7.12173858 0.67933695 -13.69140625 0.93359375 C-19.09957461 1.66320756 -21.49688531 4.06538444 -24.8125 8.1875 C-27.71124466 13.6602337 -27.33221595 20.26388515 -27.5 26.3125 C-30.13534505 23.67715495 -29.82850126 22.36090007 -29.875 18.6875 C-29.75070092 12.20064181 -28.54344162 7.4910291 -24.00390625 2.75 C-17.49209063 -2.96610748 -7.83591604 -3.6597122 0 0 Z " fill="#F2F8FC" transform="translate(327.5,105.6875)"/>
<path d="M0 0 C5.3521875 -0.0928125 5.3521875 -0.0928125 10.8125 -0.1875 C11.93374268 -0.21481201 13.05498535 -0.24212402 14.21020508 -0.27026367 C15.53894653 -0.28150269 15.53894653 -0.28150269 16.89453125 -0.29296875 C18.25348511 -0.31653442 18.25348511 -0.31653442 19.63989258 -0.34057617 C22 0 22 0 23.79418945 1.38354492 C25.37997858 3.5093821 25.40131561 4.86843889 25.375 7.5 C25.38273437 8.2734375 25.39046875 9.046875 25.3984375 9.84375 C24.9140966 12.46488897 24.06249702 13.36675363 22 15 C21.67 15 21.34 15 21 15 C20.87882812 14.37351562 20.75765625 13.74703125 20.6328125 13.1015625 C20.46523438 12.28429687 20.29765625 11.46703125 20.125 10.625 C19.96257812 9.81289062 19.80015625 9.00078125 19.6328125 8.1640625 C19.13341068 5.81326077 19.13341068 5.81326077 17 4 C14.24119456 3.61040059 14.24119456 3.61040059 11.125 3.5 C6.86098269 3.29046598 4.93049871 2.96524935 1 1 C1 12.55 1 24.1 1 36 C0.67 36 0.34 36 0 36 C0 24.12 0 12.24 0 0 Z " fill="#326A9E" transform="translate(346,108)"/>
<path d="M0 0 C0.66 0 1.32 0 2 0 C2 12.87 2 25.74 2 39 C10.58 38.67 19.16 38.34 28 38 C28 38.99 28 39.98 28 41 C18.76 41 9.52 41 0 41 C0 27.47 0 13.94 0 0 Z " fill="#FDFEFE" transform="translate(233,28)"/>
<path d="M0 0 C8.58 0 17.16 0 26 0 C26.33 1.32 26.66 2.64 27 4 C26 5 26 5 23.49975586 5.11352539 C22.41573486 5.10828857 21.33171387 5.10305176 20.21484375 5.09765625 C19.04501953 5.09443359 17.87519531 5.09121094 16.66992188 5.08789062 C14.82237305 5.07532227 14.82237305 5.07532227 12.9375 5.0625 C11.08415039 5.05573242 11.08415039 5.05573242 9.19335938 5.04882812 C6.12885883 5.03699608 3.06445279 5.02051173 0 5 C0 3.35 0 1.7 0 0 Z " fill="#069AD7" transform="translate(147,75)"/>
<path d="M0 0 C4.49258429 3.36943822 8.09100788 7.36712172 9.5 12.875 C9.64737716 15.88352688 9.61800126 18.86596799 9.5 21.875 C7.89845165 18.93656595 7.03010435 16.18293414 6.25 12.9375 C4.75838041 7.77771388 2.98234151 5.76984556 -1.5 2.875 C-6.91192567 1.07102478 -13.12552005 0.91510385 -18.4375 3.0625 C-25.67999819 9.42711962 -26.70852948 16.68977632 -27.5 25.875 C-27.83 25.875 -28.16 25.875 -28.5 25.875 C-29.32397716 9.57856274 -29.32397716 9.57856274 -24.5 3.875 C-17.89422821 -2.73077179 -8.52079951 -2.73882841 0 0 Z " fill="#F2F8FC" transform="translate(469.5,28.125)"/>
<path d="M0 0 C2.86957946 1.80517404 5.28487055 4.24463684 6.87109375 7.23046875 C6.80859375 9.35546875 6.80859375 9.35546875 5.87109375 11.23046875 C4.05859375 12.54296875 4.05859375 12.54296875 1.87109375 13.23046875 C-0.37890625 12.85546875 -0.37890625 12.85546875 -2.12890625 12.23046875 C-2.12890625 11.57046875 -2.12890625 10.91046875 -2.12890625 10.23046875 C1.33609375 9.73546875 1.33609375 9.73546875 4.87109375 9.23046875 C2.16552137 5.42262614 0.31257032 3.64659171 -4.12890625 2.23046875 C-9.35852649 1.57581469 -13.76668459 1.58650942 -18.56640625 3.85546875 C-25.71879938 10.48451604 -26.13549922 16.6885328 -27.12890625 26.23046875 C-27.45890625 26.23046875 -27.78890625 26.23046875 -28.12890625 26.23046875 C-28.95210607 9.94940568 -28.95210607 9.94940568 -24.12890625 4.23046875 C-18.00497189 -2.03194654 -8.08062685 -2.92088714 0 0 Z " fill="#F1F8FC" transform="translate(360.12890625,27.76953125)"/>
<path d="M0 0 C1.5631897 0.00785522 1.5631897 0.00785522 3.15795898 0.01586914 C4.28266602 0.0190918 5.40737305 0.02231445 6.56616211 0.02563477 C7.75016602 0.03401367 8.93416992 0.04239258 10.15405273 0.05102539 C11.34192383 0.05553711 12.52979492 0.06004883 13.75366211 0.06469727 C16.69967499 0.07652864 19.64558954 0.09301252 22.59155273 0.11352539 C22.59155273 1.76352539 22.59155273 3.41352539 22.59155273 5.11352539 C14.34155273 5.11352539 6.09155273 5.11352539 -2.40844727 5.11352539 C-2.73844727 3.79352539 -3.06844727 2.47352539 -3.40844727 1.11352539 C-2.40844727 0.11352539 -2.40844727 0.11352539 0 0 Z " fill="#069AD7" transform="translate(39.408447265625,74.886474609375)"/>
<path d="M0 0 C0.79921875 0.02707031 1.5984375 0.05414063 2.421875 0.08203125 C3.02515625 0.11683594 3.6284375 0.15164062 4.25 0.1875 C4.25 0.8475 4.25 1.5075 4.25 2.1875 C4.85328125 2.3834375 5.4565625 2.579375 6.078125 2.78125 C9.23462414 4.82502642 9.74760468 7.19316245 11 10.6875 C11.42796875 11.8528125 11.8559375 13.018125 12.296875 14.21875 C13.25 17.1875 13.25 17.1875 13.25 19.1875 C11.27 19.1875 9.29 19.1875 7.25 19.1875 C6.41260219 17.0640984 5.58019717 14.9387272 4.75 12.8125 C4.2859375 11.62914062 3.821875 10.44578125 3.34375 9.2265625 C2.25 6.1875 2.25 6.1875 2.25 4.1875 C-1.38 3.8575 -5.01 3.5275 -8.75 3.1875 C-4.25 -0.1875 -4.25 -0.1875 0 0 Z " fill="#21558B" transform="translate(359.75,124.8125)"/>
<path d="M0 0 C4.64474974 -0.32405231 7.29105728 0.11526677 11 3 C13.06626507 5.95180724 13.45684692 8.43659405 13 12 C11.9375 13.8125 11.9375 13.8125 10 15 C4.23093637 15.7619518 1.57829875 14.38395995 -3 11 C-4.66140763 10.32033324 -6.32700041 9.65061095 -8 9 C-8.66 8.34 -9.32 7.68 -10 7 C-8.68 6.34 -7.36 5.68 -6 5 C-5.38125 5.639375 -4.7625 6.27875 -4.125 6.9375 C0.13332898 9.74799713 3.99401138 9.80559267 9 10 C8.67 8.02 8.34 6.04 8 4 C5.36 3.34 2.72 2.68 0 2 C0 1.34 0 0.68 0 0 Z " fill="#E6EEF5" transform="translate(242,127)"/>
<path d="M0 0 C8.25 0 16.5 0 25 0 C25 0.66 25 1.32 25 2 C17.41 2 9.82 2 2 2 C2 13.88 2 25.76 2 38 C1.34 38 0.68 38 0 38 C0 25.46 0 12.92 0 0 Z " fill="#8FC6EA" transform="translate(382,106)"/>
<path d="M0 0 C3.96 0 7.92 0 12 0 C12 3.3 12 6.6 12 10 C8.04 10 4.08 10 0 10 C0 6.7 0 3.4 0 0 Z " fill="#A5B9CF" transform="translate(8,35)"/>
<path d="M0 0 C1.98 0 3.96 0 6 0 C6 10.89 6 21.78 6 33 C5.67 33 5.34 33 5 33 C5 22.77 5 12.54 5 2 C4.01 2 3.02 2 2 2 C2 13.88 2 25.76 2 38 C1.34 38 0.68 38 0 38 C0 25.46 0 12.92 0 0 Z " fill="#5991BF" transform="translate(269,29)"/>
<path d="M0 0 C4.61513112 1.31860889 8.09897612 3.21355437 12 6 C11.125 11.75 11.125 11.75 10 14 C8.68 14 7.36 14 6 14 C6.875 8.25 6.875 8.25 8 6 C6.02 7.65 4.04 9.3 2 11 C1.67 10.34 1.34 9.68 1 9 C-1.52733235 8.34444881 -1.52733235 8.34444881 -4 8 C-3.50168276 4.31245243 -2.89932357 2.39509338 0 0 Z " fill="#CEE8F4" transform="translate(75,116)"/>
<path d="M0 0 C0.33 0 0.66 0 1 0 C1 2.31 1 4.62 1 7 C-2.63 7 -6.26 7 -10 7 C-10 17.89 -10 28.78 -10 40 C-12.64 40 -15.28 40 -18 40 C-18 39.34 -18 38.68 -18 38 C-16.02 38 -14.04 38 -12 38 C-12 27.11 -12 16.22 -12 5 C-8.04 5 -4.08 5 0 5 C0 3.35 0 1.7 0 0 Z " fill="#275D92" transform="translate(296,108)"/>
<path d="M0 0 C3.3 0 6.6 0 10 0 C10 11.22 10 22.44 10 34 C10.99 33.505 10.99 33.505 12 33 C14.71760108 32.92818179 17.40859388 32.90700494 20.125 32.9375 C20.87910156 32.94201172 21.63320313 32.94652344 22.41015625 32.95117188 C24.27347127 32.96296501 26.13674555 32.98090058 28 33 C28 35.97 28 38.94 28 42 C26 39 26 39 26 36 C20.06 36 14.12 36 8 36 C8.33 24.45 8.66 12.9 9 1 C6.03 1 3.06 1 0 1 C0 0.67 0 0.34 0 0 Z " fill="#D2E3F0" transform="translate(267,27)"/>
<path d="M0 0 C4.62 0 9.24 0 14 0 C14 0.33 14 0.66 14 1 C10.04 1 6.08 1 2 1 C2 4.3 2 7.6 2 11 C2.66 10.67 3.32 10.34 4 10 C6.88370333 9.92805131 9.74239664 9.90708292 12.625 9.9375 C13.82769531 9.94426758 13.82769531 9.94426758 15.0546875 9.95117188 C17.03649006 9.96296832 19.01825433 9.98090395 21 10 C21 12.97 21 15.94 21 19 C19 16 19 16 19 13 C12.73 13 6.46 13 0 13 C0 8.71 0 4.42 0 0 Z " fill="#F7F9FA" transform="translate(241,50)"/>
<path d="M0 0 C3.49103626 3.49103626 3.20488082 7.46944278 3.3125 12.25 C3.24671015 19.57734407 1.80893558 24.19106442 -3.375 29.375 C-8.91569019 32.80495107 -13.62522939 33.41801774 -20 33 C-20.99 32.34 -21.98 31.68 -23 31 C-22.27554687 30.96261719 -21.55109375 30.92523438 -20.8046875 30.88671875 C-15.16609203 30.50329426 -10.94063693 29.96438216 -6 27 C-5.01 26.67 -4.02 26.34 -3 26 C-1.82917122 23.07085835 -1.82917122 23.07085835 -1 20 C-0.67 19.34 -0.34 18.68 0 18 C0.08308638 16.62451844 0.10736016 15.24514204 0.09765625 13.8671875 C0.09282227 12.65869141 0.09282227 12.65869141 0.08789062 11.42578125 C0.07951172 10.58402344 0.07113281 9.74226563 0.0625 8.875 C0.05798828 8.02550781 0.05347656 7.17601562 0.04882812 6.30078125 C0.03702874 4.20049091 0.01909306 2.1002367 0 0 Z " fill="#33679A" transform="translate(478,38)"/>
<path d="M0 0 C0.33 0 0.66 0 1 0 C1.57949732 14.27280429 1.57949732 14.27280429 -2 20 C-5.31761408 23.37954288 -8.28903418 25.9078051 -13.1171875 26.16796875 C-14.35726563 26.17441406 -15.59734375 26.18085938 -16.875 26.1875 C-18.72738281 26.20876953 -18.72738281 26.20876953 -20.6171875 26.23046875 C-23.74086712 26.01765455 -25.40061596 25.65237226 -28 24 C-25.18688501 22.59344251 -22.88253136 23.01772153 -19.75 23.125 C-14.70477063 23.15281273 -11.17788954 23.10663581 -7 20 C-1.26557446 13.94699526 -0.59102348 8.00992342 0 0 Z " fill="#1F538A" transform="translate(337,122)"/>
<path d="M0 0 C1.258125 -0.04125 2.51625 -0.0825 3.8125 -0.125 C4.52019531 -0.14820312 5.22789062 -0.17140625 5.95703125 -0.1953125 C8 0 8 0 11 2 C11.3125 4.5 11.3125 4.5 11 7 C9 9 9 9 6.8359375 9.1953125 C4.55729167 9.13020833 2.27864583 9.06510417 0 9 C0 6.03 0 3.06 0 0 Z " fill="#7CBFE9" transform="translate(353,112)"/>
<path d="M0 0 C1.258125 -0.04125 2.51625 -0.0825 3.8125 -0.125 C4.52019531 -0.14820313 5.22789062 -0.17140625 5.95703125 -0.1953125 C8 0 8 0 11 2 C11.3125 4.5 11.3125 4.5 11 7 C9 9 9 9 6.8359375 9.1953125 C4.55729167 9.13020833 2.27864583 9.06510417 0 9 C0 6.03 0 3.06 0 0 Z " fill="#6CA8D4" transform="translate(415,35)"/>
<path d="M0 0 C0.33 0 0.66 0 1 0 C1.10957031 0.83144531 1.21914063 1.66289063 1.33203125 2.51953125 C1.49058594 3.60621094 1.64914062 4.69289063 1.8125 5.8125 C1.96332031 6.89144531 2.11414063 7.97039063 2.26953125 9.08203125 C3.03182466 12.12712844 3.3982312 13.29277193 6 15 C8.40301139 15.51156889 8.40301139 15.51156889 11 15.4375 C11.86625 15.45683594 12.7325 15.47617187 13.625 15.49609375 C16.11357987 15.2017065 16.11357987 15.2017065 17.73828125 13.26953125 C19.06127239 10.88978558 19.6776473 8.9169218 20.1875 6.25 C20.34605469 5.45078125 20.50460937 4.6515625 20.66796875 3.828125 C20.83232422 2.92320313 20.83232422 2.92320313 21 2 C21.33 2 21.66 2 22 2 C22.86097841 11.68122385 22.86097841 11.68122385 19.625 15.5625 C16.07285035 18.86092467 13.99269051 19.39498317 9.10546875 19.359375 C5.38406547 18.72418186 3.59687151 16.66020984 1 14 C-0.38226016 11.23547967 -0.09525387 8.9538637 -0.0625 5.875 C-0.05347656 4.77929688 -0.04445313 3.68359375 -0.03515625 2.5546875 C-0.02355469 1.71164063 -0.01195312 0.86859375 0 0 Z " fill="#E3EEF6" transform="translate(449,44)"/>
<path d="M0 0 C10.89 0 21.78 0 33 0 C33 2.97 33 5.94 33 9 C31 6 31 6 31 2 C21.43 2 11.86 2 2 2 C2 3.65 2 5.3 2 7 C1.34 7 0.68 7 0 7 C0 4.69 0 2.38 0 0 Z " fill="#EAF3FA" transform="translate(263,104)"/>
<path d="M0 0 C0.99 0.66 1.98 1.32 3 2 C1.69675781 2.03867188 1.69675781 2.03867188 0.3671875 2.078125 C-7.85923287 2.48300475 -12.5154638 3.22508578 -18.25 9.4375 C-20.84714584 14.72454688 -21.34474732 20.18894338 -22 26 C-22.33 26 -22.66 26 -23 26 C-23.92805762 11.31606607 -23.92805762 11.31606607 -19.46484375 5.5546875 C-13.73255551 -0.52918109 -8.06586385 -1.00095857 0 0 Z " fill="#7BBCE6" transform="translate(323,106)"/>
<path d="M0 0 C0.33 0 0.66 0 1 0 C1 1.65 1 3.3 1 5 C-4.28 5 -9.56 5 -15 5 C-15 8.3 -15 11.6 -15 15 C-9.39 15 -3.78 15 2 15 C2 15.66 2 16.32 2 17 C-4.27 17 -10.54 17 -17 17 C-17 12.71 -17 8.42 -17 4 C-11.39 4 -5.78 4 0 4 C0 2.68 0 1.36 0 0 Z " fill="#ECF4FA" transform="translate(324,46)"/>
<path d="M0 0 C5.94 0 11.88 0 18 0 C18 2.64 18 5.28 18 8 C12.06 7.67 6.12 7.34 0 7 C0 6.67 0 6.34 0 6 C5.28 6 10.56 6 16 6 C16 5.01 16 4.02 16 3 C15.09636719 3.01160156 14.19273437 3.02320313 13.26171875 3.03515625 C12.08222656 3.04417969 10.90273437 3.05320313 9.6875 3.0625 C8.51574219 3.07410156 7.34398437 3.08570313 6.13671875 3.09765625 C3 3 3 3 0 2 C0 1.34 0 0.68 0 0 Z " fill="#D6E3EF" transform="translate(241,43)"/>
<path d="M0 0 C11.47897324 -0.37028946 11.47897324 -0.37028946 13.86328125 1.32421875 C15.63321345 3.93350024 15.38278316 5.9377347 15 9 C13.86328125 10.67578125 13.86328125 10.67578125 12 12 C7.96740923 12.40487859 4.06287095 12.13106035 0 12 C0 8.04 0 4.08 0 0 Z M2 1 C2 3.97 2 6.94 2 10 C6.50901363 10.17957899 6.50901363 10.17957899 11 10 C13.23845015 8.17084359 13.23845015 8.17084359 13.3125 5.5 C13.209375 4.675 13.10625 3.85 13 3 C9.91111478 0.94074319 9.29064073 0.7609626 5.8125 0.875 C4.554375 0.91625 3.29625 0.9575 2 1 Z " fill="#F4F8FB" transform="translate(351,111)"/>
<path d="M0 0 C11.47897324 -0.37028946 11.47897324 -0.37028946 13.86328125 1.32421875 C15.63321345 3.93350024 15.38278316 5.9377347 15 9 C13.86328125 10.67578125 13.86328125 10.67578125 12 12 C7.96740923 12.40487859 4.06287095 12.13106035 0 12 C0 8.04 0 4.08 0 0 Z M2 1 C2 3.97 2 6.94 2 10 C6.50901363 10.17957899 6.50901363 10.17957899 11 10 C13.23845015 8.17084359 13.23845015 8.17084359 13.3125 5.5 C13.209375 4.675 13.10625 3.85 13 3 C9.91111478 0.94074319 9.29064073 0.7609626 5.8125 0.875 C4.554375 0.91625 3.29625 0.9575 2 1 Z " fill="#F5F9FC" transform="translate(413,34)"/>
<path d="M0 0 C0 0.33 0 0.66 0 1 C-1.27875 1.20625 -2.5575 1.4125 -3.875 1.625 C-7.40741627 2.50216279 -7.40741627 2.50216279 -9.5 5.5 C-10.85198246 14.57515844 -10.85198246 14.57515844 -8 23 C-7.34 23.33 -6.68 23.66 -6 24 C-6 24.66 -6 25.32 -6 26 C-7.8125 25.8125 -7.8125 25.8125 -10 25 C-13.03837714 21.01994665 -13.40695304 17.9420699 -13.375 13 C-13.38273437 11.80375 -13.39046875 10.6075 -13.3984375 9.375 C-12.96974271 5.74370296 -12.19799261 3.88937995 -10 1 C-6.1496895 -1.56687367 -4.41430237 -0.83288724 0 0 Z " fill="#EBF0F5" transform="translate(319,112)"/>
<path d="M0 0 C0.33 0 0.66 0 1 0 C1.76140684 7.61406844 1.76140684 7.61406844 -0.04296875 10.8984375 C-1.82353782 13.03929768 -3.49514224 14.74757112 -6 16 C-8.5132797 16.12393466 -10.98670114 16.18515112 -13.5 16.1875 C-14.18964844 16.19974609 -14.87929687 16.21199219 -15.58984375 16.22460938 C-17.39477494 16.22988695 -19.19917842 16.12184458 -21 16 C-21.66 15.34 -22.32 14.68 -23 14 C-22.04738281 13.96261719 -21.09476563 13.92523438 -20.11328125 13.88671875 C-18.23189453 13.78810547 -18.23189453 13.78810547 -16.3125 13.6875 C-14.45044922 13.60048828 -14.45044922 13.60048828 -12.55078125 13.51171875 C-8.89138666 12.98434725 -6.9375088 12.19113633 -4 10 C-1.61336101 6.76098995 -0.56710662 3.96974635 0 0 Z " fill="#23568C" transform="translate(262,132)"/>
<path d="M0 0 C3.0625 1.5 3.0625 1.5 5 3 C4.01 3.33 3.02 3.66 2 4 C1.67 3.67 1.34 3.34 1 3 C-0.99749319 2.72290073 -0.99749319 2.72290073 -3.3125 2.6875 C-4.09238281 2.65011719 -4.87226563 2.61273438 -5.67578125 2.57421875 C-8.94767355 3.17360742 -10.03657887 4.34566453 -12 7 C-12.69397449 10.03222778 -12.69397449 10.03222778 -12.75 13.25 C-12.80671875 14.32765625 -12.8634375 15.4053125 -12.921875 16.515625 C-12.94765625 17.33546875 -12.9734375 18.1553125 -13 19 C-13.66 19 -14.32 19 -15 19 C-15.10864945 16.93867858 -15.18588321 14.87568679 -15.25 12.8125 C-15.29640625 11.66394531 -15.3428125 10.51539063 -15.390625 9.33203125 C-14.9249943 5.36020138 -13.77629613 3.81228515 -11 1 C-7.56143022 -0.71928489 -3.76751104 -0.38974252 0 0 Z " fill="#DDE5ED" transform="translate(355,34)"/>
<path d="M0 0 C1.32 0.33 2.64 0.66 4 1 C4 5 4 5 3 7 C2.34 7 1.68 7 1 7 C0.34 8.32 -0.32 9.64 -1 11 C-4 11 -4 11 -6 10 C-5.49477778 5.62140745 -2.82172778 3.18348776 0 0 Z " fill="#D5E9F3" transform="translate(138,31)"/>
<path d="M0 0 C1.67542976 0.28604898 3.34385343 0.61781233 5 1 C5 4.3 5 7.6 5 11 C3.34385343 11.38218767 1.67542976 11.71395102 0 12 C-1 11 -1 11 -1.1328125 8.75 C-1.13023438 7.8425 -1.12765625 6.935 -1.125 6 C-1.12757812 5.0925 -1.13015625 4.185 -1.1328125 3.25 C-1 1 -1 1 0 0 Z " fill="#F4FAFC" transform="translate(106,19)"/>
<path d="M0 0 C1.32 0.33 2.64 0.66 4 1 C3.54663921 5.87362847 2.2910841 8.39042389 -1 12 C-2.32 11.67 -3.64 11.34 -5 11 C-4.54663921 6.12637153 -3.2910841 3.60957611 0 0 Z " fill="#E7F5FB" transform="translate(131,26)"/>
<path d="M0 0 C7.26 0 14.52 0 22 0 C22 0.99 22 1.98 22 3 C14.74 3 7.48 3 0 3 C0 2.01 0 1.02 0 0 Z " fill="#079BD8" transform="translate(128,154)"/>
<path d="M0 0 C1.65 0 3.3 0 5 0 C5.33 3.96 5.66 7.92 6 12 C4.02 12 2.04 12 0 12 C0 8.04 0 4.08 0 0 Z " fill="#D7EAF4" transform="translate(97,19)"/>
<path d="M0 0 C0.66 0 1.32 0 2 0 C3.04892238 1.63631892 4.04906703 3.30485863 5 5 C6.88057664 6.88057664 9.57124096 6.46277585 12.08984375 6.71875 C14 7 14 7 16 8 C17.65 6.35 19.3 4.7 21 3 C21.66 3.33 22.32 3.66 23 4 C21.19587357 7.26460973 20.16605307 8.88929795 17 11 C11.76845724 11.49354177 8.42303203 10.85039842 4 8 C0 3.78947368 0 3.78947368 0 0 Z " fill="#D9E8F3" transform="translate(340,53)"/>
<path d="M0 0 C0.66 0 1.32 0 2 0 C2 2.31 2 4.62 2 7 C-6.91 7 -15.82 7 -25 7 C-25 6.34 -25 5.68 -25 5 C-16.75 5 -8.5 5 0 5 C0 3.35 0 1.7 0 0 Z " fill="#174D85" transform="translate(409,141)"/>
<path d="M0 0 C1.32 0.99 2.64 1.98 4 3 C3.42647107 6.87132028 1.51295648 9.08172796 -1 12 C-1.33 10.68 -1.66 9.36 -2 8 C-3.32 7.67 -4.64 7.34 -6 7 C-6 6.01 -6 5.02 -6 4 C-3 1.8125 -3 1.8125 0 0 Z " fill="#78C6E7" transform="translate(65,105)"/>
<path d="M0 0 C0.33 0 0.66 0 1 0 C1.02578125 0.74765625 1.0515625 1.4953125 1.078125 2.265625 C1.36608954 8.2824279 1.36608954 8.2824279 3.625 13.75 C7.10929495 15.58383944 9.25929061 15.00197573 13 14 C15.38028291 12.57324827 15.38028291 12.57324827 17 11 C16.73136414 14.31317555 16.40940132 15.63876354 13.875 17.875 C10.12772146 19.34132638 7.86505322 19.00205083 4 18 C1.41544715 16.10466125 1.03724494 15.11173483 0 12 C-0.068991 9.93854893 -0.08467727 7.87498599 -0.0625 5.8125 C-0.05347656 4.72582031 -0.04445313 3.63914063 -0.03515625 2.51953125 C-0.02355469 1.68808594 -0.01195312 0.85664062 0 0 Z " fill="#1892CC" transform="translate(5,49)"/>
<path d="M0 0 C1.22589844 0.01353516 1.22589844 0.01353516 2.4765625 0.02734375 C3.41628906 0.04474609 3.41628906 0.04474609 4.375 0.0625 C4.705 0.7225 5.035 1.3825 5.375 2.0625 C2.39648438 2.40429688 2.39648438 2.40429688 -0.58203125 2.74609375 C-2.81896393 3.03420735 -2.81896393 3.03420735 -5.625 4.0625 C-6.285 9.3425 -6.945 14.6225 -7.625 20.0625 C-10.09499683 17.59250317 -9.9218552 16.78035184 -9.9375 13.375 C-9.84639499 8.53942664 -8.96036054 5.28411329 -6.625 1.0625 C-4.21954362 -0.14022819 -2.67503047 -0.03821472 0 0 Z " fill="#285D92" transform="translate(317.625,112.9375)"/>
<path d="M0 0 C6.6 0 13.2 0 20 0 C20 0.99 20 1.98 20 3 C13.4 3 6.8 3 0 3 C0 2.01 0 1.02 0 0 Z " fill="#0D9BD7" transform="translate(62,154)"/>
<path d="M0 0 C0.66 0 1.32 0 2 0 C2 2.31 2 4.62 2 7 C-3.28 7 -8.56 7 -14 7 C-14 9.31 -14 11.62 -14 14 C-14.66 14 -15.32 14 -16 14 C-16 11.03 -16 8.06 -16 5 C-10.72 5 -5.44 5 0 5 C0 3.35 0 1.7 0 0 Z " fill="#4C7DAA" transform="translate(325,46)"/>
<path d="M0 0 C0.66 0 1.32 0 2 0 C2.47899365 4.78993648 2.8170476 8.65525045 -0.3125 12.5625 C-3 15 -3 15 -6 15 C-6.33 14.01 -6.66 13.02 -7 12 C-9.97 12 -12.94 12 -16 12 C-16 11.67 -16 11.34 -16 11 C-14.72125 10.87625 -13.4425 10.7525 -12.125 10.625 C-8.65209064 10.30957601 -8.65209064 10.30957601 -6 8 C-5.30251417 6.68252676 -4.63040043 5.35085807 -4 4 C-4 5.98 -4 7.96 -4 10 C-3.01 10 -2.02 10 -1 10 C-0.67 6.7 -0.34 3.4 0 0 Z " fill="#E0E7EF" transform="translate(433,35)"/>
<path d="M0 0 C0.33 0 0.66 0 1 0 C1.0814222 2.22855574 1.13938079 4.45797655 1.1875 6.6875 C1.22230469 7.92886719 1.25710938 9.17023438 1.29296875 10.44921875 C0.98186242 14.21982743 0.25280644 16.01091048 -2 19 C-5.20267673 21.3191797 -8.12229434 21.3371918 -12 21 C-12.66 20.34 -13.32 19.68 -14 19 C-12.741875 18.731875 -11.48375 18.46375 -10.1875 18.1875 C-5.9439556 17.1125544 -5.9439556 17.1125544 -3 14 C-0.65752882 9.57533221 -0.40635076 4.90828947 0 0 Z " fill="#72B3DF" transform="translate(329,121)"/>
<path d="M0 0 C0.96808594 -0.01417969 1.93617188 -0.02835937 2.93359375 -0.04296875 C5.5625 0.1875 5.5625 0.1875 8.5625 2.1875 C7.76585937 2.21328125 6.96921875 2.2390625 6.1484375 2.265625 C-2.43048258 2.61637764 -2.43048258 2.61637764 -9.4375 7.1875 C-10.87667432 10.80166517 -10.87667432 10.80166517 -11.4375 14.1875 C-11.7675 14.1875 -12.0975 14.1875 -12.4375 14.1875 C-13.05114554 6.94648264 -13.05114554 6.94648264 -10.0625 3.25 C-6.39543577 0.36873525 -4.60620119 0.03058567 0 0 Z " fill="#75B7E3" transform="translate(245.4375,105.8125)"/>
<path d="M0 0 C2.31 0.66 4.62 1.32 7 2 C7 2.99 7 3.98 7 5 C6.01 5.33 5.02 5.66 4 6 C4.66 6.33 5.32 6.66 6 7 C5.67 7.99 5.34 8.98 5 10 C2.69 9.67 0.38 9.34 -2 9 C-1.125 2.25 -1.125 2.25 0 0 Z " fill="#89CAE7" transform="translate(89,123)"/>
<path d="M0 0 C0.99386719 0.00902344 1.98773438 0.01804687 3.01171875 0.02734375 C4.15060547 0.04474609 4.15060547 0.04474609 5.3125 0.0625 C5.3125 0.3925 5.3125 0.7225 5.3125 1.0625 C4.74402344 1.08828125 4.17554688 1.1140625 3.58984375 1.140625 C-1.90760811 1.5444445 -6.47414895 2.30878724 -10.6875 6.0625 C-15.32625261 11.91381408 -15.44751932 18.86307959 -15.6875 26.0625 C-16.0175 26.0625 -16.3475 26.0625 -16.6875 26.0625 C-16.79633596 23.68624823 -16.87516696 21.31506024 -16.9375 18.9375 C-16.97101563 18.27234375 -17.00453125 17.6071875 -17.0390625 16.921875 C-17.16311224 10.59533851 -14.69136985 7.30926317 -10.625 2.75 C-7.27045751 -0.17169829 -4.26431728 -0.05016844 0 0 Z " fill="#79B9E3" transform="translate(459.6875,28.9375)"/>
<path d="M0 0 C1.50433594 0.01353516 1.50433594 0.01353516 3.0390625 0.02734375 C3.80992187 0.03894531 4.58078125 0.05054687 5.375 0.0625 C5.375 0.3925 5.375 0.7225 5.375 1.0625 C4.80652344 1.08828125 4.23804688 1.1140625 3.65234375 1.140625 C-1.84510811 1.5444445 -6.41164895 2.30878724 -10.625 6.0625 C-15.26375261 11.91381408 -15.38501932 18.86307959 -15.625 26.0625 C-15.955 26.0625 -16.285 26.0625 -16.625 26.0625 C-16.73383596 23.68624823 -16.81266696 21.31506024 -16.875 18.9375 C-16.90851563 18.27234375 -16.94203125 17.6071875 -16.9765625 16.921875 C-17.07753375 11.77234133 -15.8341442 9.02433438 -12.625 5.0625 C-8.17197224 1.13959459 -5.89336299 -0.06852748 0 0 Z " fill="#78B9E3" transform="translate(350.625,28.9375)"/>
<path d="M0 0 C0.33 0 0.66 0 1 0 C1 2.31 1 4.62 1 7 C-4.94 7 -10.88 7 -17 7 C-17 8.65 -17 10.3 -17 12 C-17.66 12 -18.32 12 -19 12 C-19 9.69 -19 7.38 -19 5 C-12.73 5 -6.46 5 0 5 C0 3.35 0 1.7 0 0 Z " fill="#1F558B" transform="translate(409,108)"/>
<path d="M0 0 C1.9375 0.3125 1.9375 0.3125 4 1 C4.33 1.99 4.66 2.98 5 4 C4.01 4 3.02 4 2 4 C2.99 5.485 2.99 5.485 4 7 C3.625 9.6875 3.625 9.6875 3 12 C1.35 12 -0.3 12 -2 12 C-2 10.35 -2 8.7 -2 7 C-1.34 7 -0.68 7 0 7 C-0.2784375 5.824375 -0.2784375 5.824375 -0.5625 4.625 C-1 2 -1 2 0 0 Z " fill="#E3ECF3" transform="translate(115,20)"/>
<path d="M0 0 C1.98 0.66 3.96 1.32 6 2 C5.01 2.495 5.01 2.495 4 3 C3.34227572 6.02934491 3.34227572 6.02934491 3 9 C0.69 8.67 -1.62 8.34 -4 8 C-3.50168276 4.31245243 -2.89932357 2.39509338 0 0 Z " fill="#32ABDD" transform="translate(75,116)"/>
<path d="M0 0 C8.91 0 17.82 0 27 0 C27 0.33 27 0.66 27 1 C21.72 1 16.44 1 11 1 C11 2.98 11 4.96 11 7 C10.67 5.68 10.34 4.36 10 3 C6.7 3 3.4 3 0 3 C0 2.01 0 1.02 0 0 Z " fill="#2F6498" transform="translate(266,108)"/>
<path d="M0 0 C0.66 0 1.32 0 2 0 C2 2.31 2 4.62 2 7 C-3.61 7 -9.22 7 -15 7 C-15 9.31 -15 11.62 -15 14 C-15.33 14 -15.66 14 -16 14 C-16 11.03 -16 8.06 -16 5 C-10.72 5 -5.44 5 0 5 C0 3.35 0 1.7 0 0 Z " fill="#487AA8" transform="translate(259,46)"/>
<path d="M0 0 C1.98 0 3.96 0 6 0 C4.68 0.33 3.36 0.66 2 1 C2 6.61 2 12.22 2 18 C-0.64 18 -3.28 18 -6 18 C-6 17.34 -6 16.68 -6 16 C-4.02 16 -2.04 16 0 16 C0 10.72 0 5.44 0 0 Z " fill="#225A90" transform="translate(353,130)"/>
<path d="M0 0 C2 0.25 2 0.25 4 1 C4.33 1.99 4.66 2.98 5 4 C4.01 4.33 3.02 4.66 2 5 C2.33 5.66 2.66 6.32 3 7 C4.32 7 5.64 7 7 7 C6.67 8.65 6.34 10.3 6 12 C4.1875 11.8125 4.1875 11.8125 2 11 C-0.59946429 7.65783162 -1.4687485 5.21873654 -1 1 C-0.67 0.67 -0.34 0.34 0 0 Z " fill="#E8F0F6" transform="translate(82,23)"/>
<path d="M0 0 C0.66 0 1.32 0 2 0 C2 2.31 2 4.62 2 7 C-3.28 7 -8.56 7 -14 7 C-14 8.98 -14 10.96 -14 13 C-14.33 13 -14.66 13 -15 13 C-15 10.36 -15 7.72 -15 5 C-10.05 5 -5.1 5 0 5 C0 3.35 0 1.7 0 0 Z " fill="#2B6397" transform="translate(406,124)"/>
<path d="M0 0 C5.75 1.875 5.75 1.875 8 3 C7.67 4.32 7.34 5.64 7 7 C6.34 7 5.68 7 5 7 C5 6.01 5 5.02 5 4 C3.68 4 2.36 4 1 4 C0.2575 4.825 -0.485 5.65 -1.25 6.5 C-4.19622855 9.17838959 -4.59362602 9.3452943 -8.3125 9.3125 C-9.529375 9.209375 -10.74625 9.10625 -12 9 C-12 8.67 -12 8.34 -12 8 C-10.906875 7.731875 -9.81375 7.46375 -8.6875 7.1875 C-3.82903995 5.62291117 -2.76214354 4.14321532 0 0 Z " fill="#F3F9FD" transform="translate(360,53)"/>
<path d="M0 0 C2.12368747 3.45099215 2.46375691 5.98077347 2 10 C0.47035758 14.74463935 -1.35862335 17.98809693 -5.75 20.5 C-6.8225 20.995 -7.895 21.49 -9 22 C-9.66 21.34 -10.32 20.68 -11 20 C-9.63875 19.5359375 -9.63875 19.5359375 -8.25 19.0625 C-3.76374241 16.21545192 -2.52943089 12.98065975 -1 8 C-0.47024229 5.30224226 -0.20002825 2.75038849 0 0 Z " fill="#DEE6EE" transform="translate(477,46)"/>
<path d="M0 0 C1.13115234 0.01450195 1.13115234 0.01450195 2.28515625 0.02929688 C3.45111328 0.06700195 3.45111328 0.06700195 4.640625 0.10546875 C5.43339844 0.11900391 6.22617188 0.13253906 7.04296875 0.14648438 C8.99248064 0.18171652 10.94164126 0.23552054 12.890625 0.29296875 C12.890625 3.26296875 12.890625 6.23296875 12.890625 9.29296875 C10.890625 6.29296875 10.890625 6.29296875 10.890625 3.29296875 C4.620625 3.29296875 -1.649375 3.29296875 -8.109375 3.29296875 C-3.609375 -0.08203125 -3.609375 -0.08203125 0 0 Z " fill="#C2DDEF" transform="translate(249.109375,59.70703125)"/>
<path d="M0 0 C-0.33 0.99 -0.66 1.98 -1 3 C-3.64 3.33 -6.28 3.66 -9 4 C-8.67 4.99 -8.34 5.98 -8 7 C-5.49552484 8.21869929 -5.49552484 8.21869929 -3 9 C-3.33 9.66 -3.66 10.32 -4 11 C-3.01 11.66 -2.02 12.32 -1 13 C-5.40114397 12.49701212 -7.71195019 10.91227269 -11 8 C-10.64987213 5.40905378 -10.26229035 3.4225789 -8.875 1.1875 C-5.99131838 -0.63883169 -3.32254207 -0.18806842 0 0 Z " fill="#C4D6E6" transform="translate(249,110)"/>
<path d="M0 0 C-0.33 1.32 -0.66 2.64 -1 4 C0.32 4 1.64 4 3 4 C2.67 5.32 2.34 6.64 2 8 C3.32 8 4.64 8 6 8 C5.67 8.99 5.34 9.98 5 11 C2.9375 11.6875 2.9375 11.6875 1 12 C0.15841464 10.73461631 -0.67299748 9.46246221 -1.5 8.1875 C-2.19609375 7.12595703 -2.19609375 7.12595703 -2.90625 6.04296875 C-4 4 -4 4 -4 1 C-2 0 -2 0 0 0 Z " fill="#E3F0F6" transform="translate(77,27)"/>
<path d="M0 0 C2.22049766 3.98981851 2.53694767 7.50306326 2 12 C0.77014321 15.94848758 -0.13194816 18.27271333 -3.3125 20.9375 C-6.38802006 22.15340328 -8.72104626 22.22876421 -12 22 C-12 21.67 -12 21.34 -12 21 C-10.9275 20.773125 -9.855 20.54625 -8.75 20.3125 C-4.44579503 18.80602826 -3.39602341 17.80058886 -1 14 C-0.30693634 10.43089704 -0.30693634 10.43089704 -0.25 6.6875 C-0.19328125 5.43324219 -0.1365625 4.17898437 -0.078125 2.88671875 C-0.05234375 1.93410156 -0.0265625 0.98148438 0 0 Z " fill="#6FAFDB" transform="translate(471,42)"/>
<path d="M0 0 C0.99 0.495 0.99 0.495 2 1 C1.67 2.98 1.34 4.96 1 7 C2.32 7 3.64 7 5 7 C4.67 4.69 4.34 2.38 4 0 C5.32 0.33 6.64 0.66 8 1 C7.67 2.98 7.34 4.96 7 7 C8.32 7 9.64 7 11 7 C11 7.66 11 8.32 11 9 C7.37 9 3.74 9 0 9 C0 6.03 0 3.06 0 0 Z " fill="#F2F5F8" transform="translate(8,36)"/>
<path d="M0 0 C1.32 0.66 2.64 1.32 4 2 C4 2.66 4 3.32 4 4 C2.68 4.33 1.36 4.66 0 5 C0 5.66 0 6.32 0 7 C-1.32 6.67 -2.64 6.34 -4 6 C-3.67 7.32 -3.34 8.64 -3 10 C-3.99 10 -4.98 10 -6 10 C-6.66 9.01 -7.32 8.02 -8 7 C-5.36 4.69 -2.72 2.38 0 0 Z " fill="#E5F0F7" transform="translate(145,37)"/>
<path d="M0 0 C4.38249366 1.33909529 6.57949251 3.08994944 9 7 C9 9.1875 9 9.1875 8 11 C6.1875 12.3125 6.1875 12.3125 4 13 C1.75 12.625 1.75 12.625 0 12 C0 11.34 0 10.68 0 10 C3.465 9.505 3.465 9.505 7 9 C4.34345343 5.26115668 2.41889613 3.35021826 -2 2 C-1.34 1.34 -0.68 0.68 0 0 Z " fill="#EBF1F6" transform="translate(358,28)"/>
<path d="M0 0 C0.66 0 1.32 0 2 0 C2.33 0.99 2.66 1.98 3 3 C3.66 3 4.32 3 5 3 C5 4.32 5 5.64 5 7 C6.32 6.67 7.64 6.34 9 6 C9 6.99 9 7.98 9 9 C8.01 9.66 7.02 10.32 6 11 C3.36 8.69 0.72 6.38 -2 4 C-1.34 2.68 -0.68 1.36 0 0 Z " fill="#E6F2F8" transform="translate(63,37)"/>
<path d="M0 0 C2 2 2 2 2.3125 4.4375 C2 7 2 7 0.9375 8.8125 C-2.10270179 10.67584949 -4.51828011 10.36649683 -8 10 C-10.4375 8.5 -10.4375 8.5 -12 7 C-11.06027344 7.03480469 -11.06027344 7.03480469 -10.1015625 7.0703125 C-8.87566406 7.09738281 -8.87566406 7.09738281 -7.625 7.125 C-6.40683594 7.15980469 -6.40683594 7.15980469 -5.1640625 7.1953125 C-2.78657757 7.21370051 -2.78657757 7.21370051 -1 5 C-0.35232207 2.42938689 -0.35232207 2.42938689 0 0 Z " fill="#7AB7E0" transform="translate(253,132)"/>
<path d="M0 0 C7.75 -0.125 7.75 -0.125 10 1 C10 1.66 10 2.32 10 3 C7.36 3 4.72 3 2 3 C2 4.98 2 6.96 2 9 C1.34 9 0.68 9 0 9 C0 6.03 0 3.06 0 0 Z " fill="#3F71A2" transform="translate(353,112)"/>
<path d="M0 0 C0.33 0 0.66 0 1 0 C1.85757665 9.64297299 1.85757665 9.64297299 -0.9375 13.625 C-5.03036177 16.79905607 -8.00425526 16.58773468 -13 16 C-13 15.67 -13 15.34 -13 15 C-11.741875 14.7525 -10.48375 14.505 -9.1875 14.25 C-6.60409724 13.58022891 -5.19442514 13.16202095 -3.125 11.4375 C-1.43318029 7.77189062 -0.71884235 3.95786142 0 0 Z " fill="#F4FAFD" transform="translate(470,46)"/>
<path d="M0 0 C1.18335938 0.08701172 1.18335938 0.08701172 2.390625 0.17578125 C3.18984375 0.22089844 3.9890625 0.26601563 4.8125 0.3125 C5.41578125 0.37050781 6.0190625 0.42851563 6.640625 0.48828125 C6.640625 0.81828125 6.640625 1.14828125 6.640625 1.48828125 C5.3825 1.67390625 4.124375 1.85953125 2.828125 2.05078125 C-0.81909839 2.97225288 -1.18546831 3.2077866 -3.296875 6.61328125 C-4.5726095 10.49772925 -5.00320859 14.42798413 -5.359375 18.48828125 C-5.689375 18.48828125 -6.019375 18.48828125 -6.359375 18.48828125 C-6.46802445 16.42695983 -6.54525821 14.36396804 -6.609375 12.30078125 C-6.65578125 11.15222656 -6.7021875 10.00367188 -6.75 8.8203125 C-6.22136615 4.31106573 -4.7243081 0.97771277 0 0 Z " fill="#23598F" transform="translate(457.359375,35.51171875)"/>
<path d="M0 0 C2.31 0.33 4.62 0.66 7 1 C5.515 2.485 5.515 2.485 4 4 C4.66 5.65 5.32 7.3 6 9 C2.08597051 7.73058503 0.20927127 6.48832306 -2 3 C-1.34 2.01 -0.68 1.02 0 0 Z " fill="#C4E0F2" transform="translate(231,135)"/>
<path d="M0 0 C1.32 0 2.64 0 4 0 C4 2.97 4 5.94 4 9 C2.35 8.67 0.7 8.34 -1 8 C-1.125 2.25 -1.125 2.25 0 0 Z " fill="#BEE0F0" transform="translate(101,126)"/>
<path d="M0 0 C2.79872437 2.52788007 4.45773019 4.20411134 5 8 C4.34 8 3.68 8 3 8 C2.67 8.66 2.34 9.32 2 10 C-3 4.25 -3 4.25 -3 2 C-2.01 1.34 -1.02 0.68 0 0 Z " fill="#D6EDF7" transform="translate(132,116)"/>
<path d="M0 0 C0 0.33 0 0.66 0 1 C-1.258125 1.185625 -2.51625 1.37125 -3.8125 1.5625 C-7.45972339 2.48397163 -7.82609331 2.71950535 -9.9375 6.125 C-11.2132345 10.009448 -11.64383359 13.93970288 -12 18 C-12.33 18 -12.66 18 -13 18 C-13.77224537 6.27903139 -13.77224537 6.27903139 -11 1.6875 C-6.97992 -0.573795 -4.55947131 -0.38639587 0 0 Z " fill="#22598F" transform="translate(355,36)"/>
<path d="M0 0 C0.33 3.96 0.66 7.92 1 12 C0.01 11.67 -0.98 11.34 -2 11 C-2.33 8.69 -2.66 6.38 -3 4 C-3.66 4 -4.32 4 -5 4 C-5 3.01 -5 2.02 -5 1 C-2 0 -2 0 0 0 Z " fill="#D0DFEA" transform="translate(93,20)"/>
<path d="M0 0 C0.66 0 1.32 0 2 0 C1.52433594 1.05767578 1.52433594 1.05767578 1.0390625 2.13671875 C-0.04538286 5.12505879 -0.3964359 7.65069658 -0.625 10.8125 C-0.69976562 11.78832031 -0.77453125 12.76414062 -0.8515625 13.76953125 C-0.90054687 14.50558594 -0.94953125 15.24164063 -1 16 C-1.99 16.33 -2.98 16.66 -4 17 C-4.32623167 10.88617681 -4.42194939 6.33824104 -1 1 C-0.67 0.67 -0.34 0.34 0 0 Z " fill="#BBCADB" transform="translate(452,36)"/>
<path d="M0 0 C1.65 0.33 3.3 0.66 5 1 C5 1.99 5 2.98 5 4 C4.01 4 3.02 4 2 4 C1.855625 4.94875 1.71125 5.8975 1.5625 6.875 C1 10 1 10 0 12 C-0.66 12 -1.32 12 -2 12 C-1.44687265 7.97007218 -0.8441938 3.97977076 0 0 Z " fill="#DDEAF2" transform="translate(123,22)"/>
<path d="M0 0 C0.33 0 0.66 0 1 0 C1 2.31 1 4.62 1 7 C0.34 7 -0.32 7 -1 7 C-1.33 7.99 -1.66 8.98 -2 10 C-2 9.34 -2 8.68 -2 8 C-4.97 8 -7.94 8 -11 8 C-11 7.34 -11 6.68 -11 6 C-9.741875 5.938125 -8.48375 5.87625 -7.1875 5.8125 C-4.99389984 5.61529677 -4.99389984 5.61529677 -3 5 C-1.00916823 2.5748212 -1.00916823 2.5748212 0 0 Z " fill="#83BFE7" transform="translate(366,117)"/>
<path d="M0 0 C1.5778125 0.4021875 1.5778125 0.4021875 3.1875 0.8125 C3.1875 1.1425 3.1875 1.4725 3.1875 1.8125 C1.929375 1.998125 0.67125 2.18375 -0.625 2.375 C-3.81430662 3.12322171 -3.81430662 3.12322171 -5.94140625 5.46875 C-6.62926804 7.22621887 -7.22548015 9.01882825 -7.8125 10.8125 C-8.8025 11.3075 -8.8025 11.3075 -9.8125 11.8125 C-9.56714515 7.64146759 -9.12704995 5.25657052 -6.6875 1.8125 C-3.8125 -0.1875 -3.8125 -0.1875 0 0 Z " fill="#D3DDE7" transform="translate(315.8125,111.1875)"/>
<path d="M0 0 C0.66 0 1.32 0 2 0 C2.76681614 9.57668161 2.76681614 9.57668161 0.88671875 13.06640625 C-0.5 14.6875 -0.5 14.6875 -3 17 C-3.33 15.68 -3.66 14.36 -4 13 C-3.01 12.67 -2.02 12.34 -1 12 C-0.67 8.04 -0.34 4.08 0 0 Z " fill="#E2E9F0" transform="translate(371,110)"/>
<path d="M0 0 C0.66 0 1.32 0 2 0 C1.70992229 3.38423992 1.0005775 4.99923 -1.0625 7.75 C-4.8925114 10.68362575 -7.24199046 10.75806731 -12 11 C-10.0283713 9.68558087 -8.02817985 8.41285866 -6 7.1875 C-2.9652107 4.9746328 -1.7900817 3.22214705 0 0 Z " fill="#1D538A" transform="translate(367,59)"/>
<path d="M0 0 C0.99 0.33 1.98 0.66 3 1 C-0.27646883 5.4328696 -2.34229466 7.98161304 -8 9 C-11.875 8.625 -11.875 8.625 -15 8 C-15 7.67 -15 7.34 -15 7 C-14.25234375 6.91363281 -13.5046875 6.82726562 -12.734375 6.73828125 C-6.39480289 5.95456657 -6.39480289 5.95456657 -1.3125 2.375 C-0.879375 1.59125 -0.44625 0.8075 0 0 Z " fill="#E1E8EF" transform="translate(364,60)"/>
<path d="M0 0 C0.66 0 1.32 0 2 0 C1.56643364 4.91375208 -0.60622458 7.52729957 -4 11 C-6.1875 12 -6.1875 12 -8 12 C-8.66 11.34 -9.32 10.68 -10 10 C-9.071875 9.5875 -8.14375 9.175 -7.1875 8.75 C-2.97809685 6.43895513 -1.50099423 4.50298268 0 0 Z " fill="#DCE4EC" transform="translate(333,133)"/>
<path d="M0 0 C1.98 0.495 1.98 0.495 4 1 C3.67 3.97 3.34 6.94 3 10 C2.34 10 1.68 10 1 10 C-1.29404844 6.55892734 -1.26293056 5.03160191 -1 1 C-0.67 0.67 -0.34 0.34 0 0 Z " fill="#ACD1E5" transform="translate(106,19)"/>
<path d="M0 0 C2.475 0.495 2.475 0.495 5 1 C4.67 2.65 4.34 4.3 4 6 C3.34 6 2.68 6 2 6 C1.67 6.99 1.34 7.98 1 9 C-0.4783226 6.04335481 -0.06032783 3.25770263 0 0 Z " fill="#BEE5F4" transform="translate(106,125)"/>
<path d="M0 0 C0.33 0 0.66 0 1 0 C1.29201904 4.96432365 1.14707573 8.03701574 -2 12 C-2.99 12.33 -3.98 12.66 -5 13 C-5 8.22502694 -3.92518777 7.54568215 -1 4 C-0.22166466 1.81785432 -0.22166466 1.81785432 0 0 Z " fill="#21568C" transform="translate(374,115)"/>
<path d="M0 0 C3 1 3 1 4.75 3.4375 C5.36875 4.7059375 5.36875 4.7059375 6 6 C5.67 6.66 5.34 7.32 5 8 C4.34 7.67 3.68 7.34 3 7 C2.67 7.66 2.34 8.32 2 9 C0.4375 6.1875 0.4375 6.1875 -1 3 C-0.67 2.01 -0.34 1.02 0 0 Z " fill="#DBEEF7" transform="translate(126,120)"/>
<path d="M0 0 C3.3859496 1.45112126 5.41675821 3.41675821 8 6 C8.66 6 9.32 6 10 6 C9.34 7.32 8.68 8.64 8 10 C1.42857143 5 1.42857143 5 0 0 Z " fill="#E8F5FA" transform="translate(67,33)"/>
<path d="M0 0 C2.0625 2.25 2.0625 2.25 4 5 C3.75 7.3125 3.75 7.3125 3 9 C3 8.34 3 7.68 3 7 C2.01 7.33 1.02 7.66 0 8 C-3 4.25 -3 4.25 -3 2 C-2.01 1.34 -1.02 0.68 0 0 Z " fill="#1AA1D9" transform="translate(74,32)"/>
<path d="M0 0 C0.33 0.66 0.66 1.32 1 2 C2.32 2 3.64 2 5 2 C5.99 3.98 6.98 5.96 8 8 C6.02 8 4.04 8 2 8 C2.33 6.68 2.66 5.36 3 4 C1.68 4 0.36 4 -1 4 C-0.67 2.68 -0.34 1.36 0 0 Z " fill="#289BD0" transform="translate(77,27)"/>
<path d="M0 0 C0.99 0 1.98 0 3 0 C3 0.66 3 1.32 3 2 C4.65 2.33 6.3 2.66 8 3 C7.67 4.32 7.34 5.64 7 7 C6.01 6.67 5.02 6.34 4 6 C4 5.34 4 4.68 4 4 C2.68 3.67 1.36 3.34 0 3 C0 2.01 0 1.02 0 0 Z " fill="#D5EAF4" transform="translate(142,106)"/>
<path d="M0 0 C2.0625 0.4375 2.0625 0.4375 4 1 C3.67 2.32 3.34 3.64 3 5 C2.34 5 1.68 5 1 5 C0.34 6.32 -0.32 7.64 -1 9 C-1.66 8.67 -2.32 8.34 -3 8 C-3 4.72224847 -2.36665159 2.36665159 0 0 Z " fill="#B3D7E9" transform="translate(131,26)"/>
<path d="M0 0 C1.32 0 2.64 0 4 0 C3.67 2.97 3.34 5.94 3 9 C2.34 9 1.68 9 1 9 C0.67 6.03 0.34 3.06 0 0 Z " fill="#D1E9F4" transform="translate(112,125)"/>
<path d="M0 0 C0.66 0 1.32 0 2 0 C1.86722656 0.54527344 1.73445313 1.09054688 1.59765625 1.65234375 C0.32210753 7.09902987 -0.46963843 12.43120352 -1 18 C-1.33 18 -1.66 18 -2 18 C-2.054138 15.75026553 -2.09285491 13.50015617 -2.125 11.25 C-2.14820313 9.99703125 -2.17140625 8.7440625 -2.1953125 7.453125 C-2.01537302 4.27179508 -1.68998582 2.63478104 0 0 Z " fill="#8AC5EA" transform="translate(302,114)"/>
<path d="M0 0 C1.22589844 0.01353516 1.22589844 0.01353516 2.4765625 0.02734375 C3.41628906 0.04474609 3.41628906 0.04474609 4.375 0.0625 C4.705 0.7225 5.035 1.3825 5.375 2.0625 C4.66472656 2.11148438 3.95445312 2.16046875 3.22265625 2.2109375 C1.84400391 2.32308594 1.84400391 2.32308594 0.4375 2.4375 C-0.47902344 2.50710937 -1.39554688 2.57671875 -2.33984375 2.6484375 C-3.09394531 2.78507812 -3.84804687 2.92171875 -4.625 3.0625 C-4.955 3.7225 -5.285 4.3825 -5.625 5.0625 C-5.955 3.7425 -6.285 2.4225 -6.625 1.0625 C-4.21954362 -0.14022819 -2.67503047 -0.03821472 0 0 Z " fill="#2B6094" transform="translate(246.625,112.9375)"/>
<path d="M0 0 C0.71285156 0.20496094 1.42570312 0.40992187 2.16015625 0.62109375 C7.43976749 2.10620647 12.54711116 3.39412346 18 4 C18 4.33 18 4.66 18 5 C16.27119018 5.05449838 14.54187288 5.09301688 12.8125 5.125 C11.84957031 5.14820312 10.88664062 5.17140625 9.89453125 5.1953125 C6.80871915 4.98709306 4.73648621 4.42732096 2 3 C1.34 2.01 0.68 1.02 0 0 Z " fill="#F3F7FA" transform="translate(338,64)"/>
<path d="M0 0 C0.33 0 0.66 0 1 0 C1.44117322 4.49996683 1.52867608 6.34611117 -1.375 9.9375 C-4 12 -4 12 -6 12 C-4.97379138 9.7897045 -3.94283206 7.92682503 -2.4375 6 C-0.96806014 3.95556194 -0.43835352 2.45477972 0 0 Z " fill="#265B90" transform="translate(436,38)"/>
<path d="M0 0 C2.5 2.3125 2.5 2.3125 5 5 C5 5.99 5 6.98 5 8 C3.35 8 1.7 8 0 8 C0 6.68 0 5.36 0 4 C-0.66 3.67 -1.32 3.34 -2 3 C-1.34 2.01 -0.68 1.02 0 0 Z " fill="#24A5DA" transform="translate(68,36)"/>
<path d="M0 0 C3.5786304 1.65167557 6.74820188 3.78286492 10 6 C8.25 6.6875 8.25 6.6875 6 7 C4 5.625 4 5.625 2 4 C-0.14733927 3.29485154 -0.14733927 3.29485154 -2 3 C-1.34 2.01 -0.68 1.02 0 0 Z " fill="#F4F9FD" transform="translate(234,132)"/>
<path d="M0 0 C1.98 0.495 1.98 0.495 4 1 C4 1.99 4 2.98 4 4 C3.01 4.33 2.02 4.66 1 5 C1.66 5.33 2.32 5.66 3 6 C2.67 6.99 2.34 7.98 2 9 C1.01 9 0.02 9 -1 9 C-1.125 2.25 -1.125 2.25 0 0 Z " fill="#DFF1F9" transform="translate(92,124)"/>
<path d="M0 0 C1.32 0 2.64 0 4 0 C4 1.32 4 2.64 4 4 C4.99 4 5.98 4 7 4 C7 4.99 7 5.98 7 7 C4.625 6.6875 4.625 6.6875 2 6 C0 3 0 3 0 0 Z " fill="#DEEFF7" transform="translate(135,114)"/>
<path d="M0 0 C0.33 0.99 0.66 1.98 1 3 C1.99 3.33 2.98 3.66 4 4 C4.99 4.33 5.98 4.66 7 5 C6.67 5.99 6.34 6.98 6 8 C2.74456771 7.65120368 1.98126893 6.97866739 -0.25 4.4375 C-1.11625 3.2309375 -1.11625 3.2309375 -2 2 C-1.34 1.34 -0.68 0.68 0 0 Z " fill="#DAEAF3" transform="translate(140,109)"/>
<path d="M0 0 C0.99 0.99 1.98 1.98 3 3 C1.02 3.99 -0.96 4.98 -3 6 C-3 6.66 -3 7.32 -3 8 C-3.99 7.67 -4.98 7.34 -6 7 C-6 6.01 -6 5.02 -6 4 C-3 1.8125 -3 1.8125 0 0 Z " fill="#D6E8F2" transform="translate(65,105)"/>
<path d="M0 0 C0.66 0.33 1.32 0.66 2 1 C0.19587357 4.26460973 -0.83394693 5.88929795 -4 8 C-6.33199388 8.07905064 -8.66832622 8.08798769 -11 8 C-11 7.67 -11 7.34 -11 7 C-9.6696875 6.6596875 -9.6696875 6.6596875 -8.3125 6.3125 C-4.56619468 4.82811487 -2.66270566 2.97596515 0 0 Z " fill="#6FAFDB" transform="translate(361,56)"/>
<path d="M0 0 C2.64 0.66 5.28 1.32 8 2 C8.33 1.34 8.66 0.68 9 0 C9.33 1.32 9.66 2.64 10 4 C6.7 4 3.4 4 0 4 C0 2.68 0 1.36 0 0 Z " fill="#FBFDFE" transform="translate(365,142)"/>
<path d="M0 0 C0.99 0.33 1.98 0.66 3 1 C2.67 2.32 2.34 3.64 2 5 C1.34 4.34 0.68 3.68 0 3 C-0.33 3.99 -0.66 4.98 -1 6 C-0.34 6.33 0.32 6.66 1 7 C-0.65 7.33 -2.3 7.66 -4 8 C-3.50168276 4.31245243 -2.89932357 2.39509338 0 0 Z " fill="#DFF1F8" transform="translate(75,116)"/>
<path d="M0 0 C1.32 0 2.64 0 4 0 C4 1.98 4 3.96 4 6 C2.68 6 1.36 6 0 6 C0 4.02 0 2.04 0 0 Z " fill="#26578B" transform="translate(9,37)"/>
<path d="M0 0 C0.33 0 0.66 0 1 0 C1.365625 5.484375 1.365625 5.484375 -0.21875 7.71875 C-2.60522425 9.43533674 -3.82737916 9.14346129 -6.6875 8.6875 C-7.49574219 8.56761719 -8.30398438 8.44773437 -9.13671875 8.32421875 C-9.75160156 8.21722656 -10.36648438 8.11023437 -11 8 C-11 7.67 -11 7.34 -11 7 C-9.72125 6.87625 -8.4425 6.7525 -7.125 6.625 C-3.65209064 6.30957601 -3.65209064 6.30957601 -1 4 C-0.3574765 1.93125966 -0.3574765 1.93125966 0 0 Z " fill="#80BDE5" transform="translate(428,39)"/>
<path d="M0 0 C0.99 0 1.98 0 3 0 C3.33 0.66 3.66 1.32 4 2 C4.66 1.34 5.32 0.68 6 0 C5.67 1.65 5.34 3.3 5 5 C3.35 5 1.7 5 0 5 C0 3.35 0 1.7 0 0 Z " fill="#C4E7F5" transform="translate(113,27)"/>
<path d="M0 0 C0.99 0.33 1.98 0.66 3 1 C2.01 1.33 1.02 1.66 0 2 C0.33 2.99 0.66 3.98 1 5 C0.01 5 -0.98 5 -2 5 C-2.33 5.99 -2.66 6.98 -3 8 C-3.66 7.01 -4.32 6.02 -5 5 C-3.35 3.35 -1.7 1.7 0 0 Z " fill="#E8F4FA" transform="translate(71,113)"/>
<path d="M0 0 C8.12628256 -0.46882399 8.12628256 -0.46882399 11.5625 1.375 C13 3 13 3 13 5 C12.34 4.71125 11.68 4.4225 11 4.125 C7.37500535 2.76562701 3.76653307 1.89375361 0 1 C0 0.67 0 0.34 0 0 Z " fill="#F5F7FA" transform="translate(243,111)"/>
<path d="M0 0 C0.66 0.33 1.32 0.66 2 1 C1.525625 1.886875 1.05125 2.77375 0.5625 3.6875 C-0.79737149 6.57042756 -1.54060386 8.87610623 -2 12 C-2.33 12 -2.66 12 -3 12 C-3.36923077 4.61538462 -3.36923077 4.61538462 -1.5 1.5 C-1.005 1.005 -0.51 0.51 0 0 Z " fill="#7DBFE9" transform="translate(236,108)"/>
<path d="M0 0 C5.75 1.875 5.75 1.875 8 3 C7.67 4.32 7.34 5.64 7 7 C6.34 7 5.68 7 5 7 C5 6.01 5 5.02 5 4 C4.360625 3.896875 3.72125 3.79375 3.0625 3.6875 C2.381875 3.460625 1.70125 3.23375 1 3 C0.67 2.01 0.34 1.02 0 0 Z " fill="#EAF3F9" transform="translate(360,53)"/>
<path d="M0 0 C3.40320742 1.01176437 4.75725331 1.64843582 6.8125 4.625 C7.204375 5.40875 7.59625 6.1925 8 7 C4.66666667 5.33333333 1.33333333 3.66666667 -2 2 C-1.34 1.34 -0.68 0.68 0 0 Z " fill="#EEF5F9" transform="translate(427,28)"/>
<path d="M0 0 C4.875 2.625 4.875 2.625 6 6 C5.01 6.66 4.02 7.32 3 8 C1.5 6.8125 1.5 6.8125 0 5 C-0.1875 2.3125 -0.1875 2.3125 0 0 Z " fill="#26A6DB" transform="translate(141,107)"/>
<path d="M0 0 C0.66 0 1.32 0 2 0 C2.433125 1.2065625 2.433125 1.2065625 2.875 2.4375 C3.73262568 5.1326468 3.73262568 5.1326468 6 6 C6 6.66 6 7.32 6 8 C4.68 8 3.36 8 2 8 C1.34 5.36 0.68 2.72 0 0 Z " fill="#D5E8F2" transform="translate(117,124)"/>
<path d="M0 0 C1.65 1.65 3.3 3.3 5 5 C3.02 5.99 3.02 5.99 1 7 C0.34 6.01 -0.32 5.02 -1 4 C-0.34 4 0.32 4 1 4 C1 3.34 1 2.68 1 2 C0.01 1.67 -0.98 1.34 -2 1 C-1.34 0.67 -0.68 0.34 0 0 Z " fill="#36AEDF" transform="translate(138,112)"/>
<path d="M0 0 C0.66 0 1.32 0 2 0 C1.6875 2.375 1.6875 2.375 1 5 C0.01 5.66 -0.98 6.32 -2 7 C-2.66 6.34 -3.32 5.68 -4 5 C-2.71937515 3.2925002 -1.38232443 1.62626404 0 0 Z " fill="#20568C" transform="translate(259,111)"/>
<path d="M0 0 C2.97 0.33 5.94 0.66 9 1 C9 1.66 9 2.32 9 3 C2.84765625 2.4140625 2.84765625 2.4140625 1 2 C0.67 1.34 0.34 0.68 0 0 Z " fill="#ECF6FC" transform="translate(244,120)"/>
<path d="M0 0 C1.32 0.33 2.64 0.66 4 1 C2.6875 3.5 2.6875 3.5 1 6 C0.01 6 -0.98 6 -2 6 C-2 5.01 -2 4.02 -2 3 C-1.34 2.67 -0.68 2.34 0 2 C0 1.34 0 0.68 0 0 Z " fill="#2DA4D7" transform="translate(71,115)"/>
<path d="M0 0 C3.65316671 1.24976756 4.78065836 1.67098753 7 5 C3.30581799 5 1.22163822 3.71820705 -2 2 C-1.34 1.34 -0.68 0.68 0 0 Z " fill="#F0F7FC" transform="translate(365,105)"/>
<path d="M0 0 C5.53846154 -0.36923077 5.53846154 -0.36923077 7.875 1.5 C8.24625 1.995 8.6175 2.49 9 3 C8.67 3.99 8.34 4.98 8 6 C7.236875 5.38125 6.47375 4.7625 5.6875 4.125 C3.00374191 1.94402948 3.00374191 1.94402948 0 0 Z " fill="#E4EDF4" transform="translate(465,29)"/>
<path d="M0 0 C1.32 0.33 2.64 0.66 4 1 C3.01 1.495 3.01 1.495 2 2 C1.67 2.825 1.34 3.65 1 4.5 C0 7 0 7 -2 8 C-1.34 5.36 -0.68 2.72 0 0 Z " fill="#DBF0F9" transform="translate(79,119)"/>
<path d="M0 0 C0.99 0 1.98 0 3 0 C3 1.98 3 3.96 3 6 C2.01 6 1.02 6 0 6 C0 4.02 0 2.04 0 0 Z " fill="#114780" transform="translate(15,37)"/>
<path d="M0 0 C1.98 0 3.96 0 6 0 C5.67 0.99 5.34 1.98 5 3 C2.9375 3.6875 2.9375 3.6875 1 4 C0.67 2.68 0.34 1.36 0 0 Z " fill="#D6EEF8" transform="translate(77,35)"/>
<path d="M0 0 C0.66 0 1.32 0 2 0 C2.33 2.31 2.66 4.62 3 7 C2.01 6.67 1.02 6.34 0 6 C0 4.02 0 2.04 0 0 Z " fill="#DDF1F9" transform="translate(91,25)"/>
<path d="M0 0 C1.98 0 3.96 0 6 0 C6.33 0.99 6.66 1.98 7 3 C4.625 3.1875 4.625 3.1875 2 3 C1.34 2.01 0.68 1.02 0 0 Z " fill="#D5EAF8" transform="translate(243,137)"/>
<path d="M0 0 C0.66 0 1.32 0 2 0 C2 0.99 2 1.98 2 3 C2.99 3.33 3.98 3.66 5 4 C5.33 4.99 5.66 5.98 6 7 C5.01 7 4.02 7 3 7 C0.64276511 4.46815512 0 3.52809907 0 0 Z " fill="#EBF1F7" transform="translate(365,124)"/>
<path d="M0 0 C-4.32734391 2.22923777 -7.28400182 1.92470553 -12 1 C-12 0.67 -12 0.34 -12 0 C-3.42857143 -1.28571429 -3.42857143 -1.28571429 0 0 Z " fill="#BECDDC" transform="translate(361,67)"/>
<path d="M0 0 C0.33 0.66 0.66 1.32 1 2 C1.66 2.33 2.32 2.66 3 3 C1.02 4.32 -0.96 5.64 -3 7 C-3 4 -3 4 -2 2 C-1.34 2 -0.68 2 0 2 C0 1.34 0 0.68 0 0 Z " fill="#249CD2" transform="translate(141,36)"/>
<path d="M0 0 C0.99 0.33 1.98 0.66 3 1 C2.67 2.65 2.34 4.3 2 6 C1.34 6 0.68 6 0 6 C-1 3 -1 3 0 0 Z " fill="#D5EEF8" transform="translate(86,29)"/>
</svg>
